<svg xmlns="http://www.w3.org/2000/svg" viewBox="0 0 411.12 748.05"><defs><style>.cls-1{fill:#fa6732;}.cls-2{fill:#f7c8b9;}</style></defs><g id="Layer_2" data-name="Layer 2"><g id="Layer_1-2" data-name="Layer 1"><path class="cls-1" d="M28.13,708.45c-3.38-5.87-8.64-11-10.32-17.66a7,7,0,0,1-.08-2.72L24,683.28a6.75,6.75,0,0,1,3.23,1.39c10,10.61,16.46,24.53,25.16,36.3,5.33,7.35,10.58,15.5,12.11,24.53l-4.92,2.55C45.48,738.39,37.75,722.27,28.13,708.45Z"/><path class="cls-1" d="M49,738.54c9.07-4.66,18.13-9.35,27-14.37,16-9.43,33.35-19,48.71-29.1,37.4-25.35,72.09-55.16,105.65-85,28.8-24.89,56.92-50.76,80.28-80.95,31.7-42.21,57.45-89.24,73-139.59a526.9,526.9,0,0,0,11.24-68.27c.14-15.63,1.65-32.07,2.8-46.93,1.41-39-3.82-78.84-16.56-115.85-15.17-34.45-36.21-67.27-63.85-93-7-6.36-15.89-9.85-24.25-14C271.89,40,249.24,32.33,226.47,25.05c-17.4-5.94-35.27-12.89-54-11.59-25.09,1.6-49,11.4-70.92,23.19-18.24,10.63-32.82,25.19-46.47,41C33.67,100.6,22.82,130.73,16.66,161c-6.37,31.27-3.56,63.68,6.73,93.81,15.12,39.86,51.32,65,88,83.39,38.78,23,47.89,12,88.27,8.65,12.83-.67,26.07,1.38,37.58,7.27,20.36,13.6,31,38.76,30.24,62.85-5.5,39.69-25,76-48,108.34-18.25,24.35-40.92,44.75-63.22,65.26-42.62,38.77-86.94,76.1-133.38,110.18a30.63,30.63,0,0,1-5.12-10,7,7,0,0,1-.08-2.72C80.86,639.91,143,589.62,197.25,531.63c26.8-31.43,70.36-101.33,52-142.81-6.76-13.12-16.59-26.05-32.34-27.58C204,358.66,191,360.84,178,363c-13.79,2.32-27.55,4.64-41.21,1.23a215.31,215.31,0,0,1-26.11-11.32C48.56,322.41,7.85,286.22.59,213.83c-3.22-43.63,6.7-89.15,30.06-126.32C46.17,65.54,65,45.09,87.35,30c22.94-14.66,49.23-25.34,76.28-29,32.6-5.1,62.9,11.35,93.35,20.17,12.89,4.21,25.15,9.94,37.23,16.05,9.76,5,20.33,8.86,29,15.8,25.7,22,44.64,50.71,60.6,80.24,10.69,18.24,16.19,38.94,20.55,59.47a356.76,356.76,0,0,1,4.58,108.67C407.44,347.41,400,394,380.69,435.91c-40.51,90.65-85.76,137.49-160,200.41-40.5,35.81-83.23,69.28-130.79,95.23-9.92,5.84-20.09,11.22-30.31,16.5A57.41,57.41,0,0,1,49,738.54Z"/><path class="cls-2" d="M52.38,721c-6.64-9-12-19.21-18.58-28.27C76.3,660.83,117,626.33,156.31,590.59c22.3-20.51,45-40.92,63.22-65.26,23-32.31,42.48-68.66,48-108.34.76-24.09-9.88-49.25-30.24-62.86-11.51-5.89-24.75-7.93-37.58-7.26-40.38,3.3-49.49,14.3-88.27-8.65-36.71-18.37-72.91-43.53-88-83.39C13.1,224.7,10.3,192.29,16.66,161c6.16-30.29,17-60.41,38.45-83.34,13.65-15.84,28.23-30.39,46.47-41,21.94-11.79,45.83-21.59,70.92-23.19,18.7-1.31,36.57,5.65,54,11.58C249.24,32.33,271.89,40,293,51.38c8.36,4.16,17.25,7.65,24.25,14,27.64,25.77,48.68,58.59,63.85,93,12.74,37,18,76.8,16.56,115.84-1.15,14.87-2.66,31.31-2.8,46.94a527.18,527.18,0,0,1-11.24,68.27c-15.53,50.35-41.28,97.38-73,139.58-23.36,30.2-51.48,56.06-80.28,80.95-33.56,29.89-68.25,59.7-105.65,85C109.34,705.15,92,714.74,76,724.17c-5.28,3-10.63,5.86-16,8.67A97.83,97.83,0,0,0,52.38,721Z"/></g></g></svg>