<svg xmlns="http://www.w3.org/2000/svg" viewBox="0 0 843.54 601.92"><defs><style>.cls-1{fill:#fa6732;}.cls-2{fill:#f7c8b9;}</style></defs><g id="Layer_2" data-name="Layer 2"><g id="Layer_1-2" data-name="Layer 1"><path class="cls-1" d="M13.61,145.53V149q0,7.58,0,15.18,0,15.33,0,30.67,0,32.23,0,64.47t0,64.32q0,32.06,0,64.1t0,63.92q0,30.36-.05,60.73,0,30.11,0,60.2,0,.84,0,1.68c0,1-.11,1.92-.22,2.87q0,.38-.09.75c0,.29-.07.58-.12.88s-.08.58-.13.87a49.87,49.87,0,0,1-1.62,6.75A44.62,44.62,0,0,1,8.5,593.1a2.17,2.17,0,0,1-.68.82h0l-.06.05h0l0,0h0l0,0h0l0,0,0,0h0l-.09,0h0l0,0H7.28l0,0H6.64a2.05,2.05,0,0,1-.54-.07,2.08,2.08,0,0,1-1.24-1h0l-.07-.14v0a49,49,0,0,1-3.38-9.54A47.93,47.93,0,0,1,0,571.91q0-7.2,0-14.39,0-30.6,0-61.2,0-30.27,0-60.57,0-32.38,0-64.77,0-31.78,0-63.59,0-32.42,0-64.83,0-31.67,0-63.34,0-11.82,0-23.63c0-3.56,0-7.12,0-10.68a17.54,17.54,0,0,1,.37-3.75,7.81,7.81,0,0,1,.66-1.82c.15-.29.31-.57.48-.85s.18-.28.27-.4l.27-.4,0-.05,0,0,0,0h0v0l.08-.09v0l0,0a.1.1,0,0,0,0,0h0l0-.05,0-.05h0l0-.05,0,0h0a.1.1,0,0,1,0-.05l0,0h0l.09-.1.09-.1h0c.06-.06.12-.13.19-.19h0A6.21,6.21,0,0,1,5.83,135h0a4.39,4.39,0,0,1,1.62-.15,5.62,5.62,0,0,1,3.08,1.65l.29.28L11,137l.24.27a1.24,1.24,0,0,1,.14.18,1.46,1.46,0,0,1,.16.19c.11.15.21.29.3.44l.12.17c.14.23.27.45.39.68l.11.21h0l.18.37a4.4,4.4,0,0,1,.21.5c.12.3.24.6.34.9a13.85,13.85,0,0,1,.46,4.49v.16Z"/><path class="cls-1" d="M426.73,576.16c.93.74,1.85,1.52,2.73,2.34q-1.36.45-2.76.81c-1.16.3-2.33.55-3.5.75-.8.14-1.59.25-2.39.35h0l-.14,0h-.18l-1.3.13h-.06l-.33,0c-.13,0-.26,0-.4,0h-.14l-.31,0h0c-.35,0-.7,0-1.05.06l-.5,0h-.57c-.46,0-.92,0-1.38,0h-1.05a67.92,67.92,0,0,1-15.9-2.37l-3.91-.89-.5-.11-2.23-.5-.45-.1C334.29,564.27,286.64,557,239,556.94h-.26c-47.25,0-94.51,7.2-150,23.63-1.87.56-3.75,1.12-5.64,1.7-17.71,5.15-35.41,10.34-52.92,16.15-1.18.4-2.48.94-3.83,1.47a23.45,23.45,0,0,1-7.75,2h-.23a6.58,6.58,0,0,1-5.88-3.21,8.23,8.23,0,0,1-.14-.94,8.43,8.43,0,0,1,0-.86v-.24h0c.12-4.25,3.41-7,7.77-8.95l.32-.14.59-.25.52-.22,1.06-.4,1.63-.58,1.11-.36,1.12-.34c.94-.28,1.88-.54,2.81-.8l3.08-.85,1.25-.34.6-.17.59-.18,1.14-.34c.55-.18,1.09-.36,1.59-.54L38,582l.47-.19c.31-.12.61-.25.88-.38,12.47-3.86,25-7.65,37.5-11.27,2.89-.83,5.79-1.66,8.69-2.47s5.8-1.62,8.71-2.41l2.91-.78,5.82-1.55c1.94-.5,3.88-1,5.83-1.5l5.84-1.47c2.93-.72,5.86-1.42,8.78-2.12s5.87-1.35,8.81-2C186.7,542.7,237,541.07,287.63,546q7.62.75,15.25,1.69c3.39.41,6.78.86,10.18,1.32,2.55.36,5.1.72,7.66,1.1q14.05,2.1,28.27,4.71c2.58.47,5.18,1,7.78,1.45l5.2,1q5.22,1,10.47,2.09l5.26,1.09,7.92,1.67q8,1.7,16,3.5l1,.15h0l.76.13,1.29.25.81.17,1,.21.95.23.94.25,1,.27.9.27c.31.1.62.19.92.3l.92.3,1.45.53a52.28,52.28,0,0,1,6.46,2.95,48.76,48.76,0,0,1,5.38,3.41C425.78,575.42,426.26,575.79,426.73,576.16Z"/><path class="cls-1" d="M834,599.36l-.55-.05h-.07l-.42,0h-.11l-.16,0-.33,0L831,599l-.35,0-1.44-.2-.83-.14-.17,0-.49-.09-1-.18-.83-.17-.57-.12-.5-.11-.12,0-.34-.08-.11,0-.82-.19-1-.26-.07,0h0l-1.16-.32-.17,0-.82-.25c-.81-.25-1.61-.51-2.41-.8l-.17-.06-.16,0-.26-.1h0c-.94-.34-1.87-.72-2.78-1.12l-.07,0-.25-.11-.32-.15c-7.46-3.81-15.27-8.15-22.63-11.76l-.66-.32C768,571,745,560.63,721.31,552.27l.58.2a274.15,274.15,0,0,0-99.84-18.87h-.27c-34.92,0-69.8,6.55-105.15,18.16l-.91.3-1.26.42-2.74.93-1.67.57c-15.15,5.34-30.29,10.78-45.19,16.79l-.29.12-.49.2-.49.2-.32.13-.68.28-.16.06-.83.34-.09,0-.9.37q-6.12,2.52-12.18,5.19l-.42.19-.13.06-.86.38c-4.67,1.48-10.86,6.21-16.21,6.88-.88-.34-1.77-.67-2.66-1-.46-.18-.94-.34-1.41-.52h0l-.06,0-.67-.25a1,1,0,0,1-.18-.07c-.17-.05-.33-.12-.5-.18l-.06,0-.07,0,0,0-.13-.05-.14-.06-.1,0-.14-.06-.4-.17,0,0-.13-.06,0,0h0c-.25-.31-.5-.66-.75-1-1.27-11,17.85-13.85,25.25-18.46,17.32-7.37,35.67-14.08,53.25-20.34C565.69,520,636.41,511,702,532c37.2,10.84,72.86,27,107.06,44.73,9.77,4.58,19.16,10.85,24.48,20.41h0c.19.34.37.68.55,1s.4.79.59,1.2Z"/><path class="cls-1" d="M426.06,583.46l-.07,0h0l-.14-.06h0l0,0-.43-.16h-.05c-.44-.17-.88-.35-1.3-.55a10.52,10.52,0,0,1-.75-1,8.74,8.74,0,0,1-.05-1.52c-.79.13-1.59.25-2.39.34h0l-.54.07h-.1l-.45,0-.6.06-.32,0-.86.07h0l-1.05.05-1,0h-.06c-.47,0-.93,0-1.4,0h-1q.12-15.82.25-31.64.31-39.36.62-78.73.27-39.88.64-79.79.33-39.35.62-78.7.3-39.06.62-78.12.3-38.79.62-77.59.33-38.62.61-77.24.11-14.33.23-28.66l.22.13.15.08.28.16h0l.05,0,.44.26.49.31h0l.16.1c.25.16.5.32.73.49l.1.06.12.08,0,0,0,0,.25.18.52.38.31.24.41.32.12.1,0,0,0,0,0-.05.11-.11,0,0,0,0,.07-.07.3-.29.25-.22.12-.1,0,0,0,0,0,0,.05-.05,0,0,.08-.07.13-.11.09-.06h0l.05,0,.08-.06.32-.23.08-.05,0,0,0,0,.05,0,0,0h0l.07,0h0l.23-.15h0l.24-.14,0,0A1.51,1.51,0,0,1,425,51l.06,0h0l0,0,.19-.09.5-.22,0,0h0l.1,0,.15-.06.26-.09.12,0L430.92,48q-.1,14.56-.23,29.13-.29,38.64-.61,77.28-.3,38.91-.62,77.84T428.84,310q-.31,39.14-.62,78.26-.36,39.82-.63,79.66T427,547.72q-.15,18-.29,36Z"/><path class="cls-1" d="M833.19,599.28l-.38,0-.11,0-.18,0c-.56-.05-1.12-.12-1.68-.19l-.15,0-.35,0h-.05l-.3,0-.14,0-.24,0-.3,0h-.07l-.81-.13h0l-1-.18-.61-.11-.16,0-.48-.1-.18,0-.25-.05-.09,0-.24,0-.2,0-.23,0-.07,0h-.05l-.49-.11h0l-.15,0-.13,0-.24-.06c-.91-.22-1.81-.46-2.71-.72H821l-.78-.24c0-.32,0-.64.08-1,2.17-26.88,4.7-54.27,6.56-81.12,11-134.12-5.55-267.92-17.35-401.3a52.54,52.54,0,0,1,3.53-16.52l4.74,6.4,1.23,1.67c.48.65,1,1.3,1.45,2a46.83,46.83,0,0,1,2.28,9.34c.16,1.6.33,3.19.49,4.79,0,.17,0,.34,0,.51l.3,2.89c.19,1.82.37,3.64.56,5.46s.35,3.38.52,5.06q2.87,28.08,5.59,56.19l0,.34c.06.67.13,1.36.19,2,0,0,0,0,0,.08.06.66.13,1.34.19,2,0,.27,0,.52.07.79l.12,1.25c0,.33.07.67.1,1s0,.5.07.75c.13,1.43.26,2.85.4,4.28,0,.2,0,.39,0,.58,0,.47.09.92.13,1.39,0,.14,0,.29,0,.43,10.35,111.39,17,223.19,6.86,334.77a.13.13,0,0,0,0,.06c-.15,1.69-.31,3.39-.47,5.08,0,0,0,.09,0,.14-.1,1.08-.2,2.18-.31,3.25,0,.07,0,.14,0,.2l-.15,1.56,0,.22-.15,1.59a.13.13,0,0,0,0,.06c-.05.51-.11,1-.16,1.54,0,.07,0,.15,0,.22-.06.51-.11,1-.16,1.53l0,.29c-.06.52-.11,1-.16,1.55q-.45,5.19-.88,10.36-1.31,15.42-2.56,30.84Z"/><path class="cls-1" d="M.29,144.91a17.54,17.54,0,0,1,.37-3.75,9.51,9.51,0,0,1,1.69-3.47.86.86,0,0,0,.07-.1l0,0,.07-.09v0l.07-.09h0l.09-.1h0l.08-.09h0a.43.43,0,0,1,.09-.1h0l.18-.2h0l.19-.19h0A6.18,6.18,0,0,1,5.83,135h0a4.42,4.42,0,0,1,1.63-.15,5.63,5.63,0,0,1,3.07,1.65A9.29,9.29,0,0,1,12.81,140Q6.6,146.58.28,153.1C.28,150.37.29,147.64.29,144.91Z"/><path class="cls-1" d="M58.87,76.48l2.46-1.29,6.54-3.4h0c.64-.32,1.27-.65,1.89-1l2.32-1.19c0,.27,0,.53,0,.8A70.56,70.56,0,0,1,59,88.36Q59,82.42,58.87,76.48Z"/><path class="cls-1" d="M434.64,59.79q-1.59.12-3.15.12h-.66c-.7,0-1.4,0-2.1-.08a52.61,52.61,0,0,1-9.44-1.51l-1.77-.47h0l.06-7.55,0-3.1,0,3.1h0l.11.05.05,0,.05,0h0l.15.08.12.07.16.09h0l0,0,.16.09.14.08.16.1.32.2.14.09h0l0,0h0l.17.1.28.19.25.17.19.13.05,0,.05,0h0l.1.07.05,0s0,0,0,0l.24.17h0l0,0,.39.28.1.07.15.12.16.12h0l.09.07.12.09.2.16h0l.11.1h0v0h0l0,0h0l0-.05.06-.06.06-.06h0l.07-.08h0l.3-.29.13-.11.12-.11.11-.1,0,0,0,0h0l0,0,0,0,0,0h0l0,0,.09-.07.1-.08,0,0,0,0,.05,0h0l0,0,.09-.06.31-.23s0,0,.05,0l0,0,0,0h0l0,0,0,0,0,0,0,0h0l.23-.15h0l.19-.11,0,0h0l.11-.06.11,0s0,0,.06,0h0l.05,0,.15-.07.5-.22,0,0h0l.05,0,.12,0,.31-.11h0a45.45,45.45,0,0,1,4.48,4.41A41.39,41.39,0,0,1,434.64,59.79Z"/><path class="cls-1" d="M422,53.27l.06-.06.07-.08s0,0,0-.05l.05,0a.94.94,0,0,1,.1-.1l.3-.29.25-.22a.52.52,0,0,1,.11-.1l.07-.06,0,0h0l.05,0,.09-.07.07-.06.14-.11.11-.09,0,0,.07,0a1.25,1.25,0,0,1,.12-.08l.12-.09a3.28,3.28,0,0,1,.31-.2.05.05,0,0,1,0,0,5.55,5.55,0,0,1,.48-.29L425,51l.07,0,.08,0,.07,0,.15-.08.49-.21.05,0,.09,0c.13-.05.25-.1.39-.14h0l.09,0h0L430.92,48c12.29-6.68,24.52-13.5,37.27-19.27l0,0,.59-.27.12-.05.55-.25.16-.07.52-.23.19-.08.49-.22.24-.1.45-.2.32-.14.38-.16c.23-.11.46-.2.7-.3l2.37-1C515.89,8.11,559.55,0,603.36,0h.26A380.61,380.61,0,0,1,731.05,22.49h0l3.9,1.42.19.08c2.09.8,4.25,1.59,6.44,2.38l.11,0,.26.1.1,0,3.25,1.19,1.55.58.85.31,1,.37.83.32c1,.38,1.91.76,2.86,1.16l.13.05.8.34.64.27a.2.2,0,0,1,.08,0l.11,0,.1.05.3.13.39.17.12.06h0l0,0,0,0,1.84.85.48.23.12.06.56.27,1.23.63.88.47.48.26.41.23.37.21.37.21.92.54.07,0,.41.24.24.16.32.2.27.17.17.12c.35.22.7.46,1,.7.79.54,1.55,1.11,2.3,1.7l.54.44.15.12,1.2,1h0l.05,0,.21.2.2.18h0l.57.55L771,42l.08.07v0l.34.36.29.3s0,0,0,.05,0,0,0,0l.06.07,0,.05.16.17.11.13.09.1c.07.09.15.17.22.25.29.34.58.69.86,1l.31.41q.23.28.42.57l.15.2c.17.23.33.47.49.7a.67.67,0,0,0,.09.14l.16.25a.86.86,0,0,1,.1.16.41.41,0,0,1,.07.11v0a2.14,2.14,0,0,1,.13.19l.3.49.1.18h0a29.08,29.08,0,0,1,2.5,5.44c-17-2.58-31.8-11.94-48-17.16-9.51-3.22-19.13-6.13-28.75-9C643.23,10,579.69,8.26,521,24A330.27,330.27,0,0,0,463.37,45.7c-7,3.6-13.9,7.39-20.84,11.1-5.78,2.44-10.84,7.49-17.26,7.86C417.28,64.5,418.06,57.55,422,53.27Z"/><path class="cls-1" d="M763.89,49.81c0,1,.05,2.06.07,3.09L749.8,33.77l-4.46-6,1.56.58.34.13.43.16.11,0,.77.29,1.53.6,1.34.53,1.12.46.79.34.59.25.05,0h0l.25.11h0l.09,0,.65.29.06,0s0,0,0,0l.1,0h0l.16.08.11,0,.32.15,1.25.58.52.25.63.32.4.2,1,.49.83.44.13.07.27.15.12.06.29.17.18.1.19.11.07,0c.1,0,.2.12.31.17l.59.35.32.2.15.09.27.16.3.19c.57.36,1.14.73,1.69,1.11l.11.08.41.29c.57.39,1.12.8,1.66,1.23l.23.18.07.06c.72.57,1.4,1.16,2.07,1.78h0l0,0,.66.63.09.09,0,0c.23.23.47.47.7.72h0c.33.34.65.69.95,1h0c.42.48.84,1,1.23,1.49l.12.16.09.12.07.09.27.37a.7.7,0,0,1,.06.09c.21.29.42.58.62.88a.43.43,0,0,0,0,.07l.08.11v0h0c.2.31.4.63.59.95l.08.13.1.18a29.08,29.08,0,0,1,2.5,5.44A78.55,78.55,0,0,1,763.89,49.81Z"/><path class="cls-1" d="M821.25,130.31l-11.62-15.69c0-.42-.07-.84-.11-1.25a52.56,52.56,0,0,1,3.54-16.52l4.73,6.4c.42.55.83,1.11,1.24,1.67s1,1.3,1.45,2a46.81,46.81,0,0,1,2.27,9.34c.34,3.22.67,6.45,1,9.67.13,1.33.27,2.65.4,4,.06.59.13,1.18.19,1.77l.33,3.29Z"/><path class="cls-1" d="M71,511.3a6.24,6.24,0,0,1-3.29-1.78,9.87,9.87,0,0,1-2.82-5.5,26.3,26.3,0,0,1-.21-4.53c0-1.37,0-2.73-.06-4.11q-.12-8.1-.22-16.2-.21-16.41-.45-32.82-.46-32.5-.89-65t-.89-65q-.45-32.54-.88-65.08-.41-32.34-.89-64.67t-.88-64.65q-.3-22.72-.61-45.46l2.47-1.29,6.53-3.4h0l1.88-1,2.32-1.19.27,19.25q.47,32.1.88,64.22.45,32.29.88,64.59.45,32.72.9,65.41.45,32.3.88,64.58.42,32.52.89,65c.28,21.56.61,43.11.88,64.67q.12,9,.25,18c0,1.37,0,2.73,0,4.11a21.77,21.77,0,0,1-.32,5.58c-.65,2.7-3.09,6.32-6.22,6.32Z"/><path class="cls-1" d="M766.85,503.09c-3.61-1-5.7-5-5.88-8.58-.15-2.78-.14-5.59-.21-8.37q-.21-9.17-.43-18.34-.41-17.81-.83-35.59-.82-35.67-1.67-71.32Q757,325,756.15,289q-.81-35-1.64-70.09-.79-34.5-1.61-69-.78-34.18-1.6-68.36-.63-26-1.22-52l1.66.66.19.08.24.1.37.15.79.34.64.27.3.13.38.17.28.12.14.07,0,0h0l.05,0,1.84.85.46.22.38.19h0l.16.08.13.07.69.34h0l.28.14c.47.25.94.49,1.4.75l.22.12.13.07.19.11.09,0,.09,0,.18.11.1.06.05,0,.25.15.08,0,.14.09c.51.29,1,.59,1.49.9l.63,27.11q.79,34.47,1.61,69c.55,22.62,1,45.25,1.59,67.87q.87,35,1.64,70,.84,35.7,1.67,71.41c.52,23.81,1.14,47.62,1.67,71.43s1.14,47.75,1.67,71.64c.08,3.24.24,6.5.23,9.75a10.61,10.61,0,0,1-2.6,6.86,5.57,5.57,0,0,1-3.95,2.11A3,3,0,0,1,766.85,503.09Z"/><path class="cls-1" d="M407.83,525.62c-17.77-4.39-34.33-12.92-52.18-17.27-17.3-4.88-35.08-7.74-52.79-10.67-46.33-8.61-93.42-14.31-140.58-10.62l.5,0,.4,0c-22.39,1.66-44.74,5.11-66,12.53q-9.49,3.31-18.81,7.08c-5.29,1.63-10.1,5.73-15.83,5.23-3.37-.12-6.4-3.12-5.12-6.61,2.18-8.28,18.15-11,25.31-14.64,36.51-14.48,76-18.28,115-17.85,32-.17,63.67,4.23,95.1,9.72,25.46,4.4,51.19,7.95,75.89,15.81,13.8,5.08,28.76,8.38,41.18,16.44a29.56,29.56,0,0,1,10.29,13.14C416.06,527.19,411.92,526.44,407.83,525.62Z"/><path class="cls-1" d="M423.05,518.1c16.26-9.22,34.33-15,51.8-21.54,92.68-35.13,179.2-25.37,273.56-4.28A41.87,41.87,0,0,1,769,504.87c-13.06,3-26.09.05-38.85-3C605.25,476.4,542.86,480,425.77,530h-.28C418.11,530,417.77,522,423.05,518.1Z"/><path class="cls-1" d="M14.16,597.4a19.52,19.52,0,0,1-1.87-.73h0A20.2,20.2,0,0,1,8,594l0,0L7.85,594a12.63,12.63,0,0,1-5-9.09c0-9.43,8.71-8.62,12.77-2a21.06,21.06,0,0,0,4.66,5,32.69,32.69,0,0,0,11.29,2.9,17.26,17.26,0,0,1-13.72,7.14A13.61,13.61,0,0,1,14.16,597.4Z"/><path class="cls-1" d="M4.66,145.44c-1.79-2.14-1.23-5.46-.37-7.84a10.83,10.83,0,0,1,2.2-3.34l2.22-2.55,9-10.3q8.87-10.16,17.7-20.31,4.26-4.86,8.48-9.73c1.43-1.62,2.84-3.25,4.26-4.88a44.29,44.29,0,0,1,5.33-5.19,51.47,51.47,0,0,1,13.56-8,16.64,16.64,0,0,1,1.66-.63.25.25,0,0,1,.25.06A.23.23,0,0,1,69,73a45.15,45.15,0,0,1-2.42,8.1A50.28,50.28,0,0,1,62.06,90a90.63,90.63,0,0,1-8.45,10.41Q36,120.57,18.49,140.73l-2,2.35a12,12,0,0,1-4.12,3.15,9.16,9.16,0,0,1-3.7.82A5,5,0,0,1,4.66,145.44Z"/><path class="cls-1" d="M811.1,117.61c-1.3-2.73-3.68-4.77-4.84-7.61a133.75,133.75,0,0,0-19.84-31.64c-4.41-5-9.1-9.69-13.76-14.42-3.8-4.59-10.36-8-11.5-14.14-.35-1.82,0-4.39,1.59-5.56,7.83-4.13,13.67,5.09,18.86,9.88l0,0,.08.06,0,0,.07.06,0,0,0,.05.05,0,0,0s0,0,.06.05l0,0,.1.09.4.4c8.23,8.34,16,16.16,22.44,25.78,2.77,4.13,5.55,8.35,8,12.74,0,0,.05.09.07.14a.83.83,0,0,1,.07.13l.35.63h0a73.3,73.3,0,0,1,3.8,8.14h0a50.67,50.67,0,0,1,2.44,8.15h0a13.14,13.14,0,0,1-1.13,9.24c-1,2.52-1.86,5.13-3.61,7.18C813.76,123.93,812,121,811.1,117.61Z"/><path class="cls-1" d="M66.94,87c-5.79.13-6-7.11-3.26-10.77a91.91,91.91,0,0,1,7-7.12l0,0,.25-.24L71,68.8l.47-.43.06-.05.25-.23.09-.08c.15-.14.3-.28.46-.41l.06-.06.25-.23.07,0c3-2.64,6-5.17,9.09-7.67A187.62,187.62,0,0,1,124.19,35C144,26.81,164.46,20,185.53,16c1.71-.29,3.41-.57,5.13-.83,34-5.2,69-4,102.68,2.46l2.26.44,1.15.25C321,23.77,344,30.84,368,36.86c10.61,2.7,21.27,5.21,31.91,7.76l1,.24c5.79,1.08,11.56,2.6,16.65,5.43h0l.22.12.15.09.28.16s0,0,0,0l.05,0,.43.26.23.14,0,0,0,0,.09.06.11.07h0c.3.19.6.39.89.6a.41.41,0,0,1,.11.07l.08.05,0,0h0l0,0s0,0,0,0l.54.38.55.42.41.32.12.09h0a27.23,27.23,0,0,1,2.06,1.83,59,59,0,0,0,5.5,4.29,10.4,10.4,0,0,1-2.33,1c-7.11,1.67-14.4.43-21.48-.66-19-4.46-38-9-56.88-14.14-27.08-6.81-53.63-15.62-81.39-18.48-23.85-2.3-48-2.61-71.8.73a269.53,269.53,0,0,0-88,30.33,156.56,156.56,0,0,0-29,21.81C75.43,83,72.29,87,67.48,87A4.87,4.87,0,0,1,66.94,87Z"/><path class="cls-1" d="M428.15,584.23l-.36-.14-.17-.06-.87-.32-.09,0-.14,0-.31-.11-.22-.09-.18-.06-.14,0-.19-.07-.17-.07-.13,0h0l-.16-.07-.12,0-.1,0-.12-.05h0l-.26-.12-.07,0h0l-.11,0-.12-.06-.07,0a12.47,12.47,0,0,1-1.71-1h0l-.08-.06h0l-.07-.05,0,0-.07,0h0l-.33-.26h0l-.07-.06,0,0-.06,0,0,0-.05,0,0,0-.05-.05,0,0-.05,0,0,0-.05,0-.08-.08-.21-.21-.05-.06h0c-1.66-1.73-3.48-4.58-2.29-7,2.41-4.35,8.52-4.25,12.5-2.35,5.71,2.29,11.75,4.14,17.43,6.63l-1.42.63c-4.67,1.49-10.86,6.21-16.21,6.88C429.93,584.87,429,584.54,428.15,584.23Z"/><path class="cls-2" d="M427.58,467.87q.33-39.84.64-79.67.36-39.12.62-78.25.32-38.88.62-77.75t.62-77.84q.3-38.64.61-77.28.06-6.93.11-13.85c4-1.77,7.71-4.73,11.73-6.43,6.94-3.71,13.84-7.5,20.84-11.1A330.27,330.27,0,0,1,521,24c58.73-15.69,122.27-14,180.45,3.36,9.62,2.88,19.24,5.79,28.75,9,6.92,2.22,13.58,5.21,20.26,8.09q.44,18.57.88,37.13.83,34.19,1.6,68.36.79,34.51,1.61,69,.81,35,1.64,70.09.84,35.94,1.68,71.88.81,35.66,1.67,71.31.42,17.81.83,35.59.23,9.18.43,18.35c.07,2.78.06,5.59.2,8.37a11,11,0,0,0,1.06,4.13,43.42,43.42,0,0,0-13.61-6.36c-94.36-21.09-180.88-30.85-273.56,4.28-16,6-32.5,11.35-47.65,19.29Q427.4,491.85,427.58,467.87Z"/><path class="cls-2" d="M409.86,514.72c-12.42-8.06-27.38-11.36-41.18-16.44-24.7-7.86-50.43-11.41-75.9-15.81-31.43-5.5-63.12-9.89-95.09-9.72-38.94-.43-78.46,3.38-115,17.85a44,44,0,0,1-4.84,2l-.21-15.24c-.27-21.55-.6-43.11-.88-64.66s-.6-43.36-.89-65q-.44-32.28-.88-64.58-.47-32.7-.9-65.41-.44-32.29-.88-64.59-.45-32.12-.88-64.22c0-1.09,0-2.19,0-3.28,2.38-1.46,4.37-3.76,6.41-5.65a156.56,156.56,0,0,1,29-21.81,269.53,269.53,0,0,1,88-30.33c23.76-3.33,47.95-3,71.8-.73,27.75,2.86,54.31,11.67,81.39,18.48,18.86,5.14,37.86,9.68,56.88,14.15a112,112,0,0,0,11.71,1.41Q417.42,70,417.35,79q-.28,38.63-.61,77.24-.33,38.79-.62,77.59-.3,39.06-.62,78.12-.3,39.36-.63,78.7-.31,39.9-.63,79.79-.15,23.91-.37,47.8A32.92,32.92,0,0,0,409.86,514.72Z"/><path class="cls-2" d="M15.58,582.81a11.81,11.81,0,0,0-2.85-3.19,43.84,43.84,0,0,0,.59-7q0-30.11,0-60.2,0-30.37,0-60.73,0-32,0-63.92t0-64.1q0-32.16,0-64.32t.05-64.48q0-15.33,0-30.67,0-7.59,0-15.18v-3.44a12.6,12.6,0,0,0,2.83-2.45c.68-.78,1.36-1.57,2-2.35Q36,120.59,53.6,100.44c1.85-2.11,3.75-4.18,5.5-6.36q.19,13.94.38,27.86.42,32.33.88,64.65t.88,64.67q.4,32.53.89,65.08t.89,65q.45,32.5.89,65,.24,16.41.45,32.82.11,8.1.22,16.2c0,.83,0,1.65,0,2.47-3.57,1.9-6.39,4.25-7.21,7.39-1.28,3.49,1.74,6.49,5.12,6.6a14.33,14.33,0,0,0,6.63-1.19,4.38,4.38,0,0,0,1.8.65l.46,0c2.34,0,4.29-2,5.4-4.17.51-.2,1-.39,1.53-.55,6.22-2.52,12.49-4.86,18.82-7.07,21.14-7.38,43.35-10.83,65.61-12.51l-.5,0c47.16-3.69,94.25,2,140.58,10.62,17.71,2.93,35.49,5.78,52.79,10.66,17.83,4.35,34.37,12.87,52.12,17.26,2,.41,4,.79,6,1.16q-.09,11.18-.18,22.36-.09,9.79-.16,19.6a57.74,57.74,0,0,0-11.84-3.07C308.68,544.91,226.76,533,132.2,555.88c-31.37,7-62.21,16.09-92.89,25.57-4.44,2.11-13,3.42-19.25,6.27A21.61,21.61,0,0,1,15.58,582.81Z"/><path class="cls-2" d="M809.08,576.77C774.88,559,739.22,542.88,702,532.05,636.41,511,565.7,520,501.74,542.79c-17.58,6.26-35.93,13-53.25,20.34-4.13,2.58-11.92,4.61-17.76,7.81a13.21,13.21,0,0,0-4-1q.11-11.1.18-22.18l.15-18.32c116.24-49.46,178.63-52.9,303-27.5,12.76,3,25.8,6,38.85,3-.5-.57-1-1.13-1.55-1.67h.32a5.59,5.59,0,0,0,3.95-2.11,10.67,10.67,0,0,0,2.6-6.86c0-3.25-.16-6.51-.23-9.75-.53-23.89-1.14-47.76-1.67-71.64s-1.15-47.62-1.67-71.43S769.59,293.81,769,270q-.81-35-1.63-70c-.56-22.62-1-45.25-1.59-67.87Q765,97.68,764.2,63.2L764,55.45c2.55,3,6.18,5.51,8.64,8.49,4.66,4.73,9.34,9.46,13.76,14.42A133.59,133.59,0,0,1,806.25,110a27.41,27.41,0,0,0,3.45,5.3C821.48,248,837.79,381.2,826.87,514.67c-1.58,22.88-3.65,46.15-5.57,69.17A74.66,74.66,0,0,0,809.08,576.77Z"/><path class="cls-1" d="M101,124.43c-5-.59-5.72-6-3-9.58,5-5.71,12.64-8.49,19.07-12.27a164.49,164.49,0,0,1,25.36-9.86c63.8-17.48,132.38-15,195.56,3.93,16.5,5.17,36.36,6.51,47.61,21.21-21.39,3.39-41.52-6.87-62-11.28-23.72-6.41-48-10.77-72.59-11.86-38-1.34-77.08,1.35-113.3,13.58A137.12,137.12,0,0,0,115,118.86c-3.91,2.14-7.6,5.75-12.18,5.75A9.29,9.29,0,0,1,101,124.43Z"/><path class="cls-1" d="M370.25,209.25c-10.32-1.31-19.71-6.26-29.57-9.34a386.74,386.74,0,0,0-39.2-12.08c-42.07-10.36-86.56-9.89-128.91-1.32a351.92,351.92,0,0,0-42.92,11.93c-5.32,1.4-10.53,5.35-16.2,3.76-4.32-1-5.58-5.5-2.85-8.91,3.6-4.82,10.31-5.46,15.53-7.73,66.7-23.37,141.28-25.88,208.12-2q15,5.19,29.83,10.62a48.38,48.38,0,0,1,20.77,14.92,52.6,52.6,0,0,1-7.83.57A59,59,0,0,1,370.25,209.25Z"/><path class="cls-1" d="M120.62,305.5c-.87-10.17,12.58-11.81,19.53-15.43a238.43,238.43,0,0,1,28.8-9.38C216.88,268.21,267.44,267.86,316,277c15.4,3.28,31.72,3.84,46.38,9.8a47,47,0,0,1,11.78,7.79,54.34,54.34,0,0,1-22.37,2.21c-28.42-4.77-56.74-11-85.6-12.49a320.8,320.8,0,0,0-93.94,9.28,263.05,263.05,0,0,0-32.69,11.09c-3.57,1.47-8.82,4.62-13.11,4.62A6,6,0,0,1,120.62,305.5Z"/><path class="cls-1" d="M358.27,420.66c-30.26-7.61-60.49-16-91.55-19.77-33.53-3-67.3.57-99.85,8.72-5.38,1.05-10.67,4.64-16.25,3.16-6.68-1.46-4.72-9.21.15-11.81,37.95-13.25,84.2-17.25,124-12.5,29.2,4.23,57.78,11.84,86.3,19.23a42.43,42.43,0,0,1,19.7,13,77.63,77.63,0,0,1-11.72.95A53.94,53.94,0,0,1,358.27,420.66Z"/><path class="cls-1" d="M473.11,121.65c-7.74-.32-7.9-8.16-2.19-12a419.76,419.76,0,0,1,67.23-24.44C582,73.43,628.26,72.78,672.84,80c15.29,3.13,32.5,2.26,45.55,11.88a34.12,34.12,0,0,1,5.32,4.77A70.12,70.12,0,0,1,703,98.22c-15.75-2.32-31.45-5.22-47.27-7.14-33.36-4-67.29-3.39-100.19,3.71a338.94,338.94,0,0,0-46.82,13.75c-8.72,3.2-17.31,6.74-25.83,10.28-2.89,1.1-5.69,2.88-8.84,2.88C473.71,121.7,473.41,121.68,473.11,121.65Z"/><path class="cls-1" d="M492,214.1c-8.09-2.22-2.91-11.85,3.21-12.95a295.9,295.9,0,0,1,60.68-12.5,387.43,387.43,0,0,1,102.75,2.59c15.51,2.85,31.77,3.2,46.67,8.51A45.15,45.15,0,0,1,718,207.7a55.79,55.79,0,0,1-29.22,1.57c-47.28-8.36-95.43-13.23-143.16-6a293.34,293.34,0,0,0-34,6.88c-5.68,1-10.93,4.26-16.56,4.26A13.58,13.58,0,0,1,492,214.1Z"/><path class="cls-1" d="M502,320.23c-28-18.32,81.49-24.22,89.88-24.16,36-1,72,3.27,107.52,9a47.9,47.9,0,0,1,21.9,10.76,53.77,53.77,0,0,1-14.3,2.78c-16.17-.09-32.05-4.6-48.19-5.79-15.93-2-32-3.13-48-3.54a465.06,465.06,0,0,0-68.86,4.18A279,279,0,0,0,509.47,320a12.86,12.86,0,0,1-4.27.76A10.57,10.57,0,0,1,502,320.23Z"/><path class="cls-1" d="M492.83,431.8c-26.06-14.55,73.11-31.81,81.22-32.65,43.42-6.52,87.43-3.14,130.82,1.66a43.92,43.92,0,0,1,21.23,9.87c-7.76,2.63-16.19,4-23.92,3.2-41.85-4.39-84.35-7.91-126.18-1.57a410.62,410.62,0,0,0-48.13,10c-6.26,1.8-12.52,3.65-18.66,5.84-4.41,1.19-8.79,4.11-13.38,4.11A9.84,9.84,0,0,1,492.83,431.8Z"/></g></g></svg>