<svg xmlns="http://www.w3.org/2000/svg" viewBox="0 0 1074.64 1352.72"><defs><style>.cls-1{fill:#1a8dcc;}.cls-2{fill:#8bcbed;}</style></defs><g id="Layer_2" data-name="Layer 2"><g id="Layer_1-2" data-name="Layer 1"><path class="cls-1" d="M838.48,286.69a53.92,53.92,0,0,0-7.08-2.5,22,22,0,0,0-2.27-.53v-14.9l13.31,4.7v15.07C841.13,287.9,839.81,287.29,838.48,286.69Z"/><path class="cls-1" d="M841.42,299l.5.27.33.21Z"/><path class="cls-1" d="M835.58,1351.55l-6.48-3.87v-7.31q0-37.83,0-75.66V959.86q0-75.84,0-151.68V444a3.17,3.17,0,0,0,2.69,1.68,2.31,2.31,0,0,0,.37,0,3.39,3.39,0,0,0,.79-.2h0l0,0,.09,0,.11,0-.08,0a4,4,0,0,0,1-.33l.55-.1a16.83,16.83,0,0,0,2.3-.42c.92-.21,1.82-.45,2.73-.68h0l.2,0,.42,0a3.35,3.35,0,0,0,1.73-.51,2.26,2.26,0,0,0,.37-.26v33.21q0,76.67,0,153.31,0,76.29,0,152.57V933.65q0,75.74,0,151.49V1350l-2.72,1.49-2.16,1.19Z"/><path class="cls-1" d="M1074.58,293.66l-.06-.11.12.23Z"/><path class="cls-1" d="M1071.86,328.75l.12.23Z"/><path class="cls-1" d="M1041.32,1180.4q1.61-69.63,3.2-139.26,1.55-67.49,3.1-135,1.55-67.21,3.08-134.42,1.6-66,3-132,1.55-66.24,3-132.47,1.53-67.26,3.09-134.52c0-1,.05-2.08.07-3.13l.11.17c.42.68.84,1.36,1.27,2,.19.3.37.6.56.89a14.55,14.55,0,0,0,.9,1.45c2.53,4.11,4.92,8.3,7.26,12.52.91,1.63,1.81,3.26,2.72,4.88q-1.38,59.4-2.73,118.8-1.47,66.2-3,132.41-1.52,65.88-3,131.75-1.55,67.58-3.1,135.14-1.58,67.83-3.12,135.68-1.58,68.88-3.16,137.77-.58,25.38-1.16,50.76-6.75,3.7-13.49,7.42Q1040.65,1210.86,1041.32,1180.4Z"/><path class="cls-1" d="M1053.77,1218.5c-.13,5.13-.24,10.26-.36,15.39h0c-14.45,7.93-28.86,15.93-43.3,23.87q-28.61,15.72-57.19,31.46-27.81,15.27-55.59,30.59-28.83,15.83-57.63,31.71l-2.16,1.19-1.95-1.17-6.48-3.87-4.79-2.88q15.42-8.47,30.85-17l56.64-31.16q28-15.39,55.93-30.78,28.37-15.59,56.71-31.2Q1039.09,1226.57,1053.77,1218.5Z"/><path class="cls-1" d="M833.7,454.14c.6,4.71-3.22,9.9-8.2,6.84-30.43-43.09-67.86-67.68-116.27-88.27-30.7-14.26-61.58-28.19-93.94-38.32-47-15.8-95.42-27.09-140.59-47.9C393.43,253,313.35,216.85,231.17,185.65c-28.83-11.39-57.56-23.05-86.85-33.26-32.78-11.29-66.88-23.82-101.94-23.21-7.07,1.29-15.55,1.52-20.44,7.44-7.76,12-8.57,27.76-11.23,41.25.59,6.06-4.14,9.27-8.2,8.77Q1.25,173.82,0,161c5-28.57,12.84-47,52.58-45.32,57.21,5.75,110.55,29.49,163.73,49.84,98.07,37.24,193.73,80.27,290.79,120,46.06,18.06,94.7,28.44,140.9,46.17,48,20.2,97.93,39,140,70.34C805.51,416.51,825.32,432.44,833.7,454.14Z"/><path class="cls-1" d="M85.85,903.1l-14.2-8.5-.39-3.92L65,826.79q-6.34-65-12.68-129.9-6.15-64.07-12.52-128.12T27.34,440.91Q21.16,377.66,15,314.41,8.77,251,2.6,187.57,1.3,174.27,0,161c2.17-12.31,4.86-22.75,10.4-30.5.36,3.71.73,7.43,1.08,11.14q6.19,63.6,12.43,127.19,6.18,63.36,12.37,126.72,6.18,63.08,12.32,126.16Q54.78,585.34,61,649q6.29,64.54,12.6,129.09Q79.81,840.58,85.85,903.1Z"/><path class="cls-1" d="M851.07,1345.27l-8.65,4.77-2.72,1.49-2.16,1.19-1.95-1.17q-56.62-33.94-113.3-67.77l-110.57-66.13q-56.34-33.69-112.66-67.39-55.9-33.48-111.84-66.89-57.5-34.33-114.94-68.75Q215.7,980.8,159.12,946.93q-43.74-26.14-87.47-52.33l-.39-3.92q-.62-6.27-1.22-12.56l8.38,5q56,33.51,112,67,56.91,34.07,113.84,68.1l114.2,68.3q56.21,33.63,112.41,67.23T643.25,1221q55.51,33.24,111.06,66.43Q802.7,1316.3,851.07,1345.27Z"/><path class="cls-1" d="M72.65,118.39l-7.59,2.69q-12.81,4.56-25.63,9.09l-13.16,4.67L23.06,136a11.27,11.27,0,0,1-3.83.66,10.93,10.93,0,0,1-1.27-.07c-2.52-.26-5.64-1.75-6.09-4.51a6.27,6.27,0,0,1,.87-3.78,10.13,10.13,0,0,1,3.82-3.92,20.86,20.86,0,0,1,3.59-1.48l4.33-1.54,15-5.32.52-.18a97.05,97.05,0,0,1,12.58-.2Q62.69,116.66,72.65,118.39Z"/><path class="cls-1" d="M242.42,58.17l-6.54,2.32L228.76,63a4.29,4.29,0,0,1,.42-2.38c1.53-2.61,4.68-3.58,7.55-3.65A32.68,32.68,0,0,1,242.42,58.17Z"/><path class="cls-1" d="M374.62,99.73a120.1,120.1,0,0,0-1.77,13.4c-32.94-10.53-66-20.79-99-31.13-13.94-5.39-29.71-7.37-42.7-14.5-1.75-1.83-3.24-4.41-2-6.86,1.53-2.61,4.68-3.58,7.55-3.65,5.4.58,10.51,2.95,15.75,4.34C293.18,74.14,334,86.73,374.62,99.73Z"/><path class="cls-1" d="M583.84,173.62c.53,4.67.87,9.71,1.19,14.8-19.43-7.68-38.92-15.23-58.51-22.51-42.75-16.13-86-30.85-129.41-45,1-4,2.25-7.87,3.21-11.52.15-.43.3-.85.45-1.29,42.63,13.86,85.07,28.3,127.07,44Q556,162.58,583.84,173.62Z"/><path class="cls-1" d="M1053.8,387.4c.67-36.94-237.28-105.21-279.87-124.44-52.28-19.23-103.79-40.44-155.47-61.21a83.12,83.12,0,0,0-.71-14.64C669.91,208,721.87,229.49,774.59,249c65.11,24.45,131.46,45.53,196,71.48,30.46,13.49,65.64,23.22,88.77,48.31l.66,1.05c.42.68.84,1.36,1.27,2,.19.3.37.6.56.89a12.44,12.44,0,0,0,.9,1.44q1.15,1.89,2.29,3.8a28.29,28.29,0,0,1,2,7.79c.51,4.64-3.18,7.29-6.81,7.29A6.22,6.22,0,0,1,1053.8,387.4Z"/><path class="cls-1" d="M600.85,232.71c19.52-7.8,19.36-34.07,15.92-51.63A458.56,458.56,0,0,0,599,119.71c-11.31-28-28.66-54.66-53.09-72.85C517.29,30.1,473.61,13.32,440.39,13.19c-12,.77-24.27,4.8-34,12C395.35,35.45,390,50.28,384.34,63.88c-5,16.4-10.45,32.91-11.56,50.14-.66,9.47.06,40.24,15.09,35.49,3.84-1.33,8.15-2.95,8.84-7.47-3.91-10.28.9-22.39,3.62-32.61,4.45-13,10.21-29.24,25.36-32.36,12.23-2.23,24.65,2.23,36.4,5.28,25,7.32,49.29,17,71.66,30.48,17.94,9.75,35.86,21.44,44.41,40.78C590.49,170.2,578.51,232.42,600.85,232.71Zm-3,13.28c-18-2-24-23.26-24.55-38.73-2.11-19.57.09-40.95-12.73-57.38-13.61-19.21-62.11-41.62-85-49.22-13.76-4.49-27.58-9.4-42.06-10.92-16.09-1.82-20.29,24.31-23.77,36-.67,4.67-2,9.79,0,14.21,1.94,11.85-9.11,20.42-19.58,22.8-13.61,4.61-24.58-7.84-27.79-20-6-20.19-2.48-42,3.09-61.85,6.66-23.44,15.26-52.1,34.83-67.89C422.45-2.39,450.9-2.64,476.13,4.6c25.89,6.86,51.54,16.12,74.71,29.6,30.11,20.67,50.58,53.37,63,87.22,9.54,32.55,26.27,70.16,13,103.57C621.07,235.62,611.08,247.19,597.84,246Z"/><path class="cls-1" d="M843,456.21c-2.91-.11-7.08-1.76-7.31-5.14-.22-3,2.35-5.74,4.83-7.12a3.5,3.5,0,0,0,1.53-.5,3,3,0,0,0,.45-.35c.77-.24,1.56-.43,2.33-.65l3.92-1.08c5-1.37,10.06-2.78,15.1-4.17q15-4.14,30-8.31,29.16-8,58.31-16.11,28.63-7.89,57.26-15.82,22.07-6.12,44.14-12.2l3.51-1h.09l.12,0,.06,0h0l.06,0,.18,0,.29-.06.31-.06h0a6.59,6.59,0,0,1,7.62,4.46,6.74,6.74,0,0,1-3.79,8.21,4.1,4.1,0,0,1-.59.2h-.11c-11.31,3.23-22.68,6.27-34,9.4L970,421.68q-29.12,8-58.23,16.1c-19.81,5.49-39.63,10.92-59.43,16.42l-3.91,1.08a18.81,18.81,0,0,1-5.07.93Z"/><path class="cls-2" d="M829.12,461.84V808.18q0,75.84,0,151.68v304.85q0,33.7,0,67.41-37.38-22.38-74.79-44.71-55.56-33.17-111.06-66.43-56.16-33.62-112.34-67.2T418.5,1086.55l-114.2-68.31q-56.92-34-113.84-68.09-53.1-31.78-106.21-63.53Q79,832.35,73.64,778.09,67.29,713.53,61,649,54.83,585.32,48.6,521.66,42.48,458.57,36.28,395.5q-6.21-63.36-12.37-126.72-5.23-53.52-10.46-107c1.56-8.85,3.7-17.68,8.49-25.11l.35-.4.77-.24,3.21-1.14,13.16-4.67,2.68-.94.27,0c35.06-.61,69.16,11.92,101.94,23.21,29.29,10.21,58,21.87,86.85,33.26C313.35,216.85,393.43,253,474.7,286.49c45.17,20.81,93.63,32.1,140.59,47.9,32.36,10.13,63.24,24.06,93.94,38.32C757.64,393.3,795.07,417.89,825.5,461A5.25,5.25,0,0,0,829.12,461.84Z"/><path class="cls-2" d="M1059.3,397q-1.29,55.13-2.53,110.27-1.5,66.23-3,132.47-1.51,66-3,132-1.62,67.22-3.08,134.42-1.56,67.47-3.1,135-1.59,69.61-3.2,139.26-.52,22.75-1,45.53-7.93,4.38-15.84,8.76-28.32,15.66-56.71,31.2-28,15.38-55.93,30.78l-56.64,31.16-12.75,7V1085.14q0-75.75,0-151.49V782.27q0-76.29,0-152.57,0-76.65,0-153.31V456.16c.2,0,.39,0,.58,0h.34a18.81,18.81,0,0,0,5.07-.93c1.3-.35,2.61-.71,3.91-1.08Q882,446,911.77,437.78q29.1-8.07,58.23-16.1l57.4-15.86C1038,402.89,1048.69,400,1059.3,397Z"/><path class="cls-2" d="M618.54,198.46c0,.36,0,.7,0,1s0,.41,0,.61l-.06,1.63c-.59,13.14-5,25.91-17.61,31-13.43-.18-14.46-22.73-15.82-44.29-.13-2-.26-4-.4-6l-.09-1.3a2.45,2.45,0,0,1,0-.27c0-.31,0-.62-.08-.92l-.12-1.5c0-.27-.05-.54-.07-.8s0-.54-.08-.8c-.1-1.09-.21-2.16-.33-3.22-1-8.47-2.51-15.75-5.68-20-8.55-19.34-26.46-31-44.41-40.78-22.37-13.48-46.64-23.16-71.66-30.48-11.75-3-24.17-7.51-36.4-5.28-14.65,3-20.53,18.3-24.92,31.07-.15.44-.3.86-.45,1.29s-.24.92-.37,1.38a0,0,0,0,1,0,0c-.1.38-.21.76-.32,1.14-.57,2-1.19,4.09-1.78,6.2-.11.43-.23.85-.34,1.28s-.25.92-.37,1.38c0,0,0,.07,0,.11-1.82,7.12-2.91,14.48-.4,21.09-.69,4.52-5,6.14-8.84,7.47-15,4.75-15.75-26-15.09-35.49,0-.29,0-.59.07-.89,0-.56.08-1.13.13-1.69s.09-1,.15-1.48l0-.37c0-.36.08-.72.13-1.09,0-.21,0-.43.07-.64l.12-1c.1-.75.2-1.49.31-2.23.06-.42.13-.84.2-1.25s.09-.63.15-.94.14-.84.21-1.25l.27-1.5c2.28-12.16,6.1-24,9.72-35.85,5.66-13.6,11-28.43,22.07-38.72,9.71-7.17,22-11.2,34-12,33.21.13,76.89,16.91,105.5,33.67,24.42,18.19,41.78,44.86,53.08,72.85a457.12,457.12,0,0,1,17.79,61.37c.37,1.92.71,3.94,1,6l.18,1.38.15,1.39c0,.47.09.94.13,1.41s.08,1,.11,1.42.08,1.1.11,1.65c0,.35,0,.7,0,1.06,0,.14,0,.29,0,.43,0,.4,0,.79,0,1.18S618.54,198,618.54,198.46Z"/><path class="cls-1" d="M22,125.92a6.71,6.71,0,0,1,4.3-8.38c2.44-.76,4.9-1.47,7.34-2.2l21-6.3q28.51-8.52,57-17.11Q141.32,83,171,74.11c10.05-3,20.1-6,30.15-9l14.65-4.4,6.82-2a17.78,17.78,0,0,1,4.37-.95,10.27,10.27,0,0,1,5.1,1.13A5.48,5.48,0,0,1,235,62.24a5.7,5.7,0,0,1-.73,3.67,10.32,10.32,0,0,1-3.49,3.73,13.61,13.61,0,0,1-4.13,1.66c-1.22.38-2.45.74-3.67,1.11L208.6,76.74,179,85.61q-30.08,9-60.17,18.06Q90,112.28,61.25,121l-22,6.59-.08,0-.24.08H38.9l-.21.06-.26.08h0l-.3.09-6.73,2-1,.31A6.77,6.77,0,0,1,22,125.92Z"/><path class="cls-2" d="M1053.47,384.8l-44,12.16q-28.63,7.92-57.26,15.82-29.16,8-58.31,16.11-15,4.16-30,8.31l-15.1,4.17-3.91,1.08c-.78.22-1.57.41-2.34.65a.53.53,0,0,1-.14.12l-.12.1a1.22,1.22,0,0,1-.19.12,3.27,3.27,0,0,1-.65.32l-.19.06-.2.05a2,2,0,0,1-.35.06h-.34a3.11,3.11,0,0,1-.43,0l-.19,0h0c-.91.22-1.81.46-2.72.67a17.14,17.14,0,0,1-2.32.42l-.53.1a4.4,4.4,0,0,1-1,.32h-.07l-.09,0,0,0h0a3.27,3.27,0,0,1-.79.2l-.37,0a3.17,3.17,0,0,1-2.69-1.68v.63c-9.78-17-26.28-30.31-41.15-42.65-42-31.32-92-50.14-140-70.34-46.2-17.73-94.84-28.11-140.9-46.17-97.06-39.7-192.72-82.73-290.79-120-47.48-18.17-95.09-39-145.47-47.4q24-7.22,48-14.41Q149,94.67,179,85.61l29.57-8.88L223,72.41c1.22-.37,2.45-.73,3.67-1.11a13.61,13.61,0,0,0,4.13-1.66,15.64,15.64,0,0,0,1.74-1.42C245.29,74.77,260.45,76.8,273.9,82c28.63,9,57.29,17.89,85.89,27-1.17,11.37-.73,22.83,2.53,33.82,3.22,12.11,14.18,24.56,27.79,20,10.47-2.38,21.52-11,19.58-22.8-2-4.42-.67-9.54,0-14.21.05-.2.12-.4.18-.61C449,138,488,151.36,526.52,165.91q22.61,8.4,45.05,17.21c.72,8,.86,16.24,1.72,24.14.53,15.47,6.54,36.76,24.55,38.73,13.24,1.2,23.23-10.37,29-21a69,69,0,0,0,4.44-18.09C678.65,226,726,245.32,773.93,263c9.81,4.43,30,11.45,55.2,20.1v.6c.77.14,1.52.32,2.27.53a53.92,53.92,0,0,1,7.08,2.5c1.33.6,2.65,1.2,4,1.84v-.91C924.77,315.8,1046.34,357.68,1053.47,384.8Z"/></g></g></svg>