<svg xmlns="http://www.w3.org/2000/svg" viewBox="0 0 817.3 770.39"><defs><style>.cls-1{fill:#1a8dcc;}.cls-2{fill:#8bcbed;}</style></defs><g id="Layer_2" data-name="Layer 2"><g id="Layer_1-2" data-name="Layer 1"><path class="cls-1" d="M682.4,595.58a102.32,102.32,0,0,0,11.18-1.3,100.15,100.15,0,0,0,11-2.74,103.45,103.45,0,0,0,10.89-4.23,107.52,107.52,0,0,0,10.9-6,121.09,121.09,0,0,0,11.07-8.05l.39-.33a139.36,139.36,0,0,0,11.71-11.22,159.63,159.63,0,0,0,12.06-15.13A190.32,190.32,0,0,0,773.46,527c.1-.19.2-.38.29-.57l.06-.11a238.74,238.74,0,0,0,12-27.87A298.55,298.55,0,0,0,795.94,462l.09-.43.05-.21a382.92,382.92,0,0,0,6.66-47.44,462.22,462.22,0,0,0,.62-57.59,518.87,518.87,0,0,0-7.6-64.85A546.09,546.09,0,0,0,780.44,229c-.32-1.05-.65-2.09-1-3.13a509.49,509.49,0,0,0-22.73-58.69,436.86,436.86,0,0,0-26.52-48.83A360.08,360.08,0,0,0,704,82.18a279,279,0,0,0-24-25.35l-.76-.71a228.69,228.69,0,0,0-21.49-17.3A183.74,183.74,0,0,0,638.27,27a146.16,146.16,0,0,0-16.76-7.26,133.52,133.52,0,0,0-14.93-4.23,115.46,115.46,0,0,0-13.08-1.91q-.32,0-.63-.06l-.14,0-1.35-.06c-1.21-.07-2.42-.11-3.62-.14-2.29-.06-4.59,0-6.89.1a88.91,88.91,0,0,0-22.34,4.08,102.85,102.85,0,0,0-10.74,4.18,111.73,111.73,0,0,0-10.7,5.82,119.77,119.77,0,0,0-11.31,8.21A137.87,137.87,0,0,0,514,47,156.57,156.57,0,0,0,501.5,62.63,193.71,193.71,0,0,0,489.35,83a239.27,239.27,0,0,0-11.84,27.67,302.86,302.86,0,0,0-10.17,36.41l-.07.33,0,.13a381.25,381.25,0,0,0-6.64,46.81c0,.12,0,.24,0,.37v.06a465.27,465.27,0,0,0-.64,57.73A519.87,519.87,0,0,0,467.62,318a550.05,550.05,0,0,0,16.23,65.26,509.32,509.32,0,0,0,22.51,58.21l.05.1c.06.13.13.26.19.4.18.37.36.75.52,1.14l1,2.17c1.07,2.26,2.17,4.51,3.27,6.76q3.24,6.53,6.67,12.94l.33.61q4.92,9.15,10.27,18.05c1.29,2.14,2.6,4.26,3.94,6.38a354.51,354.51,0,0,0,26.67,36.86,283.81,283.81,0,0,0,24.53,25.84,222.32,222.32,0,0,0,21.56,17.41,180.24,180.24,0,0,0,19.47,11.82,149.44,149.44,0,0,0,16.73,7.28,127.86,127.86,0,0,0,15.13,4.3,112.81,112.81,0,0,0,13.43,1.93A104.53,104.53,0,0,0,682.4,595.58ZM648,605.11a146.8,146.8,0,0,1-31-12.3c-18.66-9.78-35.35-23.19-50.23-38a313,313,0,0,1-36.17-43.72q-9.71-14.06-18.22-28.9-2.2-3.86-4.33-7.75c-.38-.64-.72-1.31-1.07-2q-1.16-2.13-2.28-4.27l-.11-.22q-4-7.67-7.75-15.49c-.58-1.22-1.16-2.45-1.73-3.68l-.11-.23a4.08,4.08,0,0,1-.19-.42c0-.05-.05-.1-.08-.16l-.05-.12c-.72-1.52-1.42-3.05-2.12-4.59q-1.87-4.17-3.69-8.36a518.14,518.14,0,0,1-23.1-65.75,543.32,543.32,0,0,1-14.28-67.25,513.66,513.66,0,0,1-5.45-67,417.82,417.82,0,0,1,4.55-70c3.41-22.27,8.73-44.31,16.85-65.36,8.2-21.29,19.3-41.8,34.43-59A131.14,131.14,0,0,1,527.37,18a107.55,107.55,0,0,1,30.36-14.1A103.25,103.25,0,0,1,590.91.13a32.72,32.72,0,0,1,3.94.26l.85.07c1.37.12,2.73.27,4.1.44,2.44.31,4.88.71,7.3,1.17C629.59,6.35,650.26,17,668.7,30.29a219.8,219.8,0,0,1,19.37,15.89,307.35,307.35,0,0,1,42.79,49.16A412,412,0,0,1,764,151.51,498.6,498.6,0,0,1,789.27,213a548.33,548.33,0,0,1,17,62.72,526.48,526.48,0,0,1,9.45,65.54,478.58,478.58,0,0,1,.86,65.48,378.3,378.3,0,0,1-9.31,65.63A267.58,267.58,0,0,1,785.84,532a189.6,189.6,0,0,1-17,27.44,145,145,0,0,1-22.65,24,113.43,113.43,0,0,1-29.85,18.09A102.61,102.61,0,0,1,684,608.81c-2.13.13-4.25.19-6.38.19A117,117,0,0,1,648,605.11Z"/><path class="cls-1" d="M632,367.68q.79,0,1.59-.15c.52-.1,1-.22,1.54-.36s1-.36,1.55-.57,1.08-.54,1.6-.84,1.13-.76,1.67-1.18c.73-.61,1.43-1.26,2.1-1.93.77-.85,1.5-1.72,2.18-2.64a42.46,42.46,0,0,0,2.38-3.8,54,54,0,0,0,2.54-5.66,73.29,73.29,0,0,0,2.38-8,94.72,94.72,0,0,0,1.71-10.6,119.53,119.53,0,0,0,.42-14.54,128.52,128.52,0,0,0-5.27-32,126.89,126.89,0,0,0-5.08-13.9A104.51,104.51,0,0,0,638,261.11a85.83,85.83,0,0,0-5.6-8.06,64.1,64.1,0,0,0-4.5-5,48.47,48.47,0,0,0-4.06-3.38c-1.06-.74-2.15-1.43-3.27-2.06-.86-.44-1.73-.84-2.62-1.2-.73-.25-1.46-.48-2.21-.67s-1.27-.24-1.92-.32-1.16-.06-1.74-.05-1.13.08-1.7.16-1,.2-1.44.33-1,.35-1.51.56-1.08.53-1.6.83-1.17.78-1.73,1.21a26.18,26.18,0,0,0-2,1.82c-.81.89-1.58,1.82-2.3,2.78q-1.28,1.85-2.37,3.79a53.06,53.06,0,0,0-2.59,5.76c-.33.89-.63,1.79-.91,2.69-.19.73-.42,1.46-.63,2.19-.29,1-.54,2-.78,3.05a102,102,0,0,0-1.74,10.87,127,127,0,0,0-.41,13.93,129.15,129.15,0,0,0,5.29,32.33,128,128,0,0,0,5.16,14.07,107,107,0,0,0,5.45,10.53,85.89,85.89,0,0,0,5.21,7.51A65.17,65.17,0,0,0,616.2,360a51.23,51.23,0,0,0,4,3.35c1,.71,2.07,1.38,3.14,2,.91.46,1.83.89,2.77,1.27.7.24,1.4.45,2.11.64s1.36.25,2,.34S631.42,367.69,632,367.68Zm-10.59,11.41A44.57,44.57,0,0,1,607,369.62c-13-12.55-20.53-29.83-25.2-47a139.48,139.48,0,0,1-4.53-27.45,112.21,112.21,0,0,1,1.68-29.89c.11-.53.23-1.07.35-1.6a5.4,5.4,0,0,1,.09-.58h0l.39-1.66q.68-2.77,1.54-5.5l0-.1A60.16,60.16,0,0,1,585,247c3.63-7.11,8.9-13.88,16.28-17.34a27.12,27.12,0,0,1,19.84-1.17c9,2.87,16.35,9.6,22.14,16.88,8.4,10.56,14,23.23,17.82,36,0,.08.05.15.07.22l.08.28a137.69,137.69,0,0,1,5.24,51.92A88,88,0,0,1,663,351.26c-2.55,8.24-6.56,16.34-13,22.25a27.94,27.94,0,0,1-13.43,7,25.33,25.33,0,0,1-4.89.48A29.93,29.93,0,0,1,621.41,379.09Z"/><path class="cls-1" d="M487.78,420.85a6.72,6.72,0,0,1,1.5-9.3c5.65-4.06,11.1-8.46,17.32-11.64a297.28,297.28,0,0,1,92.66-27.17c6.39-.21,13.28-3,19.41-.53,8.44,4.09,2,12-5,12.32a297.8,297.8,0,0,0-95,24.3,106.15,106.15,0,0,0-9.55,4.91C502.68,416.8,494.69,428.85,487.78,420.85Z"/><path class="cls-1" d="M466.64,270c-3.17-.39-6.71-.16-9-2.61-4-3.94-.76-11.62,4.95-11.24,9.93,1.3,20,.43,30-.31A576,576,0,0,0,569,239.38c4.78-1.51,9.47-3.24,14.16-5,4.42-1.44,8.73-4.56,13.56-3.11,7,1.61,4,9.9-.84,12.27-25.88,11.28-53.09,16.72-80.56,21.94A198.87,198.87,0,0,1,466.64,270Z"/><path class="cls-1" d="M531.23,514.61c-31.12-12.12-62.11-25.18-94.83-32.41-38.74-7.34-80-10.55-118.46-.24-7.45,3.94-19.79.72-11.7-8.93,31.92-16.44,95.65-11.25,130.77-4.3,34.37,7.28,66.9,20.93,99.53,33.65C544.44,505.88,539.29,518,531.23,514.61Z"/><path class="cls-1" d="M103,505.55c-23.13-4-47.14-9.6-64.34-26.71-17.09-15-30.27-27.71-35.48-50.77-7.41-29.27-2.06-62.82,17.17-86.54,11.09-13.64,27.4-21,43.78-26.21q70-22.41,140.92-42.2c21.21-5.56,42.77-9.74,63.69-16.38,55.25-17.52,106.09-50,145.87-92.08a363,363,0,0,0,45.59-61.6c2.47-2.82,6.91-5.4,10.21-2.62a7.05,7.05,0,0,1,1.81,4.44c.41,5.57-4,9.91-6.39,14.57a369.47,369.47,0,0,1-41.58,54.37c-38.25,40.75-88.74,73.85-141.48,92.29-28.89,10.28-59.24,15.36-88.67,23.76-41.49,12.27-83.1,24.26-124.27,37.57-13.51,4.39-27.22,9.59-37.16,20.18C17.93,364,12.39,386.74,13.5,408.39c1.67,24.63,10.4,40.35,29.06,56,8.52,8.22,18,15.74,29.19,19.95,16.11,4.86,32.85,9.64,49.83,8.24,6.26.59,16.48-5,19,3.69.83,3.39-1.32,7.37-4.89,8.05A120.3,120.3,0,0,1,103,505.55Z"/><path class="cls-1" d="M137.21,504.09c-2.36-.54-5.89-2.87-5.66-5.72s2.45-4.92,4.81-6.13,5.21-1.25,7.81-1.58l14.26-1.76,27.69-3.43q27.69-3.41,55.38-6.85,25.89-3.22,51.77-6.41c7.73-1,15.46-1.89,23.19-2.87l1-.12h.07l1.24-.15.75-.1c3.59-.51,6.93,2.49,7.28,6a6.69,6.69,0,0,1-1.52,4.91,6.85,6.85,0,0,1-4.47,2.36c-.66.1-1.33.18-2,.25h0l-.17,0c-7.06.95-14.15,1.75-21.21,2.63l-48.05,5.94-54.92,6.8-28,3.47-14.24,1.76-7,.86-3,.38c-.46.05-.91.13-1.37.15h-.44A13.92,13.92,0,0,1,137.21,504.09Z"/><path class="cls-1" d="M325.49,480.11l-.54.12a6.92,6.92,0,0,1-4.13,2c-.66.1-1.33.18-2,.25l-.17,0-2.91.38a15.36,15.36,0,0,1-5.54.7l-5.72.69c-14.46-7.59-28.4-16.06-39.86-27.68-13.7-15.47-22.2-34.77-29.62-53.85-14.9-38.85-15.6-83.19.85-121.68q4.1-8.83,8.58-17.53c5.89-1.47,11.76-3,17.59-4.73Q255.17,271.4,249,284.33c-23.13,51.42-10.46,110.78,19.93,156.4,11.46,16.54,30.37,25,47.38,34.64C319.31,477,322.4,478.57,325.49,480.11Z"/><path class="cls-1" d="M123.29,505.83a116.19,116.19,0,0,1-17.7,0c-26-30.36-48.49-65-54-104.82-3.31-31.11,7.32-62.16,22.71-88.87q9.27-2.94,18.54-5.83Q86.1,318.18,79.63,330.2c-13.74,27.54-20.75,60.37-10.2,90.14,6.37,20.41,17.53,38.72,29.88,56C106.73,486.64,115,496.24,123.29,505.83Z"/><path class="cls-1" d="M253.56,765.56c-.16-.41-.31-.83-.39-1a1.8,1.8,0,0,0-.08-.21l0-.12c-.12-.3-.23-.61-.34-.91q-9.65-25.69-19.2-51.43L213.8,659l-19.47-52.18Q184.69,581,175,555.11l-9.79-26.25q-2.61-7-5.21-14c-1-2.72-2.3-5.43-2.56-8.33a9.27,9.27,0,0,1,1-4.93,5,5,0,0,1,2.91-2.75c3.74-.81,7.31,2.25,8.84,5.42.6,1.27,1,2.66,1.51,4l1.36,3.66,5.31,14.22,10,26.69,19.32,51.77q9.72,26.08,19.47,52.18L247,710l18,48.14,0,.08.11.3c.08.19.15.37.22.56s0,.08,0,.12l.14.36c.05.16.11.31.17.47s.11.31.17.46v0a3.42,3.42,0,0,1,.13.34l-.19-.51,0-.06a6.84,6.84,0,0,1,.09,4.9,6.68,6.68,0,0,1-3.48,3.72,6.74,6.74,0,0,1-8.82-3.31Z"/><path class="cls-1" d="M264.1,764.3a5.15,5.15,0,0,1-4.58-7.46c1.74-5,7.18-6.92,11.05-10,5.91-4.38,11.23-9.54,16.71-14.42q6-5.32,12.05-10.5c6.74-5.46,15.14,4.63,8.5,10.27C297.5,739.6,275.61,764.93,264.1,764.3Z"/><path class="cls-1" d="M303.88,770.39l-1.89-.06-3.28-.1c-4.15-.14-8.32-.2-12.47-.43-4.47-.26-8.94-.71-13.39-1.08l-3.38-.28a11.92,11.92,0,0,1-5.15-1.62c-2-1.15-4.12-3.64-3.71-6.12s2.74-3.94,4.75-4.82c2.38-1,4.87-.74,7.37-.54,4.32.34,8.63.7,12.95,1,3.92.32,7.87.35,11.79.47l6.82.21.07,0a12.76,12.76,0,0,1,3.25-.59l1.8,0,1.59,0c.66-.69,1.3-1.42,1.95-2.1l8.63-9q4.64-4.81,9.24-9.64c1.43-1.48,2.82-3,4.35-4.34s2.82-2.47,4.23-3.7q6.51-5.65,13-11.32l3.89-3.38,2.31-2a15.81,15.81,0,0,1,2.53-1.93,6.81,6.81,0,0,1,6.87.27,10.66,10.66,0,0,1,2.56,2.63,6.7,6.7,0,0,1-1.56,9.29,6.46,6.46,0,0,1-3.32,1.2l-6.11,5.36-13.92,12.12c-3.09,2.69-5.86,5.68-8.68,8.64q-4.65,4.83-9.29,9.68l-6.73,7-1.52,1.59a10,10,0,0,1-2.47,2,8.51,8.51,0,0,1-3.86.93l-3.45.07c-.45,0-.9,0-1.34,0l-.79.23a12.49,12.49,0,0,1-3.2.41Z"/><path class="cls-1" d="M303.14,727.11c-1.69-1.09-3.48-3-3.18-5.17l0-.18a5.48,5.48,0,0,1,.35-1.13,7.62,7.62,0,0,1,1-1.58,10.22,10.22,0,0,1,4.28-3,15.11,15.11,0,0,1,4.68-.73l3.59-.22,15.45-1c6.6-.4,13.2-.82,19.79-1.21l11.14-.69a6.67,6.67,0,1,1,1.27,13.27c-7.45.48-14.91.91-22.36,1.37l-19.39,1.19-9.65.6-1,0A10.74,10.74,0,0,1,303.14,727.11Z"/><path class="cls-1" d="M301.35,717.34a18.44,18.44,0,0,1-2.25-4.87l-1.32-3.73-5-14.23q-5-14.19-10-28.4-9.93-28.12-19.83-56.26-9.44-26.75-18.87-53.51-8.91-25.3-17.84-50.61l-2.42-6.87c-1.22-3.42,1.2-7.29,4.53-8.26a6.65,6.65,0,0,1,5,.53,6.93,6.93,0,0,1,3.24,4c3.55,10,7,19.94,10.55,29.91q9.27,26.28,18.53,52.58l19.42,55.08Q295,660.92,305,689.13c1.84,5.19,3.66,10.39,5.5,15.59l1.2,3.4a17.88,17.88,0,0,1,1.28,5.29c.14,2.83-1.28,7.05-4.49,7.61a5.4,5.4,0,0,1-.8.07C305.2,721.09,302.72,719.22,301.35,717.34Z"/><path class="cls-1" d="M360.54,709.25a19.18,19.18,0,0,1-1.81-4.21c-.47-1.26-.94-2.53-1.4-3.79q-2.4-6.46-4.81-12.92-5-13.53-10-27.05-9.72-26.21-19.46-52.41-9.45-25.49-18.92-51-8.31-22.33-16.58-44.68-4.62-12.42-9.23-24.85l-.09-.24c-.09-.23-.19-.46-.22-.58v0h0a6.92,6.92,0,0,1,.48-5,6.66,6.66,0,0,1,9-2.8,6.5,6.5,0,0,1,3,3.12c.14.33.21.54.31.8l0,.05h0c2.81,7.5,5.57,15,8.37,22.54q8,21.57,16,43.15,9.3,25.08,18.62,50.16,9.79,26.38,19.6,52.78l9.87,26.57,5,13.35q1.24,3.32,2.47,6.64l1.26,3.4a11.62,11.62,0,0,1,.75,5c-.18,2.47-1.6,5.9-4.37,6.34a4.73,4.73,0,0,1-.83.07C364.61,713.7,362,711.45,360.54,709.25Z"/><path class="cls-2" d="M512.38,482.16q4.08,7.11,8.43,14c-27.39-10.77-54.95-21.37-83.8-27.48-32.45-6.42-89.31-11.34-122.95.91l-6.67.83c-14.4-7.87-29-16-38.5-29.74-30.39-45.62-43.06-105-19.93-156.4q2.26-4.72,4.61-9.38c9.84-2.58,19.61-5.42,29.22-8.84,52.74-18.44,103.23-51.54,141.49-92.29A370.69,370.69,0,0,0,456.94,133c-2.62,10.52-4.7,21.18-6.35,31.9a418.88,418.88,0,0,0-4.55,70,513.66,513.66,0,0,0,5.45,67,545.15,545.15,0,0,0,14.28,67.25,518.14,518.14,0,0,0,23.1,65.75q1.81,4.19,3.69,8.35c.7,1.54,1.41,3.08,2.12,4.6a.67.67,0,0,0,.06.12.77.77,0,0,0,.07.16,4.08,4.08,0,0,0,.19.42l.11.23c.57,1.23,1.15,2.46,1.74,3.68q3.7,7.83,7.74,15.49c0,.07.07.15.11.22q1.13,2.15,2.28,4.27c.35.66.69,1.33,1.07,2C509.47,477,510.91,479.6,512.38,482.16Z"/><path class="cls-2" d="M803.36,356.34a462.22,462.22,0,0,1-.62,57.59,382.92,382.92,0,0,1-6.66,47.44l-.05.21-.09.43a298.55,298.55,0,0,1-10.17,36.42,240.46,240.46,0,0,1-12,27.87l0,.11-.3.57a186.39,186.39,0,0,1-11.81,19.63,157,157,0,0,1-12.07,15.14A136.25,136.25,0,0,1,737.88,573l-.39.33a121.09,121.09,0,0,1-11.07,8.05,107.52,107.52,0,0,1-10.9,6,105.69,105.69,0,0,1-10.89,4.23,100.15,100.15,0,0,1-11,2.74,102.32,102.32,0,0,1-11.18,1.3,106.72,106.72,0,0,1-12.26-.16,114.89,114.89,0,0,1-13.43-1.93,126,126,0,0,1-15.13-4.31,147.56,147.56,0,0,1-16.73-7.27,180.24,180.24,0,0,1-19.47-11.82,222.32,222.32,0,0,1-21.56-17.41,283.81,283.81,0,0,1-24.53-25.84A354.51,354.51,0,0,1,532.62,490c-1.34-2.12-2.65-4.24-3.94-6.39q-5.34-8.89-10.27-18l-.33-.62q-3.44-6.42-6.66-12.94-1.67-3.37-3.28-6.76l-1-2.17c-.16-.39-.34-.77-.52-1.14-.06-.14-.13-.27-.19-.4a.31.31,0,0,1-.05-.1q-4.46-9.68-8.47-19.53c3.92-2.34,7.8-6.52,11.23-8.16,3.08-1.82,6.3-3.4,9.55-4.91a297.8,297.8,0,0,1,95-24.3c3.68-.15,7.22-2.45,8.49-5.17a29.75,29.75,0,0,0,9.51,1.64,25.25,25.25,0,0,0,4.89-.48,27.94,27.94,0,0,0,13.43-7c6.42-5.91,10.43-14,13-22.25a88,88,0,0,0,3.46-17.53,137.69,137.69,0,0,0-5.24-51.92l-.08-.28a1.87,1.87,0,0,0-.07-.22c-3.82-12.74-9.42-25.41-17.82-36-5.79-7.28-13.1-14-22.14-16.88a27.12,27.12,0,0,0-19.84,1.17,27.41,27.41,0,0,0-3.47,2,8.82,8.82,0,0,0-1.09-.33c-4.83-1.45-9.14,1.67-13.57,3.11-4.68,1.77-9.37,3.5-14.15,5a576,576,0,0,1-76.41,16.41c-9.95.74-20.06,1.61-30,.31a5.74,5.74,0,0,0-2.4.34c-.08-1.31-.15-2.62-.22-3.93a467.22,467.22,0,0,1,.64-57.73v-.06c0-.12,0-.25,0-.37a381.22,381.22,0,0,1,6.63-46.81l0-.13c0-.11,0-.22.07-.33a299.15,299.15,0,0,1,10.16-36.41A239.27,239.27,0,0,1,489.35,83,196.48,196.48,0,0,1,501.5,62.63,157.72,157.72,0,0,1,514,47a139.43,139.43,0,0,1,11.81-11.25,119.91,119.91,0,0,1,11.32-8.21,106.22,106.22,0,0,1,10.69-5.82,90.59,90.59,0,0,1,21.8-6.94,104.17,104.17,0,0,1,11.28-1.32c2.3-.1,4.6-.16,6.89-.1,1.21,0,2.41.07,3.62.14l1.34.07h.14l.64.06a115.46,115.46,0,0,1,13.08,1.91,133.52,133.52,0,0,1,14.93,4.23A147.94,147.94,0,0,1,638.27,27a183.74,183.74,0,0,1,19.48,11.79,225.94,225.94,0,0,1,21.49,17.31l.76.7a279,279,0,0,1,24,25.35,360.08,360.08,0,0,1,26.21,36.13,436.86,436.86,0,0,1,26.52,48.83,509.49,509.49,0,0,1,22.73,58.69c.33,1,.66,2.08,1,3.12a546.26,546.26,0,0,1,15.32,62.54A518.65,518.65,0,0,1,803.36,356.34Z"/><path class="cls-2" d="M607,369.62c.68.63,1.36,1.26,2.06,1.85-3.28.42-6.59,1.17-9.77,1.27a296.93,296.93,0,0,0-92.66,27.17A102.26,102.26,0,0,0,492.8,409q-4.82-12.76-8.95-25.76A550.54,550.54,0,0,1,467.62,318q-4.38-24.19-6.52-48.7a48.29,48.29,0,0,0,5.53.69,198.42,198.42,0,0,0,48.65-4.48c23.45-4.46,46.7-9.07,69.1-17.34a61.92,61.92,0,0,0-3,7.72l0,.1q-.87,2.73-1.54,5.5l-.39,1.66h0a5.4,5.4,0,0,0-.09.58c-.12.53-.24,1.07-.35,1.61a112.12,112.12,0,0,0-1.68,29.88,139.48,139.48,0,0,0,4.53,27.45C586.45,339.79,594,357.07,607,369.62Z"/><path class="cls-2" d="M653.66,317.41a117.6,117.6,0,0,1-.42,14.54,94.17,94.17,0,0,1-1.71,10.59,73.53,73.53,0,0,1-2.38,8,55.38,55.38,0,0,1-2.54,5.67,42.46,42.46,0,0,1-2.38,3.8c-.68.92-1.41,1.79-2.18,2.64-.67.67-1.37,1.32-2.1,1.93-.54.42-1.1.81-1.67,1.18s-1.06.58-1.6.84-1,.4-1.55.57-1,.26-1.54.36-1.06.12-1.58.15-1.17,0-1.76-.05-1.37-.2-2-.34-1.42-.4-2.11-.64c-1-.38-1.86-.81-2.77-1.27-1.07-.61-2.12-1.28-3.14-2a51.23,51.23,0,0,1-4-3.35,65.17,65.17,0,0,1-4.75-5.22,84.41,84.41,0,0,1-5.21-7.51,107,107,0,0,1-5.45-10.53,128.79,128.79,0,0,1-5.16-14.07,140.8,140.8,0,0,1-3.73-16.33,138.63,138.63,0,0,1-1.56-16,127,127,0,0,1,.41-13.93,102,102,0,0,1,1.74-10.87c.24-1,.49-2,.78-3.05.21-.73.44-1.45.63-2.19.28-.9.58-1.8.91-2.69a53.06,53.06,0,0,1,2.59-5.76q1.1-1.95,2.37-3.79c.72-1,1.49-1.89,2.3-2.79.63-.63,1.29-1.24,2-1.81s1.13-.83,1.73-1.21,1.05-.58,1.6-.83,1-.39,1.51-.56,1-.24,1.44-.33,1.13-.13,1.7-.16,1.16,0,1.75.05,1.27.19,1.91.32,1.48.42,2.21.67c.89.36,1.76.76,2.62,1.2,1.12.63,2.21,1.32,3.27,2.06a50.14,50.14,0,0,1,4.06,3.38,64.1,64.1,0,0,1,4.5,5,84.54,84.54,0,0,1,5.6,8.06,104.51,104.51,0,0,1,5.36,10.42,126.89,126.89,0,0,1,5.08,13.9,128.52,128.52,0,0,1,5.27,32Z"/><path class="cls-2" d="M264.62,456.58a123.9,123.9,0,0,0,20.72,16.62q-21.91,2.71-43.84,5.42-27.69,3.44-55.38,6.85l-27.69,3.43-14.26,1.76c-2.35.29-4.91.36-7.12,1.27-4.25-1.78-10.91,1.08-15.47.65a78.36,78.36,0,0,1-9.44.18c-4.44-5.34-8.77-10.77-12.83-16.4-12.35-17.3-23.51-35.61-29.88-56-10.55-29.77-3.54-62.6,10.2-90.14,1.27-2.38,2.56-4.75,3.85-7.11,36.71-11.6,73.72-22.3,110.64-33.21,14.08-4,28.37-7.29,42.61-10.72l-.88,1.89c-16.45,38.49-15.75,82.83-.85,121.68C242.42,421.81,250.92,441.11,264.62,456.58Z"/><path class="cls-2" d="M92.81,490.07c-7.11-1.58-14.14-3.65-21-5.73-11.2-4.21-20.68-11.73-29.2-19.95C23.9,448.74,15.17,433,13.5,408.4c-1.11-21.66,4.43-44.39,19.19-60.78,8.89-9.46,20.78-14.62,32.85-18.75-10.42,22.55-16.64,47.31-14,72.1C56.16,434.12,72.5,463.62,92.81,490.07Z"/><path class="cls-2" d="M301.35,717.35a11.33,11.33,0,0,0,.73.88,7.2,7.2,0,0,0-.75.81,8,8,0,0,0-1,1.59,4.35,4.35,0,0,0-.26.77,8.61,8.61,0,0,0-.75.53q-6.09,5.18-12.05,10.5c-5.48,4.88-10.8,10-16.71,14.42-2.41,1.91-5.43,3.37-7.79,5.41Q254.9,731.14,247,710l-19.82-53.13q-9.75-26.09-19.48-52.18-9.64-25.89-19.31-51.76-5-13.35-10-26.7L173.12,512c-.45-1.22-.91-2.43-1.36-3.66s-.91-2.71-1.52-4a11,11,0,0,0-2.32-3.17l26.55-3.29,29.68-3.67a6,6,0,0,0-.35,4.67c.81,2.29,1.61,4.59,2.42,6.88q8.91,25.29,17.84,50.6,9.42,26.76,18.86,53.51,9.93,28.13,19.84,56.26,5,14.21,10,28.4l5,14.23,1.32,3.73A18.33,18.33,0,0,0,301.35,717.35Z"/><path class="cls-2" d="M360.54,709.25l0,.07a17.76,17.76,0,0,0-2,1.6l-1.8,1.56-7.69.47c-6.59.39-13.19.81-19.79,1.21l-15.45,1-1,.06a9,9,0,0,0,.1-1.76,17.76,17.76,0,0,0-1.29-5.28c-.39-1.14-.79-2.28-1.2-3.41q-2.75-7.8-5.49-15.59-10-28.2-19.89-56.43-9.7-27.54-19.42-55.08-9.26-26.29-18.54-52.58c-3.51-10-7-19.95-10.54-29.91a8.26,8.26,0,0,0-1.24-2.33l14-1.74L278,487.53h0a4.23,4.23,0,0,0,.22.59l.09.24q4.62,12.42,9.23,24.85,8.28,22.35,16.58,44.68,9.48,25.46,18.92,50.94,9.72,26.22,19.46,52.42,5,13.51,10,27.05c1.59,4.3,3.2,8.61,4.8,12.92.46,1.26.93,2.52,1.4,3.79A19.38,19.38,0,0,0,360.54,709.25Z"/><path class="cls-2" d="M340.31,726.83l-.91.8c-1.41,1.23-2.84,2.45-4.23,3.7s-2.93,2.87-4.35,4.34l-9.24,9.64-8.63,9c-.66.68-1.29,1.41-1.95,2.1l-1.59,0-1.8,0a13,13,0,0,0-3.24.58l-.08,0-6.82-.21c-3.93-.11-7.87-.14-11.79-.46l-4.92-.4c10-7.91,20.72-19.24,27.07-23.79a6.65,6.65,0,0,0,2.26-3.51h0l9.65-.6,19.39-1.19Z"/></g></g></svg>