<svg xmlns="http://www.w3.org/2000/svg" viewBox="0 0 687.93 691.16"><defs><style>.cls-1{fill:#1a8dcc;}.cls-2{fill:#8bcbed;}</style></defs><g id="Layer_2" data-name="Layer 2"><g id="Layer_1-2" data-name="Layer 1"><path class="cls-1" d="M573.55,367.93l.15-.13-.16.14Z"/><path class="cls-1" d="M448,58.43a184.87,184.87,0,0,0-22.35,2.89,175.52,175.52,0,0,0-42.12,13.89l-.57.28h0a184,184,0,0,0-19.56,11,187.39,187.39,0,0,0-18.63,13.94,181.85,181.85,0,0,0-16.41,16.05l-.25.27a191.52,191.52,0,0,0-14.4,18.45,188.71,188.71,0,0,0-12,20.44,192,192,0,0,0-9,21.63,176.2,176.2,0,0,0-9,45.4,192.36,192.36,0,0,0,0,22.78,184,184,0,0,0,2.92,22.43,186.42,186.42,0,0,0,5.67,21.57,189.45,189.45,0,0,0,8.36,20.71,183.65,183.65,0,0,0,11.18,19.88,189.56,189.56,0,0,0,13.72,18.35,182.71,182.71,0,0,0,16.39,16.77c.83.74,1.68,1.45,2.49,2.21a10.36,10.36,0,0,1,2.52,3.83,10.81,10.81,0,0,1,.55,2c.95.34,1.9.7,2.83,1.08a55.79,55.79,0,0,1,9.91,5.17,175.9,175.9,0,0,0,42,21l.45.15h0a176.63,176.63,0,0,0,44.85,9l.52,0h0a185.08,185.08,0,0,0,22.22,0h.22a176.13,176.13,0,0,0,84.52-28,185,185,0,0,0,18.07-13.43l.54-.46.09-.08,0,0a185,185,0,0,0,16.63-16.26l.07-.08A189.69,189.69,0,0,0,605,332.82a183.3,183.3,0,0,0,11.8-20.18A189.16,189.16,0,0,0,626,290.51a191.81,191.81,0,0,0,6-22.36q1.2-6.27,2-12.62.43-3.5.73-7c.08-1,.16-2,.23-3v-.13c.08-1.14.14-2.29.19-3.44q.21-4.83.16-9.68c0-3.19-.15-6.38-.34-9.57a187.52,187.52,0,0,0-2.83-22,176,176,0,0,0-14.26-43.06,192.11,192.11,0,0,0-10.91-19.39,182.4,182.4,0,0,0-14-18.74,175.94,175.94,0,0,0-55.17-43,175.6,175.6,0,0,0-67.25-18.09c-3.74-.22-7.49-.33-11.23-.33S451.73,58.21,448,58.43Zm-1.63,364.5h.32A190.31,190.31,0,0,1,395,412.12a183.37,183.37,0,0,1-19.63-8.37,187.67,187.67,0,0,1-20.1-11.51c-1.56-1-3.15-2.05-4.6-3.23a39.35,39.35,0,0,1-3.3-3,42.44,42.44,0,0,1-3.58-4.22c-.52-.71-1-1.44-1.5-2.18H342a10.09,10.09,0,0,1-6.54-2.3c-1.47-1.17-2.85-2.5-4.24-3.77-1.14-1-2.27-2.11-3.39-3.18q-6.72-6.49-12.77-13.61A189.45,189.45,0,0,1,272.2,263c-.88-5.66-1.47-11.36-1.84-17.08A192.2,192.2,0,0,1,275,191a189.11,189.11,0,0,1,43.38-83.24,189.46,189.46,0,0,1,87-55.1A189.31,189.31,0,0,1,593.8,100.86a189.4,189.4,0,0,1,54.45,122,185.14,185.14,0,0,1,0,23.08c0,.16,0,.31,0,.46a192.51,192.51,0,0,1-3.82,27.47,189,189,0,0,1-15.45,44.26A195.16,195.16,0,0,1,616,340.24,191.15,191.15,0,0,1,600.6,360a195,195,0,0,1-18.06,17.73,189.34,189.34,0,0,1-96.15,43.69c-4.88.72-9.8,1.2-14.47,1.51l-.81.06h0q-5.89.36-11.79.36Q452.83,423.36,446.35,422.93Z"/><path class="cls-1" d="M441.5,14.08a238,238,0,0,0-26.82,4A213.8,213.8,0,0,0,364,35.93l-.62.31a222.76,222.76,0,0,0-24.08,14.18,214.54,214.54,0,0,0-41.73,37.16,214.8,214.8,0,0,0-31.72,48.74,225.48,225.48,0,0,0-10.36,26.33,214.73,214.73,0,0,0-10,55.69,214,214,0,0,0,4.57,54.71,228.74,228.74,0,0,0,7.36,26.08,214,214,0,0,0,24.81,49.25,225.18,225.18,0,0,0,17.18,22.09q6.68,7.48,14,14.35,1.66,1.57,3.38,3.1a18.23,18.23,0,0,1,1.38,1.26,12.14,12.14,0,0,1,2,3,9.5,9.5,0,0,1,.57,1.48c1.62.74,3.21,1.53,4.76,2.39a91.89,91.89,0,0,1,9.3,6.35c2.68,1.92,5.39,3.77,8.15,5.58a225.75,225.75,0,0,0,24.82,13.89l.09,0a227.23,227.23,0,0,0,26.17,10.38l1,.31a229.8,229.8,0,0,0,27.73,6.8,218.33,218.33,0,0,0,26.7,3l.85,0,.56,0a240.72,240.72,0,0,0,26.86-.54l.55-.05.28,0,.25,0a215.17,215.17,0,0,0,52.87-11.51,225,225,0,0,0,24.91-10.65l.31-.16a229.69,229.69,0,0,0,23.41-13.78,214.81,214.81,0,0,0,59.52-60.6,232,232,0,0,0,14.22-25.46A229.8,229.8,0,0,0,664.54,293a226.34,226.34,0,0,0,6.79-27.51,223.18,223.18,0,0,0,3.09-27.89,227.38,227.38,0,0,0-.55-27.75h0c0-.08,0-.16,0-.23s0-.29,0-.32a224.72,224.72,0,0,0-4-26.57,229.38,229.38,0,0,0-7.53-26.56,232.35,232.35,0,0,0-10.57-24.75,229.7,229.7,0,0,0-14.35-24.36,232,232,0,0,0-16.93-21.71c-4.87-5.42-9.95-10.63-15.32-15.55q-2-1.8-4-3.55l-.5-.44c-.3-.24-.59-.49-.88-.75A228.4,228.4,0,0,0,577.2,48.12,239.84,239.84,0,0,0,552,34a227.74,227.74,0,0,0-26.36-10.43l-.59-.19a230.82,230.82,0,0,0-27.38-6.76,236.46,236.46,0,0,0-27.72-3.1q-4.81-.19-9.62-.2Q450.88,13.31,441.5,14.08Zm9.24,441.66H451l-.78,0h-.13a227.65,227.65,0,0,1-59.21-10.51A231,231,0,0,1,362.49,434a226.06,226.06,0,0,1-26-14.42c-3.73-2.42-7.41-4.91-11-7.53a61.61,61.61,0,0,1-5.6-4.47,38.51,38.51,0,0,1-4.19-4.65c-.46-.59-.91-1.2-1.35-1.82a10.31,10.31,0,0,1-5.12-2.14c-1.59-1.28-3.08-2.73-4.57-4.11s-3.25-3.07-4.83-4.63a227.92,227.92,0,0,1-67.62-173.13,224.57,224.57,0,0,1,9-53.48,228.07,228.07,0,0,1,57.52-96.93A232.24,232.24,0,0,1,345.1,31c4.28-2.52,8.67-4.84,12.35-6.69A225.69,225.69,0,0,1,412.34,5,232.36,232.36,0,0,1,472.44.31a224.69,224.69,0,0,1,56.19,10.26,227.79,227.79,0,0,1,79.94,44.51l.2.17h0a6.48,6.48,0,0,1,.62.54,228.08,228.08,0,0,1,38.44,43,230.49,230.49,0,0,1,25.89,49.94,226.69,226.69,0,0,1,13,55.79c.16,1.55.29,3.11.35,3.81a228.36,228.36,0,0,1-.94,48.12c-.48,3.83-1.08,7.64-1.76,11.44a227.16,227.16,0,0,1-16.45,53.38,228,228,0,0,1-71.59,89.32,227.72,227.72,0,0,1-116.56,44.41q-9.89.87-19.82.87C456.89,455.93,453.82,455.87,450.74,455.74Z"/><path class="cls-1" d="M302.62,340.28l10.3-8.51q3.72,5.53,7.81,10.77L310.46,351Q306.35,345.79,302.62,340.28Z"/><path class="cls-1" d="M21.75,690.17c-32.33-11.41-22.45-51.85-9.66-75,34.42-65.41,98.81-105.91,150.78-156,33.8-30.21,68.55-59.21,103.07-88.53q10.06-8.39,20.19-16.72,3.92,5.39,8.15,10.54-40.95,34-81.36,68.7h0l-.2.17c-27.85,23.49-54.51,48.21-81.7,72.46-24.16,21-49.55,40.79-70.8,64.87-19.5,22.61-39.2,47.24-46,76.93-2.87,11.61-.3,28.29,13.8,30.25,8.07.16,14.23-5.85,20.07-10.64,23.57-21,44.16-45,66-67.73,45.46-45.5,89-92.85,133.78-139,24-23.12,47.36-46.85,71.53-69.78a13.8,13.8,0,0,1,.83,1.46,10.16,10.16,0,0,1,.56,1.48q2.43,1.1,4.77,2.39a49.9,49.9,0,0,1,4.64,3c-44.61,42.14-88.08,85.49-129.76,130.54C171,561.33,139.7,591.27,110.19,623,95.74,638.3,81.6,654,66.37,668.53c-10.57,9.52-22.75,22.63-37.59,22.63A25.75,25.75,0,0,1,21.75,690.17Z"/><path class="cls-1" d="M343.8,381.76c-.52-.71-1-1.44-1.5-2.18H342a10.09,10.09,0,0,1-6.54-2.3c-.31-.25-.63-.5-.93-.77l1.64-1.51c2.8-2.42,5.48-5,8.09-7.69l.08.08a10.36,10.36,0,0,1,2.52,3.83,10.11,10.11,0,0,1,.55,2c.95.34,1.9.7,2.83,1.08,1.38.56,2.73,1.17,4,1.81-2.8,2.73-5.64,5.43-8.49,8.11C345.12,383.47,344.44,382.63,343.8,381.76Z"/><path class="cls-1" d="M267.13,449.84c-11.41-17.89-29.2-31-48.7-38.95l11.38-9.67A132.25,132.25,0,0,1,261,422c8,7.11,14.3,15.63,19.79,24.7q-4.9,4.85-9.79,9.72C269.72,454.2,268.43,452,267.13,449.84Z"/><path class="cls-2" d="M343.8,381.76l.49.65.5.63c.33.42.68.84,1,1.24.51.58,1,1.15,1.56,1.7a39.35,39.35,0,0,0,3.3,3,54.28,54.28,0,0,0,4.6,3.23,189.39,189.39,0,0,0,20.1,11.51A185.49,185.49,0,0,0,395,412.13,191.45,191.45,0,0,0,446.67,423q6.33.41,12.64.41,5.9,0,11.79-.36h0l.81-.05c4.67-.32,9.59-.8,14.47-1.52a189.34,189.34,0,0,0,96.15-43.69A196.15,196.15,0,0,0,600.6,360,192.35,192.35,0,0,0,616,340.24a195.16,195.16,0,0,0,12.92-22.16,189,189,0,0,0,15.45-44.26,192.71,192.71,0,0,0,3.82-27.47c0-.15,0-.3,0-.45a185.3,185.3,0,0,0,0-23.09A189.44,189.44,0,0,0,593.8,100.86,189.27,189.27,0,0,0,356.14,75.34a192,192,0,0,0-37.81,32.37A189.11,189.11,0,0,0,275,191a192.17,192.17,0,0,0-4.59,55c.37,5.73,1,11.43,1.84,17.09a190.53,190.53,0,0,0,16.51,53.14,195.49,195.49,0,0,0,13.91,24.12l.94,1.37c.31.46.63.91.95,1.36s.63.91,1,1.36l1,1.35c.32.45.65.89,1,1.34l2,2.58q.53.69,1.08,1.38,2.25,2.89,4.64,5.7c4,4.74,8.29,9.29,12.77,13.62,1.12,1.07,2.25,2.14,3.39,3.18s2.18,2,3.31,3c.3.27.62.52.93.77a10,10,0,0,0,6.54,2.3h.26C342.78,380.32,343.28,381.05,343.8,381.76Zm107.09,60.67-.56,0-.85,0a218.33,218.33,0,0,1-26.7-3,231.7,231.7,0,0,1-27.73-6.8l-1-.31a227.23,227.23,0,0,1-26.17-10.38l-.09-.05A224,224,0,0,1,343,408c-2.75-1.81-5.47-3.66-8.15-5.58-1.56-1.13-3.09-2.28-4.66-3.39a47.39,47.39,0,0,0-4.64-3q-2.32-1.29-4.77-2.39a8.29,8.29,0,0,0-.56-1.48c-.06-.14-.13-.27-.2-.41s-.26-.47-.4-.69-.13-.22-.2-.32l0,0a13,13,0,0,0-1.19-1.52,18.23,18.23,0,0,0-1.38-1.26q-1.71-1.53-3.38-3.1-7.32-6.85-14-14.35c-1.75-2-3.46-4-5.14-6l-1.08-1.32-.89-1.11q-1.47-1.83-2.89-3.69l-.88-1.17c-.82-1.08-1.62-2.16-2.42-3.25-1.32-1.82-2.61-3.65-3.87-5.51a214,214,0,0,1-24.83-49.25A215,215,0,0,1,246,245.8a215,215,0,0,1,2.61-55.59,215.24,215.24,0,0,1,17.19-53.9,214.8,214.8,0,0,1,31.72-48.74,214.54,214.54,0,0,1,41.73-37.16,224.33,224.33,0,0,1,24.08-14.17l.62-.31a213.8,213.8,0,0,1,50.71-17.82,240.34,240.34,0,0,1,26.82-4A215.18,215.18,0,0,1,525,23.36l.59.19A227.8,227.8,0,0,1,552,34,239.84,239.84,0,0,1,577.2,48.12a228.4,228.4,0,0,1,22.58,16.94c.29.26.58.51.88.75l.5.44c1.32,1.17,2.64,2.35,3.94,3.54,5.38,4.92,10.46,10.14,15.32,15.56a225.79,225.79,0,0,1,16.93,21.71,228.78,228.78,0,0,1,14.36,24.36,232.35,232.35,0,0,1,10.57,24.75,230.86,230.86,0,0,1,7.54,26.56,226.61,226.61,0,0,1,4,26.56s0,.18,0,.33a1.23,1.23,0,0,0,0,.19v.09s0,.1,0,.15v.2s0,0,0,.05v.1a.09.09,0,0,1,0,0,227.45,227.45,0,0,1,.5,27.13,223.18,223.18,0,0,1-3.09,27.89A226,226,0,0,1,664.54,293a214.19,214.19,0,0,1-24.69,52.11,214.37,214.37,0,0,1-59.52,60.6,229.69,229.69,0,0,1-23.41,13.78l-.31.16a224.89,224.89,0,0,1-24.91,10.64,229.87,229.87,0,0,1-26.62,7.55,225.57,225.57,0,0,1-26.25,4l-.25,0-.28,0-.55,0c-6.06.48-12.13.7-18.2.7C456.66,442.58,453.78,442.53,450.89,442.43Z"/><path class="cls-2" d="M261,422a139.06,139.06,0,0,0-18.66-14Q263.09,390.4,284,373a227.55,227.55,0,0,0,15.83,17.31c1.59,1.56,3.19,3.11,4.83,4.63s3,2.83,4.57,4.11a8,8,0,0,0,.82.58c-12.35,11.9-24.54,24-36.75,36A89.83,89.83,0,0,0,261,422Z"/><path class="cls-2" d="M28,677.83c-14.09-2-16.67-18.65-13.8-30.25,6.84-29.69,26.53-54.32,46-76.94,21.26-24.08,46.65-43.87,70.81-64.87,27.18-24.24,53.85-49,81.7-72.46l.2-.17h0q9.28-8,18.62-16A101.11,101.11,0,0,1,263.78,445q-7.95,7.78-15.94,15.51C203,506.6,159.52,554,114.07,599.45c-21.86,22.7-42.45,46.74-66,67.73-5.77,4.73-11.84,10.65-19.77,10.65Z"/></g></g></svg>