<svg xmlns="http://www.w3.org/2000/svg" viewBox="0 0 752.29 696.09"><defs><style>.cls-1{fill:#fa6732;}.cls-2{fill:#f7c8b9;}</style></defs><g id="Layer_2" data-name="Layer 2"><g id="Layer_1-2" data-name="Layer 1"><path class="cls-1" d="M489.63,545.64c-6.44-1.22-5.67-7.86-4.69-12.79a190,190,0,0,0,.66-24.05c-.43-17.9-2.72-35.67-5.54-53.33-4.63-30.6-16.16-50-44.72-63.34-36.78-19.82-73.9-39.09-112-56.26-22.64-10.49-45.88-19.68-69.18-28.56-7.48-4.39-33.16-8.25-28-19.85,8.12-7.42,21.87,4.88,30.93,6.72,8.25,3.24,16.92,6.48,24.42,9.43,49.3,19.42,96.74,43.14,143.55,67.88,21.89,12.08,48.05,22.8,58.06,47.58,11.94,27.43,14.05,58.78,15.73,88.21C498,516.14,503,547.29,489.63,545.64Z"/><path class="cls-1" d="M226.47,296.5c-16.51-8,74.86-81.64,85.07-88.83,12.2-4.21,12.18,9,3.38,13.75-17,13.55-33.1,27.8-49,42.56-5.39,5-10.66,10.17-15.75,15.5C243.29,284.27,236,303,226.47,296.5Z"/><path class="cls-1" d="M483.92,548.4c-2.56-7.15,5.52-8.95,10.05-11.87a227.47,227.47,0,0,0,20.77-15.39C530.56,508,545.59,494,561.49,481c9.09-6.54,16.11-15,18-26.32,6.63-30.33,8.82-62.19,4.51-93-3.87-29.12-10.44-28.86-35.22-39.79-76.35-34.61-152.06-73.32-231.28-99.67-15.9-32.38,108.24,29.31,118.08,32.95q55.57,25.32,111,51c16.93,9.19,41.67,12.77,46.33,34.6,8.24,27.29,7.34,56.51,4.9,84.57-2.94,23.46-5,50.7-26.61,64.89C558.94,497.48,491,569.07,483.92,548.4Z"/><path class="cls-1" d="M484.3,431.92c-2.34-6.52,4.38-10.63,8.52-14.32,14-13.17,27.21-27.1,40.41-41,14.63-15.25,28.3-31.31,41.69-47.63,5.81-6.33,15.67,2.85,9.72,9.12-23.72,29.26-49.51,56.78-76.39,83.14C502.13,426.24,492.42,440.58,484.3,431.92Z"/><path class="cls-1" d="M300.1,554.61c-14.61-4.47-28.8-10.57-42.68-16.82l.38.17,0,0c-47.69-22.31-95.55-44.75-139.79-73.47-26.73-17.26-51.95-36.74-78.82-53.8-7.15-4.94-15.08-9-21.58-14.79-5.44-6.27-1-13.54,7.11-10.44,37.29,22.79,71.89,49.83,108.87,73.13,41.32,26,85.71,46.63,129.81,67.31l-.44-.2-.09,0c14.83,6.53,30.49,13.6,45.92,17.46,12.38-.28,22.06-10.23,32.17-16.32,36.59-23.87,69.34-53.14,106.18-76.18,9.91-6.36,19.92-12.57,29.93-18.75,7.25-4.52,14.36,6.93,6.9,11.4-33.34,19.65-64.7,42.06-95.15,65.87-14.71,11.08-29.9,21.51-45.11,31.9C331.07,549.62,316.08,561,300.1,554.61Z"/><path class="cls-1" d="M22.17,389.9c-6.42-1.77-4-9.62.84-11.79,7.12-2.94,14.56-5.17,21.85-7.69q27.62-9,55.46-17.21c48.26-13.42,92.25-38.08,133.68-65.76,7.33-8.23,19.21-.49,11.49,8.13-48.62,34.15-102,61.06-159.69,75.91q-21.43,6.58-42.75,13.56C36.17,386.68,29.38,391.82,22.17,389.9Z"/><path class="cls-1" d="M582.79,334.52a6.76,6.76,0,0,1-1.54-9.3c11.79-17.32,24.22-34.81,35.2-52.54,21.71-32.59,31.83-71.23,35.29-109.91a295.28,295.28,0,0,0,1-56.09c.52-9.27-6.06-13.05-14.12-15-12.6-4-25.21-7.88-37.79-11.88C565.28,69.31,531.08,55,495.75,44c-31-8.64-61.67-17.33-91.12-30.28-4.21,67.54-11.15,119.83-54.48,174.7-6.21,6.86-23.23,37.65-32.76,27.54C313.67,207,325,201,329,194.36,344.6,174,359.67,153,370.33,129.62,384.12,96.25,388,59.64,390.4,23.9,390.33,2.28,396.74-6.19,418,4.82c11.92,4.69,23.81,9.44,36,13.32A1219.54,1219.54,0,0,1,570.18,56c18.37,6.29,37,11.81,55.49,17.74,15.33,5.33,38.2,7.62,39.85,27.76a336.69,336.69,0,0,1-12.25,124.07c-8.2,28.23-24.24,53.18-40.52,77.27-4.53,6.68-9.14,13.31-13.67,20C595,327.92,591,339.56,582.79,334.52Z"/><path class="cls-1" d="M283.75,496c-35.35-15.89-70.31-32.74-104-52-8.18-4.5-16.3-9.1-24.28-13.94-2.32-1.32-4.73-2.69-6.06-5.1-4.09-6.23,1.61-10.59,7.86-8.87,2.82.76,5.14,2.76,7.71,4.13a1188.55,1188.55,0,0,0,120.88,62.1c6.94-18.93,20.67-35.55,42.82-32.26,13.65,2.54,26.42,9.2,34.65,20.59,21.55-14.95,44.19-28.46,65-44.5,8.24-6.18,15.73-13.35,23.79-19.4,7-5.07,14.94,5.41,8,10.69-16.27,13.19-32,26.9-49.9,37.92-7.34,4.84-14.78,9.53-22,14.51-7.43,4.85-14.23,11.16-22.65,14.25-11.62,2.5-15.48-12.86-25.15-16.23C294.85,446.48,305.9,504.46,283.75,496Z"/><path class="cls-1" d="M147.43,419.07c-4.4-7.45,4.37-14.27,4.56-21.89a48.16,48.16,0,0,0,.42-19.68c-.6-3.19-2-6.74,0-9.75,1.21-2.05,3.21-3,5.23-4,4.33-2.09,8.51-4.43,12.67-6.85,23.57-13.65,48-25.73,71.11-40.23A132.18,132.18,0,0,0,257,304.62c8-5.39,15.2,6.62,6.87,11.61-9.51,8.68-20.62,15.25-31.77,21.56-22.12,12.49-44.41,24.69-66.63,37,2.53,13.21.84,27.82-5.53,39.73C158,418.66,151.43,423.33,147.43,419.07Z"/><path class="cls-1" d="M370.18,397.37c-23.61-2-51.11-13.8-59.3-37.77-2.83-7.67-4.8-17.43-.41-24.82,3.51-4.91,9.74-4.13,10.95,2.07.84,3.42-.33,6.88-.06,10.34,1.71,17.69,17.43,28.66,33.21,33.53,8.41,3.17,17.95,4.44,26.66,2.19,8.85-2,18.12-4,25.78-9.1,7-5.11,14.91,5.42,8,10.69C401.86,392.88,385.64,396.87,370.18,397.37Z"/><path class="cls-1" d="M488.42,282.42c-9.5-.61-5.75-12.36-7.89-18.65-2.44-10.72-15.55-20.36-24.48-26.1-13.92-7.5-31.3-6-45.94-1.35-5.44,1.37-10.05,5.42-15.67,5.85-6.36.56-8.35-5.45-4.7-10.09,11.2-9.56,30.16-13,44.65-12.66,17.85-1.11,33.93,8.08,46.05,20.56,4.78,4.75,9.55,10,11.94,16.35C493.76,263.44,499.87,281.7,488.42,282.42Z"/><path class="cls-1" d="M555.92,312.34c-5.82-8.1,5.72-17.47,8.73-24.9,9.32-16.26,17.79-33,25.54-50,6.47-14.87,13.64-30,14.43-46.41-26.41-8-44.26-42.47-37.25-68.9-12.24-8.4-26.7-12.79-40.78-17-17.79-5.4-35.71-10.37-53.82-14.59-3.3,10-6,21.89-14.8,28.52-11.91,9.1-28.37,12.42-42.33,6.26-18.19,31-30.75,65.35-53.18,93.79-2.53,3.23-4.36,5.24-6.74,7.8-6.11,6-15.58-3.44-9.27-9.58,19.32-21.91,31.74-48.85,44.79-74.73,5.79-9.45,11.06-29.62,23.36-31.28,5.77.81,11.11,4.35,17.1,4,7.73-1.09,17.11-3.65,21.47-10.61a113,113,0,0,0,5.24-12.5c2.34-5.29,1.71-13.78,8.42-15.59,24.28,2.33,48.12,11.83,71.75,18.23,11.83,3.78,23.66,8.14,34.18,14.84,18.31,11.07-.84,17.05,9.72,41.65,16.08,35.79,35,21.39,35.7,35.81-.3,24.49-11.65,46.8-21.76,68.53-6.52,13.06-13,26.16-20.4,38.77C571.32,300.63,566,318,555.92,312.34Z"/><path class="cls-1" d="M294.15,593.8c-47.49-16.56-91.37-41.63-136.67-63.16C119.93,513.19,81,498.74,44.29,479.42,26.9,469.58,2,456.06,0,434c0-10,10.85-13.8,17.52-19.2,5-3.06,9-8.48,15-9.3,4.66-.75,7.92,2.89,6.3,7.38-3,7.87-18.83,15.32-25.51,21.22,6.74,29.73,95.3,58.45,123.31,72.74,54.76,22.82,105.53,54.76,161.69,74.26,22.15-3.55,52.12-29.34,71.41-42.29,36.74-27.74,71.55-56.58,106.24-86.58,6.25-5.82,15.48,3.7,9.08,9.75-20.3,17.84-42.44,35.95-62.94,52.72C400.74,531.24,317.17,602,294.15,593.8Z"/><path class="cls-1" d="M287.75,640.75c-10-.43-17.11-8.44-25.37-13.13-5.78-3.65-11.51-7.39-17.49-10.69-53.61-28.07-110.15-49.81-164.28-76.77-16.37-9.46-99.48-44-69.09-67.47,4.46-3.2,8.66-8.56,14.72-7.72a4.92,4.92,0,0,1,4.48,6.25c-1.23,6.4-8.12,8.91-12.37,13.09l.12.33c.15.31.31.61.47.91a7.71,7.71,0,0,1-.61-1.22c11,15.58,30.37,23.4,46.41,32.75,45.41,24.36,93.35,43.36,139.9,65.32,17.64,8.74,35.82,16.49,52.83,26.43,7.3,4.4,14.46,9,21.51,13.8,7.87,7.66,19.09,5.13,27.59-.16,33.26-23.5,67.27-46,99.65-70.73,25.72-18.89,47.94-39.55,73.28-57.91,7-4.9,14.83,5.74,7.68,10.9-6.71,4.89-13.28,9.94-19.77,15.11-22.41,18.46-44.86,36.8-68.35,53.89-16.93,12.62-34.38,24.53-51.8,36.47C328.44,621.4,311.34,642.25,287.75,640.75Z"/><path class="cls-1" d="M294,695.1c-12.92-6.13-23.44-16.25-34.78-24.78-7.38-5.46-15.59-9.55-23.58-14-22.77-14.78-45.69-29.45-70.27-41.11C129.28,596,89.32,585.79,52.3,568.64,44.36,564,31,562.18,29.78,551.31c-1.39-7.44,8.42-29.39,16.76-29.55,3.72-.64,5.87,2.86,5.62,6.19-.86,7.78-8.5,13.4-9.16,21.37,37.46,19.73,79,30,117.06,48.3a608.83,608.83,0,0,1,77.66,44.27c7.42,4.81,15.48,8.48,22.88,13.32,9.87,6.24,18.41,14.29,27.93,21,3.75,2.3,7.33,5.9,11.74,6.65,12.21-.55,20.93-10.65,30.4-17.23,26.95-22.3,47.33-51.33,73.13-74.8,23.6-21.52,47.66-42.54,70.69-64.67,3.13-2.76,6.4-5.32,9.75-7.8,7-4.9,14.81,5.71,7.68,10.89-9.67,6.89-17.68,15.71-26.38,23.71-24.05,22.53-50.19,43.7-72.67,67.72C373.28,640.53,324,704.79,294,695.1Z"/><path class="cls-1" d="M592.92,359.41c-4.79-8.32,7.44-16.16,11.8-22.21q14.13-15.56,28.86-30.49c30.54-30.18,60.24-61.37,88.65-93.51-2-7.51-6.65-14-10.37-20.77-5.77-9.26-6-14.28-17.56-17.33h0l.42.15c-8.77-3.18-17.64-6.09-26.86-7.6-8.6-1.49-6.75-14.31,1.93-13.19a154.19,154.19,0,0,1,28.64,8c5,1.79,10.45,3.44,14.42,7.16,7.79,9.76,13.47,21.25,19.39,32.23,3.16,6.31,5.29,14.42,0,20.23-6.9,8.23-14.52,15.89-21.71,23.86C682.7,277,652.71,305.77,624,336c-5.19,5.53-10.25,11.09-15.27,16.76-2.31,2.36-4.09,5.33-7,7C599.19,361.15,595.05,362.11,592.92,359.41Z"/><path class="cls-1" d="M589,419.11c-3.18-6.43,3.17-9.41,7.82-12.05,7.54-4.56,14.41-10.21,21.15-15.81a618.06,618.06,0,0,0,78.88-77.12c6.78-8.19,14.47-16,19.32-25.51-1.94-8.23-7.63-14.94-12.53-21.62-3.2-3.57-7.16-9.9-2.81-14.06,5.93-3.49,11.4,2.81,14.42,7.33a130.71,130.71,0,0,1,7.68,11c8,12.92,9.27,20.34-.57,32.67-27.13,34.93-59.08,67-93,95.14-6.76,5.57-13.18,11.11-20.43,16C603.11,418.32,594.33,427.4,589,419.11Z"/><path class="cls-1" d="M594.4,451.9c-5.26-.53-4.85-7.47-2.35-10.72,5.25-5.92,11.36-11.11,17.1-16.57,38.53-34.39,82-63,126.33-89.26-7.29-5.67-13.81-9.65-21-15-6.68-5.59,1.44-15.67,8.4-10.35,6.66,4.91,13.06,9.05,19.62,14,10.4,7,14.86,15.12,1.31,21.91A907.34,907.34,0,0,0,635,419.82c-6.89,5.78-13.7,11.68-20.28,17.82C608.73,442.13,602.31,453,594.4,451.9Z"/><path class="cls-2" d="M604.62,191c-.79,16.46-8,31.54-14.43,46.41-7.75,17-16.22,33.78-25.54,50-2.74,6.76-12.54,15.13-9.9,22.68-2.85-1.23-5.63-2.5-8.22-3.91q-27.12-12.54-54.27-25c6-4.36,1.3-18.72.11-24.83-2.38-6.4-7.15-11.6-11.93-16.35-12.12-12.48-28.2-21.68-46.05-20.56-14.48-.35-33.45,3.1-44.64,12.66a8.83,8.83,0,0,0-1.22,2c-9.52-4.08-19.47-8.17-28.85-11.66.87-1,1.77-2.11,2.78-3.4,22.43-28.44,35-62.83,53.18-93.79,14,6.16,30.43,2.84,42.33-6.26,8.82-6.63,11.5-18.51,14.8-28.52,18.11,4.22,36,9.18,53.81,14.59,14.09,4.23,28.55,8.62,40.79,17C560.36,148.52,578.21,183,604.62,191Z"/><path class="cls-2" d="M548.75,321.89c10.54,4.65,17.78,7.27,22.92,11-12.35,15-25,29.67-38.44,43.69-13.2,13.93-26.45,27.86-40.41,41-2.35,2.09-5.53,4.33-7.42,7.06q-1.06-2.82-2.27-5.59c-10-24.78-36.17-35.5-58.06-47.57-46.81-24.75-94.25-48.47-143.55-67.89-7.5-2.95-16.17-6.19-24.42-9.43a41.23,41.23,0,0,1-9.13-3.66,5.73,5.73,0,0,0-3-5.56,26.6,26.6,0,0,1,5.19-5.48C255.29,274.15,260.56,269,266,264c15.87-14.76,32-29,49-42.56a12.22,12.22,0,0,0,1.73-1.12,18.39,18.39,0,0,0,.82,1.92C396.69,248.57,472.4,287.28,548.75,321.89Z"/><path class="cls-2" d="M480.53,263.77c1.18,3.48.57,8.63,1.38,12.64q-23.16-10.67-46.36-21.24c-3-1.11-16.7-7.65-33.82-15.28,2.75-1.31,5.44-2.83,8.38-3.57,14.64-4.64,32-6.14,45.94,1.35C465,243.41,478.08,253.05,480.53,263.77Z"/><path class="cls-2" d="M404.14,375.54c-7,3.86-15.14,5.62-22.91,7.37-8.72,2.25-18.25,1-26.66-2.19-15.78-4.87-31.5-15.85-33.21-33.53-.27-3.46.9-6.91.06-10.34a8.36,8.36,0,0,0-.74-2.2l2.66,1.22C350.71,348.2,377.56,361.62,404.14,375.54Z"/><path class="cls-2" d="M456.24,405.47a6.49,6.49,0,0,0-4.13,1.34c-8.06,6.05-15.55,13.22-23.8,19.4-20.77,16-43.4,29.55-65,44.5-8.23-11.39-21-18-34.65-20.59-22.15-3.29-35.88,13.33-42.83,32.26A1187.4,1187.4,0,0,1,165,420.28c-2.17-1.16-4.16-2.76-6.43-3.69a10,10,0,0,0,1.32-2.09c6.37-11.91,8.05-26.52,5.53-39.73,22.22-12.29,44.51-24.49,66.63-37,11.16-6.31,22.26-12.88,31.77-21.56a7.36,7.36,0,0,0,3.35-3.91c15.88,6.16,31.68,12.55,47.23,19.49a7.54,7.54,0,0,0-3.93,3c-4.39,7.38-2.42,17.15.41,24.82,8.19,24,35.68,35.74,59.3,37.77,15.46-.5,31.68-4.49,44.79-12.87a6.93,6.93,0,0,0,1.95-2.22q9.22,4.89,18.42,9.85A85.21,85.21,0,0,1,456.24,405.47Z"/><path class="cls-2" d="M462.76,412.16a68.26,68.26,0,0,1,12,21.2c-9.22,5.7-18.43,11.42-27.55,17.28-36.84,23-69.59,52.31-106.18,76.18-10.11,6.09-19.79,16-32.17,16.32-15.32-3.83-30.87-10.84-45.61-17.32-44-20.65-88.34-41.29-129.59-67.21-34.89-22-67.67-47.3-102.58-69.24,4-1.24,8-3.37,12-4.32q21.32-7,42.75-13.56c54.57-14.06,105.33-38.91,151.82-70.48,6.11,2.43,12.92,4.27,16.33,6.19a112.4,112.4,0,0,1-12.57,9.51c-23.07,14.5-47.55,26.58-71.11,40.23-4.16,2.42-8.34,4.76-12.67,6.85-2,1-4,1.91-5.23,4-1.92,3-.56,6.55,0,9.75a48.16,48.16,0,0,1-.42,19.68c-.19,7.62-9,14.44-4.56,21.89a5,5,0,0,0,.78.69,6.52,6.52,0,0,0,1.22,5.26c1.33,2.41,3.74,3.78,6.06,5.1,8,4.84,16.1,9.44,24.28,13.94,33.67,19.23,68.63,36.08,104,52,22.15,8.43,11.1-49.55,56.59-28.08,9.67,3.37,13.53,18.73,25.15,16.23,8.42-3.09,15.22-9.4,22.65-14.25,7.25-5,14.69-9.66,22-14.5,17.88-11,33.63-24.74,49.9-37.93A6.22,6.22,0,0,0,462.76,412.16Z"/><path class="cls-2" d="M584,361.68c4.3,30.8,2.11,62.66-4.52,93-1.86,11.32-8.88,19.78-18,26.32-15.91,13-30.93,27-46.75,40.15-5.27,4.21-10.55,8.45-16.09,12.29,1.05-9.26-.3-21.2.21-26.15-1.37-24-3-49.34-10.09-72.74,7,1.22,14.46-9.2,19.48-13.34A1005.63,1005.63,0,0,0,580,343.77C581.7,348.14,582.93,353.85,584,361.68Z"/><path class="cls-2" d="M711.86,192.43c3.72,6.75,8.34,13.26,10.37,20.76-28.42,32.15-58.11,63.34-88.65,93.52q-14.76,15-28.86,30.49c-2.31,3.22-6.85,6.93-9.87,11-.59-2.47-1.26-4.91-2-7.35a29.42,29.42,0,0,0-2.22-6.56c3.45-2.68,5.93-8.31,8.44-11.47,4.54-6.68,9.14-13.31,13.67-20,16.28-24.1,32.31-49,40.52-77.27a342.55,342.55,0,0,0,11.66-59,7.1,7.1,0,0,0,2.94,1.17c9.07,1.49,17.8,4.33,26.43,7.44h0C705.85,178.15,706.09,183.18,711.86,192.43Z"/><path class="cls-2" d="M652.7,106.68a296.12,296.12,0,0,1-1,56.09c-3.47,38.68-13.59,77.32-35.29,109.91-10.71,17.27-22.78,34.32-34.3,51.2-5.74-4.62-13-7.77-20.27-10.78,6.41-2.17,10.46-13.83,14.13-18.71,7.36-12.61,13.88-25.71,20.4-38.77,10.11-21.73,21.46-44.05,21.76-68.53-.67-14.41-19.62,0-35.7-35.81-10.56-24.6,8.59-30.58-9.72-41.65-10.52-6.7-22.35-11.06-34.18-14.84-23.64-6.4-47.47-15.9-71.75-18.23-6.71,1.81-6.08,10.3-8.43,15.59a111.07,111.07,0,0,1-5.23,12.5c-4.36,7-13.74,9.52-21.47,10.61-6,.35-11.33-3.19-17.1-4-12.3,1.66-17.57,21.83-23.36,31.28-13.05,25.88-25.47,52.82-44.79,74.73a5.77,5.77,0,0,0-.42.44,127.71,127.71,0,0,0-15.83-4.14c7.89-7.13,16.05-20.86,19.95-25.17,43.33-54.87,50.27-107.15,54.48-174.7,29.45,13,60.12,21.64,91.12,30.28,35.33,11,69.53,25.33,105,35.81,12.58,4,25.19,7.92,37.79,11.88C646.64,93.63,653.22,97.41,652.7,106.68Z"/><path class="cls-2" d="M703.61,267c4.9,6.68,10.59,13.39,12.53,21.62-4.85,9.54-12.54,17.32-19.32,25.51a617.39,617.39,0,0,1-78.88,77.12,199.17,199.17,0,0,1-18.82,14.35c.69-14.86.46-29.84-1.75-44.5a11,11,0,0,0,4.34-1.33c2.89-1.72,4.67-4.69,7-7,5-5.67,10.08-11.24,15.27-16.76,24.81-26,50.54-51,75-77.36C699.47,261.68,701.68,264.84,703.61,267Z"/><path class="cls-2" d="M714.5,320.35c7.17,5.34,13.69,9.33,21,15-44.36,26.27-87.8,54.87-126.33,89.26-4.22,4-8.65,7.89-12.78,12,.5-3.79.93-7.56,1.39-11.23.11-1.23.22-2.45.31-3.68,3.81-1.53,7.74-4.91,10.82-6.65,7.25-4.85,13.66-10.39,20.42-16a627.05,627.05,0,0,0,82.84-82.44A6.66,6.66,0,0,0,714.5,320.35Z"/><path class="cls-2" d="M478.45,446.6c.28,1.29.54,2.61.78,3.94a6.54,6.54,0,0,0-3.24,1.71c-34.69,30-69.5,58.84-106.24,86.58-19.29,12.95-49.25,38.74-71.41,42.29-56.16-19.5-106.93-51.44-161.69-74.26-28-14.29-116.57-43-123.31-72.74,6.68-5.91,22.5-13.35,25.51-21.22a6.74,6.74,0,0,0,.41-2.17c26.86,17,52.07,36.53,78.79,53.78,44.23,28.71,92.07,51.15,139.75,73.45l0,0c13.75,6.18,27.8,12.2,42.27,16.63,16,6.36,31-5,43.65-13.55,15.21-10.38,30.4-20.82,45.12-31.9C417.61,486.68,447.17,465.45,478.45,446.6Z"/><path class="cls-2" d="M484.75,492.77a6.19,6.19,0,0,0-5.25,1.06c-25.34,18.36-47.56,39-73.27,57.91-32.4,24.73-66.4,47.22-99.66,70.73-8.5,5.3-19.72,7.81-27.59.16-7.05-4.78-14.21-9.4-21.5-13.8-17-9.94-35.2-17.69-52.84-26.43-46.55-22-94.48-41-139.9-65.31-16-9.34-35.33-17.15-46.35-32.69a.36.36,0,0,1,0-.09c4.19-4.12,10.94-6.62,12.31-12.82,4.7,2.91,9.39,5.53,13.63,7.93,36.67,19.32,75.64,33.77,113.19,51.22,45.3,21.53,89.18,46.6,136.67,63.16,23,8.18,106.59-62.56,128-79.09,19.33-15.8,40.1-32.78,59.42-49.62C482.88,474.28,484,483.51,484.75,492.77Z"/><path class="cls-2" d="M485.6,508.8c.07,2.81.11,5.75.09,8.78a7.47,7.47,0,0,0-1.45.8c-3.35,2.48-6.62,5-9.75,7.8-23,22.13-47.09,43.15-70.69,64.67-25.8,23.47-46.18,52.5-73.13,74.8-9.47,6.58-18.19,16.69-30.4,17.23-4.41-.75-8-4.35-11.74-6.65-9.52-6.73-18-14.78-27.93-21-7.4-4.84-15.46-8.51-22.88-13.32a609.52,609.52,0,0,0-77.66-44.27C122,579.34,80.46,569.05,43,549.32c.67-8,8.31-13.59,9.17-21.37a7.28,7.28,0,0,0-.28-2.55c12.39,6.59,23.7,11.86,28.72,14.76,54.14,27,110.68,48.7,164.29,76.77,6,3.3,11.71,7,17.49,10.69,8.26,4.69,15.38,12.7,25.37,13.13,23.59,1.5,40.69-19.35,59.51-30.54,17.42-12,34.87-23.86,51.8-36.48,23.49-17.09,45.94-35.43,68.35-53.89q8.94-7.11,18.1-13.9C485.55,506.9,485.58,507.85,485.6,508.8Z"/></g></g></svg>