<svg xmlns="http://www.w3.org/2000/svg" viewBox="0 0 569.89 660.59"><defs><style>.cls-1{fill:#fa6732;}.cls-2{fill:#f7c8b9;}</style></defs><g id="Layer_2" data-name="Layer 2"><g id="Layer_1-2" data-name="Layer 1"><path class="cls-1" d="M165.82,560.82C136.09,563.28,106.7,568.69,77,571c-.36,9.94-1,19.84-2,29.66,6.24,17.61,22.54,29.16,38.28,37.86,15.08,5.75,31.53,6.27,47.46,7.51a470,470,0,0,0,70.2-.23c55.31-3.73,110.67-7.82,166.13-7.08,11.77-.63,23.63-.11,35.44.41,25.35,1.11,50.52,2.22,74.38-7.94,38.21-15.61,40.64-85.43,44.81-121.15,12.89-106.65-4.45-213.21-7.32-319.83-.38-11.19.78-21.86-.14-32.72-6.85-17.72-21.76-30.72-33.83-44.91-22.82-24.76-45.73-49.51-69.36-73.33-6-5.39-10.88-12.47-17.85-16.64C407.37,17,389.93,18,373.32,16.33c-43.18-2.44-86.41-4.82-129.52,0-43.28,5.33-106.3-3.17-143.61,17.45C57.91,77,71.93,154.72,78.7,209.2,86,265.52,86.86,322,85,378.5c13.93.67,27.68,1.72,40,1.29,5.94.13,11.88.3,17.83.44,1,.06,2.11.06,3.21.06,4.36,0,8.93,0,11.87,3.65,27.66.95,55.1.17,82.56-.61,18.69-.53,37.4-1.07,56.2-1.05q30.24-.45,60.45-1.56c10.11-.51,20.52-.41,30.24,2.71,7.8,3.76,15.34,10.16,17.93,18.47,2.75,14.21,3,28.82,4.85,43.18,1.8,25,7.53,50.3,3.34,75.29-1.69,11-3.69,24.78-13.8,31.2-12.07,4.82-25.25,4.67-38.3,4.51-5.53-.07-11-.14-16.42.18q-16.68,0-33.37,0C263,556.22,214.36,556.66,165.82,560.82ZM74.43,625.54A66.77,66.77,0,0,1,61.14,601c-.92-5.64-5.64-19.3-5.46-29-1.77,0-3.54,0-5.31,0-12.71-.34-26.69-1.49-36.62-10.31-5.79-6.34-5-24.26-7.07-33.23C3.49,503.4.49,479,0,453.73c.58-21.37-2.77-52,16.9-65.6,15.57-8.89,35-10.47,54.89-10.1q.85-18.76,1.36-37.54c.13-44-3.35-87.92-7.89-131.63-7.77-59.41-21-143.81,29.39-187.81C123.34,6.52,156.58,7,188,5.71q38.59-1.29,77.09-4.4c26.53-2.42,53.12-1,79.67.3,23.63,2.69,75.83-1.35,92,14.49,21.32,21,41.86,42.59,62.19,64.48,17.88,22.09,62.41,57.15,58.93,86.23-.83,112.92,21,225.59,7.66,338.51-5,44.15-6.49,119.48-54.4,138.51-17.35,7.43-36.24,10.11-54.95,8.95-24.07-.57-48.14-.89-72.22-.74-64.84-.93-129.36,7.6-194.12,8.55C145.61,658.72,106.25,661.81,74.43,625.54Z"/><path class="cls-1" d="M10.31,394.28h0a31.71,31.71,0,0,1,4.45-4.53c.12-.1.24-.2.37-.29.57-.46,1.16-.9,1.77-1.33l1-.56q.75-.42,1.53-.81l.85-.43.48-.22c.37-.19.76-.36,1.13-.53h0l27.73-1.06q31.08-1.18,62.16-2.37c20.73-.76,41.47-1.59,62.21-2.36s41.46-1.56,62.19-2.37q30.81-1.2,61.61-2.35l60.36-2.29,24-.92a96.4,96.4,0,0,1,11.18,12.91q-16.76.66-33.51,1.26c-20.08.72-40.14,1.53-60.22,2.29l-61.42,2.34L175.71,393l-62.13,2.36-61.85,2.36L20.13,399l-13.23.5A35.53,35.53,0,0,1,10.31,394.28Z"/><path class="cls-1" d="M20.25,566.27l-.53-.28-.47-.27a33.11,33.11,0,0,1-3.59-2.36h0c-.65-.49-1.28-1-1.9-1.56-1.75-1.91-2.89-4.87-3.7-8.32l1.68,0,31-.59,64.64-1.23q31.63-.58,63.27-1.19c21.24-.42,42.49-.78,63.73-1.21S276.8,548.4,298,548c20.85-.38,41.69-.71,62.54-1.18,16.73-.39,33.47-.66,50.2-1a101.85,101.85,0,0,1-3.84,13.38L378,559.8q-31.14.62-62.27,1.18c-21.27.39-42.54.87-63.81,1.21-20.89.34-41.78.78-62.66,1.19q-32.17.63-64.35,1.22-31.93.63-63.86,1.21l-40.18.77Z"/><path class="cls-1" d="M393.24,557.73a120.35,120.35,0,0,0,6.92-28.89c2.29-23.83,4.53-47.76,1.88-71.66-1.79-23.69-6-48.81-21.69-67.56a118.07,118.07,0,0,0-17.9-17l19.79-.76c27.13,26.24,32.51,61.41,34.06,99.14,1.06,14.18-.2,28.39-1.46,42.52-1,15.11-2.74,31.68-7.93,45.74l-14.4.27C392.76,558.92,393,558.33,393.24,557.73Z"/><path class="cls-1" d="M20.84,566.58a34.07,34.07,0,0,1-5.18-3.22c-1.32-4.14-2.45-7.88-3.38-10.29-5-15.42-8.93-31.24-10.46-47.42C-1,476.05,2.49,446.33,6.67,417c1.35-7.51,2.4-15.14,3.64-22.74a31.24,31.24,0,0,1,6.59-6.15c1.64-.93,3.32-1.79,5-2.56,1.32-.61,2.67-1.17,4-1.68-6.62,33.92-11.89,68.34-11.88,102.89a198.24,198.24,0,0,0,9.7,58.55c2.28,7.36,4.57,14.57,7.32,21.75a29.63,29.63,0,0,0,1.27,3.34A45.6,45.6,0,0,1,20.84,566.58Z"/><path class="cls-1" d="M379.89,143.37,352,143c-18.85-.29-37.69-.53-56.53-.84-19.64-.33-39.28-.58-58.93-.87l-59-.87c-6.06-.1-12.13-.17-18.19-.27-3.1-.06-6.19-.09-9.29-.14a10.49,10.49,0,0,1-6.44-2.34c-1.56-1.31-2.95-3.24-2.41-5.37.77-3.06,4.44-5.13,7.35-5.5a29.4,29.4,0,0,1,4.09-.08l4,.06,15.13.22,30.11.45q29.31.45,58.64.86,29.14.45,58.28.87,27.82.38,55.64.82l7.42.11a55.18,55.18,0,0,1,7.48.5,50.22,50.22,0,0,1,9,2.23,49.48,49.48,0,0,1,6.79,2.89l.1.06c.84.42,1.65.89,2.46,1.36,0,0,0,0,0,0-.59.33-1.19.64-1.68.88l-.31.16-.47.23-.15.08q-2.58,1.2-5.26,2.15a56.12,56.12,0,0,1-5.83,1.66,47.61,47.61,0,0,1-6.6,1c-1.23.09-2.44.12-3.66.12S381.16,143.39,379.89,143.37Z"/><path class="cls-1" d="M447.36,186.38l-15.06-.1q-30.85-.18-61.71-.4l-61.88-.4-61.76-.4q-31.53-.22-63.07-.41c-6.8,0-13.6-.08-20.4-.14l-9.84-.06a10.65,10.65,0,0,1-6.65-2.36c-1.54-1.27-2.87-3.19-2.37-5.27.68-2.84,3.82-4.74,6.45-5.39a19.21,19.21,0,0,1,4.73-.29l4.09,0,15.89.1c10.55.09,21.09.14,31.65.21q31.27.22,62.55.41,30.91.22,61.84.4t61.82.4q15.41.12,30.81.21l14.95.09,7.62.05c2.78,0,5.56,0,8.33.25a49.36,49.36,0,0,1,19.18,6.1.52.52,0,0,1,.24.25l.4.24s0,0,0,0l-.42.22a.52.52,0,0,1-.22.25,13,13,0,0,1-1.39.72c-.84.42-1.69.81-2.55,1.18a51.09,51.09,0,0,1-7.85,2.66,48.9,48.9,0,0,1-7.1,1.27c-1.64.16-3.29.2-4.94.2Z"/><path class="cls-1" d="M454.41,230.64c-4.37,0-8.73-.07-13.1-.09-9.84,0-19.67-.12-29.51-.19q-30.27-.23-60.53-.4-31.29-.18-62.59-.4-31.08-.23-62.17-.41c-20.92-.14-41.84-.32-62.75-.41l-10.61-.07a11.24,11.24,0,0,1-6.87-2.24c-1.62-1.23-3.06-3.33-2.49-5.45.76-2.83,3.81-4.67,6.48-5.34a17.4,17.4,0,0,1,4.5-.28l3.94,0c5.28,0,10.56.06,15.84.11q15.8.12,31.59.2,31.14.17,62.28.4,31.49.24,63,.42c20.48.09,41,.27,61.45.4,19.08.11,38.16.28,57.25.37,3,0,6,0,9,.21a45.32,45.32,0,0,1,5.56.89,47.92,47.92,0,0,1,6.19,1.76,49.81,49.81,0,0,1,6.41,2.74c.78.39,1.54.81,2.3,1.24a0,0,0,0,1,0,0c-.76.43-1.53.84-2.27,1.19a51.34,51.34,0,0,1-12.53,4.32,49.75,49.75,0,0,1-10,1Z"/><path class="cls-1" d="M154.09,278.59a10.67,10.67,0,0,1-5.77-2.87,5,5,0,0,1-1.68-4.09c.57-3.18,3.78-5.21,6.67-5.95a19.25,19.25,0,0,1,4.61-.33l3.84-.06,15.42-.23q16-.26,32-.5,31.23-.49,62.47-.95t62.43-1l61.65-.95,29.87-.45L440,261l7.84-.12c2.31,0,4.63-.15,6.93-.05a50.07,50.07,0,0,1,21,5.86h0a.43.43,0,0,1,.26.35.39.39,0,0,1-.22.46c-.95.52-1.89,1-2.62,1.39a52.39,52.39,0,0,1-15.63,4.85,59.4,59.4,0,0,1-7.66.42l-7.44.11c-5,.09-9.95.15-14.92.23q-30.22.51-60.44.93l-61.7.94-62.83,1-63,1c-5.56.09-11.11.16-16.67.26-1.45,0-2.91,0-4.36.06-.81,0-1.64.06-2.47.06A13.62,13.62,0,0,1,154.09,278.59Z"/><path class="cls-1" d="M149.64,318.54c-3.07-.71-6.88-3.74-6.09-7.25a6.26,6.26,0,0,1,1.9-3,10.23,10.23,0,0,1,4.72-2.46,16.72,16.72,0,0,1,3.94-.28h4.8l15.2,0q15.75,0,31.51-.06,31.13,0,62.24-.13c20.46-.07,40.93-.06,61.4-.12q28.68-.08,57.36-.11,27.25-.06,54.52-.11l6.95,0c2.49,0,5-.1,7.48,0a49.25,49.25,0,0,1,13.77,2.76,53.22,53.22,0,0,1,6.69,2.87c.34.17.68.35,1,.51a2.8,2.8,0,0,1,.3.15h0a.32.32,0,0,1,.17.26.29.29,0,0,1-.16.31,48.23,48.23,0,0,1-7.82,3.53A51.93,51.93,0,0,1,459,318a70.31,70.31,0,0,1-9.63.37l-2.78,0q-26.54.07-53.06.11c-19.06,0-38.12.11-57.18.11-20.33,0-40.65.08-61,.13q-31.14.06-62.29.12l-31.14.06-15.68,0h-7.82c-1.29,0-2.62.06-3.94.06A22.22,22.22,0,0,1,149.64,318.54Z"/><path class="cls-2" d="M148.54,126.76c-2.92.37-6.58,2.44-7.35,5.5-.54,2.13.85,4.06,2.4,5.37A10.45,10.45,0,0,0,150,140c3.09.05,6.19.08,9.29.14,6.06.1,12.13.17,18.19.27q29.52.47,59,.87t58.92.87c18.85.32,37.69.55,56.53.84l27.91.41c1.27,0,2.53,0,3.79,0s2.43,0,3.66-.12a47.84,47.84,0,0,0,6.6-1,54.41,54.41,0,0,0,5.83-1.66q2.69-.94,5.26-2.15l.15-.08.47-.23L406,138c.49-.23,1.09-.55,1.68-.88,0,0,0,0,0,0-.81-.47-1.62-.94-2.46-1.36l-.1-.06a49.48,49.48,0,0,0-6.79-2.89,50.44,50.44,0,0,0-9-2.23,55.22,55.22,0,0,0-7.49-.5l-7.41-.11q-27.82-.41-55.64-.82-29.15-.4-58.28-.86l-58.65-.87-30.1-.45-15.13-.22-4-.06c-.66,0-1.33,0-2,0A16.11,16.11,0,0,0,148.54,126.76Zm2.53,44.69c-2.63.65-5.77,2.55-6.45,5.39-.5,2.08.83,4,2.37,5.27a10.57,10.57,0,0,0,6.65,2.36l9.84.07,20.4.13q31.53.22,63.07.41l61.76.4,61.88.4,61.71.41,15.06.09,3.34,0c1.65,0,3.29,0,4.94-.2a48.53,48.53,0,0,0,7.09-1.27,50.84,50.84,0,0,0,7.86-2.66c.86-.37,1.71-.76,2.55-1.18a12.19,12.19,0,0,0,1.39-.72.58.58,0,0,0,.22-.25c.14-.07.28-.14.41-.22s0,0,0,0l-.39-.24a.57.57,0,0,0-.24-.25,49.36,49.36,0,0,0-19.19-6.1c-2.76-.27-5.54-.23-8.32-.25l-7.62,0-14.95-.1-30.81-.2q-30.9-.22-61.82-.41T270,171.9q-31.29-.22-62.56-.41-15.82-.11-31.65-.2l-15.88-.1-4.09,0-1.53,0A13.31,13.31,0,0,0,151.07,171.45Zm-.8,44.19c-2.67.67-5.72,2.51-6.48,5.34-.57,2.12.87,4.22,2.49,5.45a11.24,11.24,0,0,0,6.87,2.24c3.53,0,7.07.06,10.61.07,20.91.09,41.83.27,62.75.41q31.08.21,62.17.41,31.29.21,62.59.4,30.27.18,60.53.4c9.84.07,19.67.15,29.51.19,4.37,0,8.73.07,13.1.09h.26a49.75,49.75,0,0,0,10-1,51.71,51.71,0,0,0,12.53-4.31c.74-.36,1.51-.77,2.27-1.2a0,0,0,0,0,0,0c-.76-.43-1.52-.85-2.3-1.24a49.81,49.81,0,0,0-6.41-2.74,48.38,48.38,0,0,0-6.19-1.76,45.32,45.32,0,0,0-5.56-.89c-3-.25-6-.19-9-.21-19.09-.09-38.17-.25-57.25-.37-20.49-.13-41-.31-61.45-.4q-31.49-.15-63-.41-31.14-.22-62.28-.41-15.79-.09-31.59-.2c-5.28-.05-10.56-.07-15.84-.11l-3.94,0-1.45,0A12.48,12.48,0,0,0,150.27,215.64Zm297.55,45.27L440,261l-14.42.22-29.87.46-61.65.94q-31.21.48-62.43,1t-62.47.95q-16,.27-32,.5l-15.42.23-3.84.06a19.25,19.25,0,0,0-4.61.33c-2.89.74-6.1,2.78-6.67,5.95a5,5,0,0,0,1.68,4.09,10.69,10.69,0,0,0,5.77,2.88,15.11,15.11,0,0,0,2,.12c.83,0,1.65,0,2.47-.05l4.36-.07c5.56-.1,11.11-.17,16.67-.25l63-1,62.83-1,61.7-.95q30.22-.47,60.44-.92c5-.09,9.95-.15,14.92-.24l7.44-.11a59.4,59.4,0,0,0,7.66-.42,52.39,52.39,0,0,0,15.63-4.85c.73-.36,1.67-.87,2.62-1.39a.38.38,0,0,0,.21-.46.42.42,0,0,0-.25-.35h0a50,50,0,0,0-21-5.86c-.7,0-1.4-.05-2.11-.05C451,260.82,449.43,260.88,447.82,260.91Zm-297.65,45a10.23,10.23,0,0,0-4.72,2.46,6.24,6.24,0,0,0-1.9,3c-.79,3.5,3,6.53,6.09,7.24a21.61,21.61,0,0,0,4.83.44c1.32,0,2.64-.06,3.94-.06h7.82q7.85,0,15.68,0c10.38,0,20.77-.06,31.14-.07q31.15,0,62.29-.12c20.32-.05,40.64-.13,61-.13,19.06,0,38.12-.07,57.18-.11l53.06-.1c.92,0,1.84,0,2.77,0A68.7,68.7,0,0,0,459,318a51.2,51.2,0,0,0,10.51-2.56,48.62,48.62,0,0,0,7.82-3.53.3.3,0,0,0,.16-.31.34.34,0,0,0-.17-.26l-.29-.15-1-.51a54.73,54.73,0,0,0-6.69-2.87A49.32,49.32,0,0,0,455.57,305c-2.49-.12-5,0-7.48,0l-7,0-54.51.11q-28.68,0-57.36.11c-20.47.06-40.94.06-61.4.13q-31.12.11-62.24.12-15.75,0-31.51.06l-15.2,0h-5.53A13.81,13.81,0,0,0,150.17,305.88Zm10.62,340.17c-15.93-1.25-32.38-1.77-47.46-7.52-15.74-8.7-32-20.25-38.28-37.86,1-9.82,1.63-19.72,2-29.66,18.72-1.46,37.33-4.16,56-6.57l56.2-1.06c20.88-.41,41.77-.85,62.66-1.19,21.27-.34,42.54-.82,63.81-1.21q31.13-.57,62.27-1.18l14.54-.28,14.4-.27c.16-.45.33-.91.49-1.37.11-.31.21-.62.32-.94l.18-.56c.1-.29.2-.58.29-.87s.12-.37.17-.55c.11-.33.2-.65.3-1s.11-.35.16-.53.19-.64.27-1c.18-.6.34-1.21.5-1.82.12-.45.24-.91.35-1.36s.28-1.14.42-1.71l.36-1.6,0-.13c2.32-10.6,3.37-21.84,4.09-32.36,1.26-14.13,2.52-28.34,1.46-42.52-.88-21.44-3-42.07-9.65-60.69-.38-2.81-.82-5.61-1.36-8.4a27.59,27.59,0,0,0-8.76-12.53c-1.13-1.79-2.32-3.54-3.59-5.26-.25-.35-.5-.69-.76-1l-.63-.83q-.68-.87-1.38-1.74l-.58-.71-.4-.48-.43-.51c-.87-1-1.77-2.05-2.71-3.05-.24-.27-.48-.53-.73-.79-.5-.53-1-1.05-1.52-1.57l-.66-.66-.9-.89-19.79.76-4.25.16-60.36,2.29q-30.81,1.2-61.61,2.35-31.09,1.21-62.19,2.37-11.08.41-22.18.84c-2.92-.51-6.14-.23-9-.39-6-.14-11.89-.31-17.83-.44-12.35.43-26.1-.62-40-1.29C86.86,322,86,265.52,78.7,209.2,71.93,154.72,57.91,77,100.19,33.74,137.5,13.12,200.52,21.62,243.8,16.29c43.11-4.78,86.34-2.4,129.52,0,16.61,1.64,34.05.68,49.93,6.29,7,4.17,11.82,11.25,17.85,16.64,23.63,23.82,46.54,48.57,69.36,73.33,12.07,14.19,27,27.19,33.83,44.91.92,10.86-.24,21.53.14,32.72,2.87,106.62,20.21,213.18,7.32,319.83-4.17,35.72-6.6,105.54-44.81,121.15-23.86,10.16-49,9-74.38,7.94-11.81-.52-23.67-1-35.44-.41C341.66,638,286.3,642.08,231,645.81c-12.48.93-25,1.43-37.47,1.43Q177.16,647.24,160.79,646.05Z"/><path class="cls-2" d="M59.13,540.76c-1-31.66-4.08-63.23-7-94.75-.11-5.94-2.07-12.19-.29-18,4.06-9.64,12.82-3.22,12.6,4.85,2.87,36.13,7,71.67,8,107.77a6.66,6.66,0,0,1-13.32.1Z"/><path class="cls-2" d="M74.83,493.94c-2.7-.17-5.39-.45-8.06-.81-8.64-1.35-7-14.12,1.7-13.21a78,78,0,0,0,17.21.62c21.71-1,58.28-24.24,40.56-48.6C116.19,418.19,96.77,413.25,81,419a30.65,30.65,0,0,0-13.11,9.22c-4.3,4.07-11.31,4.28-11.44-3.07.24-8.09,8.82-13,15.11-16.56,14.73-7.31,32.88-6.95,47.49.47,16.24,7.8,29.47,26.37,24.26,44.83-8.29,25.15-37.22,40.29-63,40.29C78.42,494.17,76.61,494.09,74.83,493.94Z"/><path class="cls-2" d="M166.41,470.36a.66.66,0,0,0,0-.14c0,.08,0,.16,0,.24S166.41,470.39,166.41,470.36Z"/><path class="cls-2" d="M170.89,534.86C169,514,168.09,492.75,166.53,472a.62.62,0,0,0,0,.13s0,.09.05.75c0-.36-.05-.72-.07-1.07l-.09-1.26s0-.06,0-.09h0a2.28,2.28,0,0,0,0-.26h0q-.93-13-2.42-25.86c-.14-6.6-3.32-13.41-1.47-19.86,1.88-5.73,7.44-5.8,10.72-1.08,3.35,5.78,2.8,13,4,19.47,3.51,30.41,4.18,60.32,6.87,90.11a6.55,6.55,0,0,1-6.73,7.5A6.36,6.36,0,0,1,170.89,534.86Z"/><path class="cls-2" d="M179.7,537.32c.42-7.23,6.3-6.13,11.37-7.66,7.54-2.87,14.17-7.69,20.21-13,7.56-7,15.51-14.18,20.19-23.54,10.47-21.45,6.42-50.45-14.62-63.9-8.94-6.07-20.17-9.26-30.93-7.33-3.44.59-6.39,2.6-9.81,3.19-8.51,1.43-9.88-7-4.18-11.77,27.63-15.64,64.93,4.8,74.7,33.16,10,27.76-.35,58.1-22.66,76.6-4.54,5.28-25.19,20.94-36.68,20.94C183.31,544.05,180.43,542.17,179.7,537.32Z"/><path class="cls-2" d="M294.64,536c-.55-35.15-1.64-70.39-6.69-105-4.5-15.28,10.63-19.2,12.95-3.23,5.41,35.73,6.45,72.07,7.06,108.15a6.66,6.66,0,0,1-13.32.09Z"/><path class="cls-2" d="M296.53,422.78c-6.32-3.16-2-10.24,3.27-11.55,7.74-1.48,15.65-2.28,23.45-3.47,13.7-1.82,27.38-3.94,41.15-5.19,5.71-.92,9.9,6.16,6.2,10.67a6.49,6.49,0,0,1-4.34,2.53c-8,.6-16,1.82-24,2.85-9.85,1.28-19.69,2.69-29.53,4.09-3.48.25-7.15,1.41-10.68,1.41A11,11,0,0,1,296.53,422.78Z"/><path class="cls-2" d="M303,461.06c16.53-3.3,33.38-5.44,50.11-7.69,4.3-.07,9.28-2.24,13.1.48,4.59,3.3,2.55,11.34-3.14,11.88-7.25.71-14.45,1.61-21.66,2.65-12.45,1.45-24.83,4.39-37.3,5.34C295.17,472.55,295,464.17,303,461.06Z"/></g></g></svg>