<svg xmlns="http://www.w3.org/2000/svg" viewBox="0 0 823.55 828.71"><defs><style>.cls-1{fill:#fa6732;}.cls-2{fill:#f7c8b9;}</style></defs><g id="Layer_2" data-name="Layer 2"><g id="Layer_1-2" data-name="Layer 1"><path class="cls-1" d="M147.56,823.3l-1.28-.88h0l-1.28-.87-.17-.11a35.21,35.21,0,0,1,4.31-6.57q1.59-2.22,3.21-4.41h0l.09-.13c1-1.35,2-2.7,3-4l2-2.72.24-.33,1.45-1.91q3.41-4.47,6.84-8.92l1.72-2.22,1.72-2.22q2.6-3.32,5.18-6.65c.58-.73,1.15-1.47,1.73-2.21q20.88-26.26,41.5-52.72l24.81-31.7.55-.75c.37-.5.76-1,1.15-1.49l.59-.73c.54-.65,1.09-1.3,1.66-1.94l.5-.55.24-.26.25-.26c.16-.17.32-.33.47-.5l0,0h0l.34-.35.16-.17.17-.16.27-.27.07-.07.25-.24.28-.27.38-.36.68-.63s.11-.09.16-.15l.19-.16.36-.32.35-.3.43-.37,1-.78.46-.37.14-.1.24-.19.06,0,.26-.2.49-.37.35-.25.25-.18.33-.23.72-.49.44-.3.65-.42.44-.27.11-.07.13-.08.27-.16.42-.25.16-.09.16-.09a1,1,0,0,1,.17-.1l.7-.39.32-.17c.28-.16.56-.3.84-.44l.28-.15.3-.14L262,678l.56-.27c.45-.22.91-.42,1.37-.61l.12-.05h.05l.07,0,.19-.07.65-.26c.29-.12.57-.23.86-.33-.06.34-.12.68-.19,1s-.2,1-.31,1.44c0,.21-.09.42-.14.62s-.06.3-.1.45-.09.38-.14.57-.13.54-.21.81-.13.48-.19.73-.11.36-.16.54-.11.4-.18.61c-.14.48-.29,1-.45,1.45-.07.22-.15.43-.22.65-.19.54-.39,1.09-.59,1.62h0l-.3.78c-.1.26-.21.52-.32.78s-.21.51-.33.77a45.38,45.38,0,0,1-6,10.15c-18.82,23.63-37,47.75-56,71.27-12.3,15.65-24.74,31.22-36.57,47.24l-1.35,1.84c-2,2.49-4.12,6.31-6.72,9C152.73,826.93,150.14,825.1,147.56,823.3Z"/><path class="cls-1" d="M147.56,823.3,145,821.55l-.17-.11c-5.9-4-11.92-7.79-18-11.49-2.06-1.25-4.12-2.48-6.19-3.71l-2.57-1.52L115.14,803q.47-.54.87-1.08c.74-.72,1.48-1.44,2.21-2.17l1.55-1.53,1.35-1.35c1.23-1.22,2.45-2.46,3.66-3.7q5.86,3.45,11.65,7h0l2,1.25,2.37,1.49,1.63,1,2,1.28q4,2.55,7.91,5.19h0c2.12,1.42,4.23,2.85,6.33,4.31,1.59,1,3.19,2,4.76,3.07l-1.35,1.84c-2,2.49-4.12,6.32-6.72,9C152.73,826.93,150.14,825.1,147.56,823.3Z"/><path class="cls-1" d="M120.64,806.24l-2.57-1.52L115.14,803q.47-.54.87-1.08c.74-.72,1.48-1.44,2.21-2.17l1.55-1.53,1.35-1.35c1.23-1.22,2.45-2.46,3.66-3.7,15-15.3,29-31.52,42.55-48,12.31-14.57,24.86-29,36.39-44.15,2.76-3.86,5.53-7.86,8.58-11.58,4.56-5.56,9.73-10.49,16.36-13.38h3.58c-.2.9-.42,1.78-.67,2.65-.08.3-.16.59-.25.88s-.17.58-.26.87l-.33,1-.06.19-.18.52c-.1.29-.2.57-.31.85a.58.58,0,0,1-.05.14c0,.1-.07.19-.1.28s-.08.19-.11.29l-.2.51c-.17.43-.34.86-.52,1.29s-.42,1-.63,1.46c-.12.26-.24.53-.37.8s-.25.53-.38.79-.25.54-.39.8c-.47,1-1,1.94-1.5,2.9l-.68,1.2a.73.73,0,0,1-.05.09q-1,1.75-2.1,3.48c-.25.39-.5.78-.76,1.17s-.51.77-.77,1.16c-.74,1.11-1.5,2.2-2.28,3.29s-1.79,2.45-2.71,3.66l-.76,1-.35.46-1.38,1.76q-1.84,2.34-3.74,4.67l-.65.81c-.74.91-1.47,1.82-2.21,2.72L206.41,719l-1.75,2.19c-.19.24-.38.47-.56.71-.57.71-1.12,1.41-1.66,2.12-.19.23-.37.47-.55.71l-4.8,5.77-2.4,2.88q-3.62,4.32-7.25,8.61l-4.85,5.74c-1.62,1.91-3.24,3.81-4.85,5.72q-7.26,8.61-14.47,17.25c-1,1.2-2.06,2.4-3.09,3.59l-.36.41q-1.53,1.77-3.09,3.53l0,.06c-.93,1-1.85,2.09-2.78,3.12-.36.41-.72.81-1.09,1.21-.66.75-1.34,1.49-2,2.23L149.76,786c-1,1.12-2,2.22-3,3.33q-3.39,3.66-6.82,7.27-1.72,1.8-3.46,3.59h0q-4.75,4.92-9.61,9.74C124.77,808.7,122.71,807.47,120.64,806.24Z"/><path class="cls-1" d="M45.25,676.82H46l12.55-.07h0l12.29,0h2.78l5.28,0h7.29l6.29,0c13.62-.06,27.24-.13,40-.17l7.26,0H142l3,0,6.76,0h.84c24.16-.11,48.33-.24,71.59-.31l4.45,0h3.58c-.19.9-.42,1.78-.66,2.65-.08.3-.16.59-.25.88s-.11.38-.17.57l-.09.3-.33,1a1.07,1.07,0,0,1-.07.19,5.34,5.34,0,0,1-.18.52c0,.14-.09.29-.14.43l-.16.42s0,.1-.05.14-.07.19-.11.28-.07.19-.11.28-.12.34-.19.52c-.17.43-.34.86-.52,1.29s-.42,1-.64,1.46c-.11.26-.24.53-.36.8s-.25.53-.38.79-.25.54-.39.8h-3.49l-11.65.06q-30.37.15-60.75.26l-6.92,0h-5.89l-5.62,0L92,689.91l-5.93,0h-.27l-26.84.12-6.66,0-6.66,0Q45.43,683.46,45.25,676.82Z"/><path class="cls-1" d="M247.36,689l.25-.26c.16-.17.32-.33.47-.5l0,0,.34-.35.16-.17.17-.16.27-.27.07-.07.25-.24.28-.27.38-.36.68-.63s.11-.09.16-.15l.19-.16.36-.32.35-.3.43-.37,1-.78.46-.37.14-.1.24-.19.06,0,.26-.2.49-.37.35-.25.25-.18.33-.23.72-.49.44-.3.65-.42.44-.27.11-.07.13-.08.27-.16.42-.25.32-.18a1,1,0,0,1,.17-.1l.7-.39.32-.17c.28-.16.56-.3.84-.44l.28-.15.3-.14L262,678l.56-.27c.45-.22.91-.42,1.37-.61l.12-.05h.05l.26-.11.65-.26c.29-.12.57-.23.86-.33-.06.34-.12.68-.19,1s-.2,1-.31,1.44c0,.21-.09.42-.14.62s-.06.3-.1.45-.09.38-.14.57-.13.54-.21.81-.13.48-.19.73-.11.36-.16.54-.11.4-.18.61c-.14.48-.29,1-.45,1.45-.07.21-.15.43-.22.65-.19.54-.39,1.09-.59,1.62h0l-.3.78c-.1.26-.21.52-.32.78s-.21.51-.33.77l-11.4,0h-3.52Z"/><path class="cls-1" d="M542.85,675.22c-.16-.19-.3-.38-.44-.58h.35l3.87,0h3.93l8.73,0q5.33,6.63,10.67,13.25l-17,.07Z"/><path class="cls-1" d="M586.6,686.09l-.6-.78-.68-.88-2.22-2.88-1.62-2.1L580.37,678l-2.73-3.53h2l3.47,0h4.07l7,0h.46l8,0c.71,0,1.41,0,2.11,0h2.71a3.34,3.34,0,0,1,.65,0h.75l3.37,0H625c30.26-.13,60.51-.3,89.86-.4h10.63c.64,0,1.27,0,1.9,0h1.36l6,0H744c.48,0,1,0,1.45,0h2.45l9.66,0h1.38l9.63,0h7c1.34,0,2.68,0,4,0a46.45,46.45,0,0,1,4.71.52l1.26.22c1.22.23,2.42.51,3.61.83a5.18,5.18,0,0,1,1.15.32,4.55,4.55,0,0,1,2.58,2.29,4.91,4.91,0,0,1,.33.74,4.79,4.79,0,0,1,.26,1.6,4.85,4.85,0,0,1-.25,1.69,5.07,5.07,0,0,1-.55,1.12,4.44,4.44,0,0,1-2.54,2c-1.5.43-3,.81-4.52,1.12-.52.1-1,.2-1.57.28a50.45,50.45,0,0,1-7.95.57h-.58l-3.22,0h-3.84l-9.76,0h-1.63L748,687h-3.46a3.43,3.43,0,0,1-.66,0h-9.64l-6,0h-.52a3.65,3.65,0,0,1-.68,0h-11.5q-45.51.2-91,.4H612.24l-3.57,0-.65,0c-.46,0-.93,0-1.41,0h-1.46l-.37,0a4.43,4.43,0,0,1-.52,0h-.85l-8.08,0-7.44,0Z"/><path class="cls-1" d="M28.09,21.88a102.81,102.81,0,0,1,13.15-6.34q.18,7.14.37,14.28a74,74,0,0,0-13.1,8.09Z"/><path class="cls-1" d="M45.25,676.82q-.34-12.62-.66-25.22-1.22-46.5-2.44-93-1.23-47.07-2.47-94.15-1.2-46.6-2.44-93.21Q36,324.37,34.79,277.52q-1.18-45.84-2.41-91.66Q31.18,139.49,30,93.13c-.06-2.15-.11-4.29-.16-6.44q-.21-7.41-.4-14.84l.81.4.67.32.75.35,0,0,1.14.51.32.13.38.17.14,0,.58.24c.48.2,1,.39,1.47.57l.29.11c.27.11.56.21.84.31l.85.3.85.28.86.27,1.18.35,0,0,.51.14.86.24.08,0,.8.2h0l.36,13.71h0c.08,3,.17,6.06.25,9.08q1.2,46,2.41,92.09l1.2,46q.61,23,1.21,46,.6,23.42,1.23,46.82t1.22,46.82q.9,35,1.83,69.88.31,11.66.61,23.3.62,23.55,1.25,47.11t1.22,47.11q1.2,46.66,2.45,93.33.22,9.32.48,18.63h0q.16,6.66.34,13.31l-6.66,0-6.66,0Q45.43,683.46,45.25,676.82Z"/><path class="cls-1" d="M769.11,22.88,769.05,11c0-.54,0-1.07,0-1.6,4.6.71,9.07,1.51,13.33,2.42q0,6.8.07,13.59C778.26,24.46,773.78,23.62,769.11,22.88Z"/><path class="cls-1" d="M779,714.46a5.74,5.74,0,0,1-3.79-2,10.55,10.55,0,0,1-2.76-6.22c-.16-1.84,0-3.74-.06-5.58l0-6.35c0-2.47,0-5,0-7.41q0-6.66-.06-13.3c0-.94,0-1.89,0-2.83q-.13-23.58-.23-47.17-.22-46.83-.45-93.66,0-12-.11-24l-.12-24q-.12-24-.23-48.07,0-11.79-.1-23.59-.15-35.4-.35-70.79-.21-35.83-.35-71.67,0-12-.1-23.89-.12-23.5-.23-47t-.23-47q-.08-15.51-.14-31l0-6.63q-.06-12.2-.11-24.39h0q0-6.63-.07-13.27l.83-.08.37,0,.46,0,2.17-.26.48-.07.14,0,1.36-.19h0l.92-.14,1.07-.17.15,0,1-.17,1.06-.2c1.07-.2,2.13-.43,3.2-.68l.11,0q0,6.81.07,13.62.07,17.55.16,35.11.21,47.3.45,94.6.24,47,.46,93.93.21,47.64.45,95.27.24,47.82.46,95.63.22,47.16.45,94.33.18,39.72.37,79.44,0,5.83.07,11.67c0,1,0,2,0,2.91q0,7.38.07,14.74a16.47,16.47,0,0,1-.1,3.22,12,12,0,0,1-1.67,4.33c-1,1.56-2.82,3.22-4.79,3.22Z"/><path class="cls-1" d="M106,16l-5,.49-2,.19h0l-1.71.17-.57.06-1.77.19-3.07.34-1,.11-2.06.25L86.9,18l-1.25.16-1.46.19-2.33.32-1.65.24-1.54.24-.27.05-1.27.2-1.53.26c-1,.17-2,.35-3,.54l-3.12.61-1.5.31-1.52.33c-1,.23-2,.46-3,.71L62,22.55l-.07,0-1.5.39c-1,.27-2,.55-3,.84l-.74.22-1.47.45c-1,.31-2,.63-2.92,1s-1.92.68-2.87,1l-.72.28L48,27l-1.41.57-.7.3-1.38.59-.7.32-.69.31-1.37.65-.68.33c-.9.45-1.79.91-2.68,1.39-.66.36-1.31.73-2,1.11l-.65.38-.65.39-.53.32c-.54.34-1.08.68-1.61,1l-.82.55c-.28.18-.55.37-.82.56l-.61.43-1.22.89-1,.77c-.46.35-.92.72-1.37,1.09s-.9.75-1.34,1.14-.64.56-1,.84l-.34.31-.44.42c-.49.45-1,.91-1.43,1.38l-.54.53c-.6.61-1.19,1.24-1.76,1.88l-.69.77-.67.79c-.27.31-.52.62-.77.94s-.37.45-.55.68-.44.55-.65.83c-3.7,5.61-4.56,9.18-2.06,12.5a7,7,0,0,0,.44.54c.15.18.32.36.5.54a25.6,25.6,0,0,0,5.26,3.85c.33.24.67.46,1,.68.65.44,1.3.86,2,1.27l.07,0c.34.21.68.42,1,.62L26,70l.45.26.81.45,1,.56c.36.19.71.38,1.07.55l.8.4.68.32.74.35.05,0,1.13.5c.47.21.94.41,1.42.6s1,.39,1.47.57l.29.11.85.31.84.3.85.28.86.27,1.18.35.55.16c.29.09.58.16.87.24l.08,0,.79.2h0l1,.25c1,.24,2,.45,3.07.64C53,79.3,59.09,80.57,65.21,81.6h0C72.1,82.76,79,83.61,86,84.22l2.32.19c1.55.13,3.09.24,4.65.34,11.19.74,22.43.92,33.67.82q5.71-.06,11.43-.2h.13q2.84-.06,5.67-.15,17.35,0,34.7-.29,6.94-.11,13.88-.26t13.87-.34h0q6.94-.18,13.87-.4l6.94-.23q10.4-.35,20.79-.76h0q10.4-.41,20.79-.87,17.32-.78,34.65-1.66,10.38-.52,20.77-1.08h0L338,78.59h0l48.47-2.65h0q24.23-1.32,48.46-2.55s0,0,0,0q10.38-.51,20.76-1l6.95-.31c47.45-2.11,94.91-3.48,142.43-3h.44q5.73,0,11.48.14,9,.14,18,.37h0l11.93.28,6,.14c21.87.52,43.73,1.07,65.6,1.45l11.93.18q10.78.18,21.58.39a35.12,35.12,0,0,0,3.57.08h1a34.3,34.3,0,0,1,6.11.24h0l.3.05A10.84,10.84,0,0,1,767.17,74l.42.3c.17.13.35.27.51.41l.85-.08.41,0,.83-.08.36,0,.46,0,.83-.1.67-.08.67-.08.48-.07.14,0,1.37-.19h0l.92-.14,1.07-.17.15,0,1-.17a.8.8,0,0,0,.15,0l.91-.17c1.07-.2,2.14-.43,3.2-.68l.11,0c.46-.1.91-.21,1.36-.33l.68-.18.67-.18.67-.19.68-.2.66-.2.41-.14c.53-.16,1.06-.34,1.57-.52l.66-.24c.49-.17,1-.36,1.47-.56s.74-.29,1.1-.45h0c.2-.08.41-.17.61-.27l.65-.29.63-.29.62-.3.64-.33.41-.21.41-.22c.33-.17.66-.36,1-.55l.6-.35c.2-.11.39-.23.59-.36s.39-.24.58-.37c.39-.24.78-.5,1.16-.77l.57-.4.55-.41.47-.35.27-.22.37-.28c.3-.27.59-.54.86-.83,6.2-6.31,6.48-16.49,6.35-24.88-.28-.31-.57-.62-.89-.93l-.21-.2-.23-.21-.05,0-.49-.42,0,0c-.17-.14-.34-.29-.53-.43s-.37-.29-.56-.43l-.59-.43-.51-.35-.21-.14a4.94,4.94,0,0,0-.42-.27l-.18-.11c-.19-.13-.38-.24-.58-.36l-.33-.2h0l-.34-.19-.7-.39c-.24-.13-.48-.26-.73-.38l-.75-.38c-1-.49-2.09-1-3.22-1.44l-.85-.34-.87-.34-.9-.33c-.3-.12-.6-.22-.91-.33l-.93-.32-.77-.25-.3-.1L792,28l-1-.3-1-.3-1-.29-1-.28h0c-2.43-.65-5-1.26-7.66-1.83-1.14-.25-2.31-.48-3.49-.71L775.61,24,772,23.35c-1.67-.28-3.37-.55-5.09-.82l-2.12-.31-2.93-.4-1.3-.18-3.94-.49L755.3,21,754,20.84q-4.5-.49-9.08-.92l-3.06-.28h0l-2.56-.21c-2.55-.21-5.11-.4-7.66-.58l-5.08-.34-5-.3-2.77-.15-4.11-.21c-4.53-.22-8.94-.41-13.16-.57l-1.25,0-.44,0-1,0L692.62,17l-1,0h-.43l-2.81-.09-1.09,0-2.08-.07c-.34,0-.67,0-1,0l-2.93-.09-1.29,0-1.76-.07-.61,0-3.21-.11-1.69-.07-.78,0c-.48,0-.93,0-1.38-.06Q632.11,15,593.65,14.44q-18.14-.28-36.29-.43c-45.49-.39-91-.26-136.48.11l-11.23.1h-.07q-21.88.19-43.76.47-29.18.35-58.34.75l-14.59.2h0L266,16h0l-18,.24-18,.23-17.85.21h-.11c-12,.09-24-.26-36-.67l-4.6-.16-4.6-.16c-10.73-.36-21.47-.69-32.2-.69C125.09,15,115.53,15.27,106,16ZM99.77,98.57h0a263.56,263.56,0,0,1-47.08-6c-.7-.16-1.4-.31-2.11-.45-1.65-.36-3.32-.7-5-1.07l-2.36-.52h0a100.65,100.65,0,0,1-13.42-3.88A52,52,0,0,1,20,81.85C9.71,76.17-2.94,67.69.61,54.14c9.53-31.3,46-42.77,75.09-48,27.06-4.34,53-5.07,80-4C258.16,5.71,360.61.1,463,0c67.54-.14,135.07,1.75,202.59,2.74,34.06,1.68,136.73.34,155.23,27.16C825.65,38.16,823,49,821,57.79c-4.87,17.24-21.22,25-38.27,28.28a119.56,119.56,0,0,1-13.3,1.77h0l-1.28.09L767,88l-1.19.07c-1.58.09-3.13.15-4.64.18-.36,0-.73,0-1.09,0h0c-2.21-.13-4.45-.24-6.67-.41l-1.34-.11c-2-.17-4-.41-6-.77l-1.31-.25h0l-1.3-.29c-1.08-.27-2.15-.57-3.21-.93-.43-.14-.85-.29-1.27-.45l-16.68-.28q-12.51-.22-25-.47t-25-.54q-13.63-.44-27.28-.72l-10.9-.21-5.48-.09q-5.45-.09-10.89-.15h0l-10.89-.11h0q-14.6-.11-29.21-.07h-.27q-18.21,0-36.43.33-37.59.58-75.17,2.12c-54.81,2.13-107.79,6.73-162,9.56q-29.53,1-59.08,1.91L233,96.7q-6,.18-12,.33-11.75.31-23.51.57t-23.78.48q-14.78.26-29.56.39-5.91.06-11.82.09-8.87,0-17.73,0Q107.18,98.61,99.77,98.57Z"/><path class="cls-1" d="M675.39,795.52h0q-.72-.71-1.44-1.44l-1.24-1.3c-.52-.56-1-1.13-1.55-1.7-.22-.26-.45-.51-.68-.77l-.67-.77-.68-.78-.66-.79-.08-.09-.58-.7c-.66-.79-1.32-1.59-2-2.4l-1.14-1.42-.8-1L662,779.92l-1.29-1.61-.64-.81-.64-.81c-.44-.53-.87-1.07-1.3-1.6-.21-.26-.42-.53-.64-.79-.66-.79-1.31-1.58-2-2.36-.44-.52-.89-1-1.33-1.54l-4.76-5.88-4.74-5.9c-9.45-11.82-18.82-23.7-28.49-35.34l-1.76-2.15-3.48-4.31c-1.16-1.43-2.31-2.88-3.46-4.32q-3.45-4.34-6.88-8.69l-6.86-8.7-5.17-6.51c-.23-.28-.45-.57-.67-.86l-1.29-1.65-.6-.78c-.22-.3-.45-.59-.68-.88l-2.22-2.88-1.62-2.1L580.37,678l-2.73-3.53h2l3.47,0h4.07l7,0a20.25,20.25,0,0,0,1.45,1.62c3,3.92,6.05,7.79,9.11,11.65s6.31,7.9,9.44,11.85q28,34.89,56.17,69.61c4.6,5.58,9.68,11.16,13.78,17.23.17.25.33.5.49.75.32.48.63,1,.93,1.45l0,.07.44.73s0,0,0,0l.43.73c.14.23.26.45.39.68l.49.89.45.87.28.56c.13.26.25.52.37.77s.28.61.42.92l.39.9c.06.14.12.29.17.43s.15.36.21.54.13.32.19.48l.3.83c.12.34.23.67.34,1l-4.62,4.8A56.89,56.89,0,0,1,675.39,795.52Z"/><path class="cls-1" d="M650.18,808.12c-15.81-20-31.89-39.79-48-59.51-20-24.25-39.67-48.82-59.29-73.39-.16-.2-.31-.39-.44-.58h.35l3.87,0h3.93l8.73,0c28.53,35.53,57.41,70.79,86.14,106.18,8.42,12.14,20.73,23.15,27.67,36.39L665,825.61C659.43,820.42,654.74,814.25,650.18,808.12Z"/><path class="cls-1" d="M664.07,824.75l-.37-.36-.72-.72c-.37-.37-.73-.74-1.09-1.12l-.86-.93c-.68-.73-1.35-1.49-2-2.25l-.89-1h0l-.89-1.06L656,815.72l9.63-10h0c1.62-1.69,3.25-3.38,4.87-5.08l4.88-5.08h0l8.78-9.15c.17.25.34.5.5.75.32.48.63,1,.93,1.45l0,.07c.15.24.3.48.44.73l0,0c.14.24.29.48.43.73l.39.68.48.89c.16.29.31.58.46.87l.28.56c.12.26.25.52.37.77s.29.61.42.92l.39.9c.06.14.11.29.17.43s.15.36.21.54.13.32.19.48l.3.83c.11.34.23.67.33,1l-4.61,4.8c-2.15,2.24-4.31,4.48-6.45,6.73l-6.34,6.61q-4.07,4.23-8.14,8.47Z"/><path class="cls-1" d="M229.77,143.64l-.68.09-1.55.21-.2,0-1.16.17-.79.13-1,.17c-.75.12-1.5.26-2.25.41l-.88.16c-1.6.32-3.2.68-4.79,1.07s-3.15.87-4.7,1.35c-1,.32-2.07.66-3.1,1l-1.54.54c-.88.32-1.76.64-2.63,1l-.43.16a99.74,99.74,0,0,0-22.53,12.61,111.81,111.81,0,0,0-9.61,8.17c-.39.37-.77.74-1.14,1.12-.76.75-1.5,1.52-2.23,2.3q-1.64,1.75-3.2,3.58c-.7.81-1.38,1.63-2.05,2.46-.33.41-.65.83-1,1.25-1.28,1.67-2.52,3.38-3.7,5.12-.89,1.31-1.75,2.63-2.58,4-.27.45-.54.9-.8,1.36q-2.76,4.75-5.05,9.76a112.7,112.7,0,0,0-4.62,12.53c-.76,2.64-1.41,5.31-2,8-.33,1.61-.64,3.23-.9,4.85-.5,3.38-.84,6.75-1,10.15-.06,1.13-.11,2.27-.14,3.4,0,1.85,0,3.71.08,5.56l.09,1.83q.17,2.75.45,5.49c.06.49.12,1,.19,1.48s.13,1,.2,1.47q.45,3,1,5.87c.1.49.2,1,.31,1.47s.21,1,.32,1.45l.39,1.66c.57,2.14,1.19,4.25,1.88,6.35.34,1.05.7,2.09,1.07,3.13.19.52.38,1,.58,1.56s.39,1,.59,1.55l.63,1.5c.65,1.49,1.31,3,2,4.43.35.73.71,1.46,1.07,2.18s.75,1.45,1.13,2.16c.25.48.52,1,.78,1.43.51.9,1,1.78,1.57,2.67s1.09,1.75,1.65,2.62c.28.43.56.86.85,1.29.57.86,1.16,1.71,1.76,2.55.29.42.6.84.9,1.26s.44.57.65.86l.6.77.74.94c.27.35.56.69.84,1l.48.58c.48.58,1,1.16,1.46,1.73.22.25.43.5.65.74q1.43,1.62,2.89,3.15,1.69,1.75,3.48,3.42a.81.81,0,0,0,.14.12c.37.36.75.7,1.13,1.05l.32.29c.31.29.63.56.94.84l.41.36,1.06.91c.54.46,1.09.92,1.65,1.37a113.87,113.87,0,0,0,10.71,7.53c1.3.78,2.61,1.55,3.94,2.28.57.31,1.16.61,1.75.91l1.16.6c.58.31,1.16.62,1.71,1a9.3,9.3,0,0,1,1.85,1.5l.57.63.36.45.33.47c1.5.21,3,.46,4.49.74a68.24,68.24,0,0,1,7.22,1.86,113.34,113.34,0,0,0,12.89,2.92A108.13,108.13,0,0,0,238.55,342h.57c3.32,0,6.63-.07,9.93-.32q1.45-.12,2.91-.27A110.83,110.83,0,0,0,265.37,339c1.08-.28,2.16-.58,3.23-.9s2.13-.65,3.19-1l1.59-.53q2.37-.81,4.71-1.73t4.47-1.95c.82-.38,1.64-.76,2.45-1.16q2.42-1.19,4.78-2.49a110.25,110.25,0,0,0,10.53-6.84,113.22,113.22,0,0,0,9.76-8.28l1.13-1.12c.57-.57,1.12-1.14,1.68-1.72,1.65-1.73,3.25-3.52,4.78-5.35l1-1.24c1-1.23,1.92-2.49,2.84-3.76,1.53-2.13,3-4.3,4.38-6.53.55-.92,1.09-1.85,1.61-2.79,1.58-2.8,3-5.68,4.37-8.61.67-1.52,1.29-3,1.88-4.59.15-.39.3-.77.44-1.16.43-1.16.85-2.33,1.24-3.5s.68-2.1,1-3.15c.75-2.63,1.4-5.27,2-7.94.34-1.6.64-3.21.9-4.82.5-3.36.86-6.74,1-10.13.06-1.13.1-2.26.13-3.39a113.17,113.17,0,0,0-.62-13l-.21-1.66c-.23-1.67-.5-3.33-.8-5s-.65-3.3-1-4.94l-.39-1.63-.42-1.58c-.13-.45-.25-.89-.38-1.33s-.21-.73-.33-1.09-.2-.67-.3-1-.22-.72-.34-1.08-.25-.77-.38-1.15l-.39-1.14c-.06-.18-.12-.36-.19-.53-.13-.4-.28-.79-.42-1.18s-.34-.92-.52-1.38a0,0,0,0,0,0,0c-.11-.31-.23-.62-.35-.92a115.24,115.24,0,0,0-5.11-10.84h0l-.6-1.09c-.26-.47-.53-.93-.8-1.39s-.55-.93-.83-1.38l-.85-1.37q-1.71-2.72-3.58-5.33c-.31-.44-.62-.87-.94-1.3-.63-.82-1.27-1.64-1.91-2.45-1.46-1.81-3-3.58-4.53-5.29-.52-.58-1.05-1.14-1.59-1.71l-.57-.57-.57-.58c-1.92-1.91-3.9-3.74-5.95-5.51-.82-.7-1.65-1.4-2.49-2.08q-3.72-2.92-7.66-5.52c-.88-.58-1.76-1.14-2.66-1.69q-2.06-1.24-4.19-2.4c-.94-.51-1.89-1-2.85-1.49-1.43-.73-2.89-1.42-4.35-2.08a100.22,100.22,0,0,0-25-7.36A108,108,0,0,0,243.08,143h-1.71A112.54,112.54,0,0,0,229.77,143.64ZM239,355.26a116,116,0,0,1-29.95-4.59,38,38,0,0,1-7.41-3,37,37,0,0,1-4.9-3.22l-.34,0a12.19,12.19,0,0,1-1.91,0l-.6-.07-.6-.1-.3-.06a15.56,15.56,0,0,1-3.51-1.45,106.82,106.82,0,0,1-10.79-6.33A115.66,115.66,0,0,1,160.2,321.2c-.08-.1-.18-.19-.26-.28l-.07-.07a113.22,113.22,0,0,1-27.27-47.13l-.27-1-.75-2.87a112.77,112.77,0,0,1,27.68-105.12c.59-.63,1.19-1.24,1.81-1.85s1.22-1.21,1.84-1.81a112.65,112.65,0,0,1,48-27.31,112.8,112.8,0,0,1,100.3,20.41,115.93,115.93,0,0,1,9.35,8.36c.84.84,1.67,1.69,2.49,2.56s1.62,1.75,2.41,2.64q3.56,4,6.72,8.35,1.57,2.16,3,4.4t2.84,4.55q1.83,3.08,3.46,6.26c1.36,2.66,2.61,5.38,3.75,8.14a113.3,113.3,0,0,1,8.5,45.24c-.05,1.72-.12,3.45-.25,5.17a116.14,116.14,0,0,1-3.23,20.41c-.13.56-.28,1.11-.43,1.67-.3,1.11-.61,2.21-.94,3.32-.5,1.64-1,3.29-1.6,4.91s-1.19,3.24-1.83,4.84l-.66,1.59c-.45,1.06-.91,2.11-1.4,3.16-1.2,2.61-2.51,5.18-3.93,7.69A115.39,115.39,0,0,1,329.1,312.9a118.37,118.37,0,0,1-14,14.61,109,109,0,0,1-16.49,11.92c-.83.5-1.67,1-2.52,1.46q-2.36,1.32-4.76,2.52a113.1,113.1,0,0,1-50.22,11.87Z"/><path class="cls-1" d="M167.17,313a5.58,5.58,0,0,1-.8-3.24,10.38,10.38,0,0,1,1.35-4.89,16,16,0,0,1,3.11-3.56l2.6-2.48,10.21-9.75,20.27-19.34,17.42-16.62,6-5.71a45.9,45.9,0,0,1,8.91-6.64,51,51,0,0,1,13.33-5.39s0,0,0,0c-.08.25-.16.52-.23.76l0,.08a52.41,52.41,0,0,1-4.13,9.51,51,51,0,0,1-5.84,8.37,82.36,82.36,0,0,1-6.08,6q-18.42,17.49-36.77,35.07c-4,3.88-8.11,7.74-12.17,11.62l-3.05,2.91a36.36,36.36,0,0,1-4.16,3.68,9.79,9.79,0,0,1-5.34,1.62A5.37,5.37,0,0,1,167.17,313Z"/><path class="cls-1" d="M237,248.85a51,51,0,0,1-6.42-17.47c-.81-4.92-.67-9.93-.74-14.9q-.15-8.88-.29-17.75-.3-18.85-.61-37.7-.1-5.91-.19-11.81a27.94,27.94,0,0,1,0-3.66,11.68,11.68,0,0,1,1.65-4.83c1.1-1.81,3.3-3.65,5.56-3.22S240,140,241,142a11.48,11.48,0,0,1,1,4.72l.06,3.86q.1,6.38.2,12.75c.12,6.81.22,13.62.34,20.43q.28,16.88.54,33.75c0,2.89.15,5.79.14,8.69a41.28,41.28,0,0,1-.63,6.36,49.63,49.63,0,0,1-2.74,10,51,51,0,0,1-2.9,6.28h0Z"/><path class="cls-1" d="M242.2,239.43c-.38,0-.76-.09-1.14-.16,0,0,0,0,0,0,.76-.88,1.5-1.78,2.23-2.61a49.29,49.29,0,0,1,17-12.85c8.93-3.88,17.85-7.77,26.82-11.56q9.67-4.08,19.37-8.13c6.58-2.75,13.25-5.35,19.3-8.28a12.59,12.59,0,0,1,2.84-1.11,11.05,11.05,0,0,1,4-.18c1.83.26,4.09,1.18,4.83,3,1.13,2.83-.66,6-2.54,8a14.06,14.06,0,0,1-4.42,2.78c-1.17.56-2.35,1.09-3.54,1.62-4.68,2.08-9.45,4-14.19,6-9.31,3.89-18.62,7.76-27.89,11.73-4.47,1.92-8.93,3.87-13.4,5.81s-8.71,3.92-13.43,5a52.75,52.75,0,0,1-11.16,1.28A38.58,38.58,0,0,1,242.2,239.43Z"/><path class="cls-1" d="M265.29,688.15a12,12,0,0,1-2.3-1.29h0a6.35,6.35,0,0,1-2.74-4.05,3.94,3.94,0,0,1,0-1c.24-2.1,2-3.73,3.8-4.79h.08l.28-.16c.19-.11.4-.21.59-.31l.3-.14h0c.22-.1.44-.18.66-.26a18.46,18.46,0,0,1,6.22-.61h1.74l14.95-.19q14.76-.18,29.52-.38c19.15-.27,38.31-.47,57.46-.73,20.18-.28,40.37-.49,60.54-.78,19.95-.28,39.89-.48,59.83-.76l7.08-.1,21.23-.26,11.6-.15a50.09,50.09,0,0,1,12.38,1.34l1,.26c.8.21,1.58.44,2.26.65l.48.16h0l.72.24a50.81,50.81,0,0,1,6.55,2.73c.39.2.78.39,1.15.6l.64.34a0,0,0,0,1,0,0c-.21.12-.41.25-.6.34-1.43.75-2.83,1.52-4.3,2.18a50.58,50.58,0,0,1-6.88,2.53l-1,.29a50.68,50.68,0,0,1-12.38,1.63l-11.59.15L496.2,686l-59.82.77-14,.17-8.22.11c-5.65.09-11.31.16-17,.24l-8.11.1-13.2.15c-19.16.19-38.32.48-57.47.73-9.84.14-19.68.25-29.52.38l-15,.19c-1.18,0-2.4.09-3.61.09A12.81,12.81,0,0,1,265.29,688.15Z"/><path class="cls-1" d="M396.31,799.64c-21.57-2.85-39.87-24.8-39.48-46.46.15-10.5,5.2-20.29,11.84-28.2,4.93-5.61,12.29-8.87,19.36-10.87-.06-2.45-.27-4.9-.41-7,0-.11,0-.23,0-.34.07-5.86-2.27-12.19.39-17.69,2.61-5.29,8.17-4.52,10.69.42s1.44,11.16,2.17,16.27c.25,5.12,1.07,10.41.06,15.48-1.4,5.51-7.47,5.12-11.85,6.42-3.32,1.42-6.77,2.89-9.58,5.17-7,7.88-12,19.07-7.9,29.5,2.81,10.1,10.73,17.56,19.72,22.46,5.11,1.93,10.67,2.2,16.07,1.84,24.56-2.68,45.27-21.78,32.54-47.17-11.52-22-23.59-11-28.76-26.67-3.44-12,1.16-25.09,8.48-34.75a58.35,58.35,0,0,1,3.88,24.32c-.28,2.57-.39,5.24.82,7.61,18.28,4.67,30.75,22.91,32.59,41.12,2.93,29.26-26.64,49-53.61,49A52.42,52.42,0,0,1,396.31,799.64Z"/><path class="cls-1" d="M407.1,744.8a13.56,13.56,0,0,1-1.9,2.44,18.11,18.11,0,0,1-2,1.64c-.22.2-.43.41-.63.61s-.48.58-.7.88-.34.56-.5.84-.26.58-.39.88-.19.67-.28,1-.11.7-.14,1.06,0,.68,0,1,.07.65.12,1,.16.64.25,1,.24.61.38.92.3.54.46.81.39.54.61.81.46.49.7.72.51.42.78.62.55.34.84.5l.92.4c.32.1.65.19,1,.27s.69.11,1.05.15.66,0,1,0l1-.13c.33-.08.66-.16,1-.26s.62-.24.93-.38l.87-.49.8-.62c.22-.2.44-.41.65-.63s.43-.52.62-.79.36-.57.52-.87.27-.6.39-.91.2-.65.28-1,.11-.7.15-1,0-.7,0-1.05-.07-.63-.11-.94-.2-.79-.33-1.18a24.4,24.4,0,0,0-.95-2.37c-.3-.58-.62-1.15-1-1.7s-.7-1-1.08-1.44-.88-.94-1.35-1.38-.9-.75-1.37-1.09A19.29,19.29,0,0,0,408,743,10.53,10.53,0,0,1,407.1,744.8Zm-3.66,30.29A20.75,20.75,0,0,1,391.25,767a20.87,20.87,0,0,1-3.41-17.16,20.78,20.78,0,0,1,3.79-8,17.78,17.78,0,0,1,2.18-2.41,15.52,15.52,0,0,1,3-2.32,9.64,9.64,0,0,1,8.07-.67,6.41,6.41,0,0,1,2.4,1.57,13.35,13.35,0,0,1,4.09-1.06,16.36,16.36,0,0,1,14.15,6.2c3.68,4.46,4.41,10.89,3.15,16.38a20.75,20.75,0,0,1-8.35,12.3,21.51,21.51,0,0,1-12.12,3.76A21.83,21.83,0,0,1,403.44,775.09Z"/><path class="cls-2" d="M595.43,238.07l.34-2.53L596,233l0-2.6-.3-2.58-.19-.88,33.26-.4q15.24-.21,30.47-.36c2.42,0,4.83-.07,7.25-.09,2.74,0,5.46-.11,8.19.1A49.78,49.78,0,0,1,687.23,229l1.5.54-66.16,10.38-27.54.34Z"/><path class="cls-2" d="M449.85,202.55a10.82,10.82,0,0,1-5.72-2.78,5.1,5.1,0,0,1-1.82-4.24c.55-2.95,3.37-4.92,6.07-5.76a15.22,15.22,0,0,1,4.61-.45h.69l4.1,0,13.37-.07,26.7-.15q27.28-.13,54.57-.3,26.33-.12,52.64-.29,26.55-.15,53.08-.3l10.32-.06c3,0,6.08-.16,9.1,0a49.11,49.11,0,0,1,13.37,2.7,46.81,46.81,0,0,1,6.35,2.66l.16.08.11.06.09,0,.15.08a.83.83,0,0,1,.29.16c.42.24.85.45,1.27.69,0,0,0,0,0,0a10.61,10.61,0,0,1-1.36.77c-.23.13-.47.25-.68.35l0,0h0l-.17.09-.05,0h0l-.06,0a53.31,53.31,0,0,1-8.61,3.44,48.17,48.17,0,0,1-9,1.84c-2.21.22-4.42.21-6.63.22l-7,0q-26.58.17-53.18.29l-44.38.24-1.36-.7-3.59-1.67-3.74-1.54-3.86-1.36-4-1.2-4.13-1-4.32-.82-4.48-.66-4.62-.49-4.73-.31-4.8-.12-4.93.06-5.09.24-5.17.42-5.19.59-5.14.77-5.1.95-5.08,1.12-5.13,1.31L478.64,199l-5,1.57-4.84,1.65-.82.3h-2.75c-2.27,0-4.54,0-6.8,0l-3.86,0-2.5,0A16.79,16.79,0,0,1,449.85,202.55Z"/><path class="cls-2" d="M396.78,737.14a15.5,15.5,0,0,0-3,2.31,19.21,19.21,0,0,0-2.19,2.41,21,21,0,0,0-3.79,8A20.9,20.9,0,0,0,391.25,767a20.84,20.84,0,0,0,12.19,8.11,21.83,21.83,0,0,0,4.73.52,21.42,21.42,0,0,0,12.12-3.77,20.7,20.7,0,0,0,8.35-12.29c1.26-5.5.53-11.92-3.15-16.39a16.38,16.38,0,0,0-14.15-6.2,13.66,13.66,0,0,0-4.09,1.07,6.32,6.32,0,0,0-2.4-1.58,9.61,9.61,0,0,0-3.28-.58A9.94,9.94,0,0,0,396.78,737.14Zm-5.48,47.62c-9-4.89-16.9-12.36-19.71-22.46-4.09-10.42.88-21.61,7.9-29.49a39.38,39.38,0,0,1,9.58-5.17c4.37-1.3,10.45-.92,11.85-6.42,1-5.08.19-10.36-.06-15.48-.73-5.11.2-11.41-2.17-16.28a8.83,8.83,0,0,0-1.52-2.14l17-.24c-3.79,8-5.42,17.13-3,25.69,5.17,15.66,17.24,4.62,28.76,26.67,12.73,25.38-8,44.48-32.54,47.16-1.3.09-2.6.14-3.91.14A34.27,34.27,0,0,1,391.3,784.76Z"/><path class="cls-2" d="M239.12,342h-.56a108.3,108.3,0,0,1-13.08-1.19,115.36,115.36,0,0,1-12.88-2.92,69.51,69.51,0,0,0-7.22-1.86c-1.49-.28-3-.53-4.49-.74a10.87,10.87,0,0,0-3.11-3.06c-1.48-.91-3.09-1.64-4.62-2.48-1.34-.72-2.64-1.49-3.95-2.27a115.18,115.18,0,0,1-10.71-7.53q-2.91-2.37-5.64-4.94a9.72,9.72,0,0,0,4.24-1.56,37.23,37.23,0,0,0,4.16-3.68l3.05-2.91c4.06-3.88,8.12-7.74,12.17-11.62q18.38-17.55,36.77-35.07a82.36,82.36,0,0,0,6.08-6,51,51,0,0,0,5.84-8.37,53.73,53.73,0,0,0,2.88-6,52.84,52.84,0,0,0,10-1.28c4.72-1,9-3,13.44-4.95s8.92-3.89,13.39-5.81c9.27-4,18.59-7.85,27.9-11.74,4.73-2,9.5-3.89,14.19-6,1.18-.53,2.37-1.06,3.53-1.62a21.71,21.71,0,0,0,3.25-1.77A110.5,110.5,0,0,1,337.44,218a113.81,113.81,0,0,1,2.42,13.22,110.88,110.88,0,0,1,.61,13,107.23,107.23,0,0,1-1.17,13.52,112.58,112.58,0,0,1-2.85,12.76,110.83,110.83,0,0,1-4.56,12.4,99.2,99.2,0,0,1-13.21,21.7,107.89,107.89,0,0,1-8.59,9.43,116.76,116.76,0,0,1-9.77,8.28,110.25,110.25,0,0,1-10.53,6.84,114,114,0,0,1-11.69,5.6A116.56,116.56,0,0,1,265.38,339,111,111,0,0,1,252,341.37a113.38,113.38,0,0,1-11.66.6Z"/><path class="cls-2" d="M161.07,301.73a110.45,110.45,0,0,1-6.74-10.39,99.76,99.76,0,0,1-9.74-24.29,99.38,99.38,0,0,1-3.06-26.28,111.58,111.58,0,0,1,1.17-13.54,99.12,99.12,0,0,1,7.5-25.39,99.48,99.48,0,0,1,13.1-21.47,105.67,105.67,0,0,1,8.61-9.46,99.49,99.49,0,0,1,20.31-15.12,112.68,112.68,0,0,1,11.84-5.66,99.47,99.47,0,0,1,25-6.4,13.46,13.46,0,0,0-.35,1.83,29.8,29.8,0,0,0,0,3.66q.1,5.91.19,11.81.33,18.85.62,37.7.13,8.86.28,17.75c.08,5-.07,10,.74,14.9a49.44,49.44,0,0,0,3.15,10.9,45.71,45.71,0,0,0-6.42,5.11l-6,5.7-17.42,16.63-20.27,19.34c-3.41,3.24-6.81,6.5-10.21,9.74l-2.6,2.48a16.25,16.25,0,0,0-3.11,3.56,10.43,10.43,0,0,0-1.23,3.55C164.61,306.27,162.79,304,161.07,301.73Z"/><path class="cls-2" d="M242.66,232.57a41,41,0,0,0,.63-6.36c0-2.89-.09-5.79-.14-8.69q-.26-16.87-.54-33.74c-.12-6.82-.22-13.63-.34-20.44q-.09-6.36-.2-12.74l-.06-3.87a11.57,11.57,0,0,0-.64-3.71h1.72a108,108,0,0,1,13.32,1.19A113,113,0,0,1,269,147a110.28,110.28,0,0,1,12.33,4.53,112.24,112.24,0,0,1,11.4,6,113.37,113.37,0,0,1,10.31,7.22,114.85,114.85,0,0,1,9.59,8.74,100,100,0,0,1,15,20.21l.59,1.09a13.38,13.38,0,0,0-2.51,1c-6,2.92-12.72,5.53-19.3,8.28s-12.92,5.41-19.37,8.13c-9,3.79-17.89,7.68-26.82,11.56a49.29,49.29,0,0,0-17,12.85l-.93,1.07-.93.41A48.29,48.29,0,0,0,242.66,232.57Z"/><path class="cls-2" d="M47,77.74c-1.38-.25-2.74-.55-4.1-.89l-.79-.2-1-.26-.64-.18-1.09-.33-.85-.27c-.86-.28-1.71-.58-2.55-.89l-.57-.22a65.61,65.61,0,0,1-6-2.65,68.55,68.55,0,0,1-8.26-4.91c-8.86-5.23-9.66-9.07-4.14-17.43A63.3,63.3,0,0,1,28.51,37.9l.71-.54c.9-.68,1.81-1.34,2.74-2l.63-.42q2.19-1.45,4.48-2.76l.66-.36.66-.37c.44-.24.88-.48,1.33-.71.63-.32,1.26-.64,1.9-.95C61.14,20.32,84.92,18,106,16c21.76-1.64,43.62-.88,65.47-.13,13.54.47,27.09.93,40.6.83,152.85-1.8,305.67-5.3,458.52-.49,18.87.91,64.08,1.18,98.53,6.67,1.53.24,3,.5,4.51.76l.79.14,1.2.23,1.19.22,1.18.23,2.31.48,1.14.25,1,.22c12.72,2.9,22.75,6.81,27.49,12.16.14,8.77-.18,19.48-7.21,25.71-5.8,4.68-12.79,7.46-20.06,9.17-1.1.26-2.21.5-3.32.71l-2,.37-.14,0-1.08.18-.92.14-1.66.23-2,.25-2.16.23-1.26.12c-3.22-2.79-7.37-2.7-11.46-2.63A43.87,43.87,0,0,1,752,72q-10.78-.21-21.58-.39c-31.81-.44-63.61-1.34-95.42-2-164-4.27-327.19,15.61-491.2,15.66-7.65.22-15.31.37-23,.37C96,85.59,71.16,84,47,77.74Z"/><path class="cls-2" d="M459.64,286.5a10.52,10.52,0,0,1-5.18-1.89c-1.63-1.13-3.1-3-2.92-5.05.23-2.54,2.82-4.51,4.94-5.46a12.83,12.83,0,0,1,5.1-.89l3.9-.08,15.56-.3c10.43-.2,20.86-.38,31.29-.61,20.87-.46,41.75-.82,62.61-1.22q30.59-.57,61.15-1.18,14.79-.3,29.57-.58a49.63,49.63,0,0,1,21.68,4.61c.45.2.88.41,1.19.56s.59.28.8.4a.71.71,0,0,1,.07,1.25l-.41.22a50.82,50.82,0,0,1-17,5.81,59,59,0,0,1-8.08.51l-7.31.15-15,.28q-30.3.6-60.59,1.18l-62.71,1.22-31.49.62-15.43.29-7.46.15c-.93,0-1.86.06-2.78.06C460.62,286.55,460.13,286.54,459.64,286.5Z"/><path class="cls-2" d="M455,241.87a10.72,10.72,0,0,1-6.8-2.69,5.23,5.23,0,0,1-2-4.35c.44-3,3.44-5,6.1-5.84a14.86,14.86,0,0,1,4.7-.46l4.1-.05,15.24-.18L506,228l62.06-.74,27.33-.31,33.26-.4q15.24-.21,30.47-.36c2.42,0,4.83-.07,7.25-.09,2.74,0,5.46-.11,8.19.1A49.7,49.7,0,0,1,687.22,229l1.5.54a21.29,21.29,0,0,1,2.39,1,.69.69,0,0,1,.15.07l.2.09h0a2,2,0,0,1,.84.94,2,2,0,0,1-.8,2.51,1.58,1.58,0,0,1-.35.16c-.86.39-1.71.81-2.59,1.17a54.3,54.3,0,0,1-11.08,3.23c-4.85.86-9.82.65-14.72.71s-9.92.14-14.89.18q-12.65.12-25.29.28l-27.54.34-8.56.1-61.64.74-60.69.71-4.23,0c-1.22,0-2.44.08-3.66.08Z"/><path class="cls-2" d="M449.85,202.55a10.82,10.82,0,0,1-5.72-2.78,5.1,5.1,0,0,1-1.82-4.24c.55-2.95,3.37-4.92,6.07-5.76a15.22,15.22,0,0,1,4.61-.45h.69l4.1,0,13.37-.07,26.7-.15q27.28-.13,54.57-.3,26.33-.12,52.64-.29,26.55-.15,53.08-.3l10.32-.06c3,0,6.08-.16,9.1,0a49.11,49.11,0,0,1,13.37,2.7,46.81,46.81,0,0,1,6.35,2.66l.16.08.11.06.09,0,.15.08a.83.83,0,0,1,.29.16c.42.24.85.45,1.27.69,0,0,0,0,0,0a10.61,10.61,0,0,1-1.36.77c-.23.13-.47.25-.68.35l0,0h0l-.17.09-.05,0h0l-.06,0a53.31,53.31,0,0,1-8.61,3.44,48.17,48.17,0,0,1-9,1.84c-2.21.22-4.42.21-6.63.22l-7,0q-26.58.17-53.18.29l-44.38.24-8.45.05-54.49.31-26.91.14-10.29.06h-2.75c-2.27,0-4.54,0-6.8,0l-3.86,0-2.5,0A16.79,16.79,0,0,1,449.85,202.55Z"/><path class="cls-1" d="M449.85,202.55a10.73,10.73,0,0,1-5.72-2.77,5.11,5.11,0,0,1-1.82-4.24c.55-2.95,3.37-4.92,6.07-5.76a15.26,15.26,0,0,1,4.62-.46h.68l4.09,0,13.38-.07q13.35-.09,26.7-.15,27.28-.15,54.57-.3l52.65-.3q26.53-.14,53.07-.29l10.31-.06c3,0,6.09-.16,9.11,0a49.49,49.49,0,0,1,13.37,2.69,47.46,47.46,0,0,1,6.34,2.67.61.61,0,0,1,.14.07h0l.14.07.09.05.15.08a.73.73,0,0,1,.29.15c.42.25.85.46,1.28.7,0,0,0,0,0,0a10.11,10.11,0,0,1-1.36.77c-.24.14-.48.26-.69.36l0,0h0l-.17.09-.05,0h0l-.06,0a53.27,53.27,0,0,1-8.61,3.43,47.33,47.33,0,0,1-9.05,1.84c-2.2.23-4.41.21-6.62.23l-7,0q-26.58.15-53.18.29-26.41.12-52.83.29l-54.5.3-26.9.15-13,.07-6.8,0-3.87,0c-.82,0-1.66,0-2.5,0A16.73,16.73,0,0,1,449.85,202.55Z"/><path class="cls-1" d="M455,241.87a10.77,10.77,0,0,1-6.81-2.69c-1.17-1.05-2.25-2.71-2-4.35.45-3,3.45-5,6.1-5.84a14.92,14.92,0,0,1,4.71-.46l4.1-.05,15.24-.18L506,228l62.06-.74q30.3-.33,60.59-.71,15.22-.21,30.47-.36l7.25-.09c2.73,0,5.46-.11,8.19.1A49.7,49.7,0,0,1,687.22,229a29.88,29.88,0,0,1,3.89,1.58l.15.07.19.09h0a2,2,0,0,1,.85.94,2,2,0,0,1-.81,2.51,1.33,1.33,0,0,1-.34.16c-.87.39-1.71.81-2.59,1.17a54.21,54.21,0,0,1-11.09,3.23c-4.84.87-9.82.65-14.71.71s-9.93.14-14.89.18c-20.47.19-40.93.49-61.4.73l-61.63.73-60.69.71-4.23.06c-1.22,0-2.45.07-3.66.07Z"/><path class="cls-1" d="M459.64,286.51a10.52,10.52,0,0,1-5.18-1.89c-1.63-1.13-3.09-3-2.91-5.05.23-2.54,2.82-4.52,4.94-5.46a12.82,12.82,0,0,1,5.09-.9l3.9-.07,15.57-.31c10.43-.19,20.86-.37,31.29-.61,20.86-.45,41.74-.81,62.61-1.21l61.15-1.19c9.85-.19,19.71-.4,29.57-.57a49.43,49.43,0,0,1,21.67,4.6l1.2.57c.28.14.59.27.79.4a.7.7,0,0,1,0,1.27l0,0,0,0h0l-.42.23a51,51,0,0,1-17,5.81,60.52,60.52,0,0,1-8.07.51l-7.31.14-15,.29q-30.3.58-60.6,1.18l-62.7,1.22-31.49.61-15.43.3-7.47.14c-.92,0-1.85.07-2.77.07C460.63,286.56,460.13,286.55,459.64,286.51Z"/><path class="cls-2" d="M448.37,189.78c-2.69.83-5.51,2.8-6.07,5.75a5.11,5.11,0,0,0,1.82,4.24,10.71,10.71,0,0,0,5.72,2.78,16.78,16.78,0,0,0,2.25.13c.84,0,1.67,0,2.5,0l3.86,0,6.8,0,2.75,0,10.29-.05,26.91-.15q27.24-.17,54.49-.3l8.46-.05q22.19-.13,44.38-.25,26.58-.12,53.18-.29l7,0c2.21,0,4.41,0,6.62-.22a47.23,47.23,0,0,0,9-1.84,53.42,53.42,0,0,0,8.62-3.44l0,0h0l0,0a1.51,1.51,0,0,0,.18-.09h0l0,0,.69-.36a9.53,9.53,0,0,0,1.36-.77s0,0,0,0c-.42-.24-.85-.45-1.27-.69a.83.83,0,0,0-.29-.16l-.15-.07-.1-.05-.11-.06-.16-.08a47.22,47.22,0,0,0-6.34-2.66,50,50,0,0,0-13.37-2.7c-3-.17-6.09,0-9.11,0l-10.32.06-53.07.29q-26.32.14-52.65.29-27.28.12-54.57.3l-26.69.15-13.38.08-4.09,0h-1.12A13.8,13.8,0,0,0,448.37,189.78Zm218,36.27c-2.42,0-4.83.06-7.25.09q-15.23.15-30.47.35-16.63.22-33.26.41l-27.33.31q-31,.34-62.05.73-14.84.19-29.69.36l-15.24.17-4.1.06a14.86,14.86,0,0,0-4.7.46c-2.66.89-5.66,2.81-6.1,5.84-.25,1.64.83,3.3,2,4.34a10.73,10.73,0,0,0,6.8,2.7c.41,0,.82,0,1.23,0,1.22,0,2.44-.06,3.66-.07l4.23,0,60.7-.72,61.63-.73,8.56-.1,27.54-.35q12.65-.15,25.3-.27c5,0,9.92-.12,14.88-.18s9.87.15,14.72-.71a54.75,54.75,0,0,0,11.08-3.23c.88-.36,1.73-.78,2.59-1.17a1.42,1.42,0,0,0,.35-.17,2,2,0,0,0,0-3.44h0l-.19-.1a.69.69,0,0,1-.15-.07,25.3,25.3,0,0,0-2.39-1l-1.5-.54a50.23,50.23,0,0,0-12.63-2.82c-1.39-.1-2.77-.13-4.16-.13S667.75,226,666.4,226.05Zm-.74,43.19q-14.79.27-29.57.58L574.94,271c-20.86.39-41.74.75-62.61,1.21-10.43.23-20.86.41-31.29.61l-15.56.3-3.9.08a12.83,12.83,0,0,0-5.1.89c-2.12.95-4.71,2.92-4.94,5.46-.18,2.08,1.29,3.93,2.92,5.06a10.62,10.62,0,0,0,5.18,1.89c.49,0,1,.05,1.48.05.92,0,1.85-.05,2.78-.07l7.46-.14c5.14-.11,10.29-.2,15.43-.3l31.49-.61q31.35-.62,62.71-1.22L641.58,283l15-.29,7.31-.15a59,59,0,0,0,8.08-.51,50.81,50.81,0,0,0,17-5.8l.41-.23a.71.71,0,0,0-.07-1.25c-.21-.12-.51-.26-.8-.4s-.74-.36-1.19-.56a49.49,49.49,0,0,0-20.8-4.61Zm-464,78.46a37.74,37.74,0,0,0,7.41,3A116,116,0,0,0,239,355.26l2.14,0a113.1,113.1,0,0,0,50.22-11.87q2.4-1.2,4.76-2.52l1.26-.72c.43-.24.84-.49,1.26-.74a109,109,0,0,0,16.49-11.92,114,114,0,0,0,24.36-30c1.41-2.51,2.73-5.08,3.93-7.69.48-1,.95-2.1,1.4-3.16l.66-1.59c.32-.8.63-1.61.94-2.41s.6-1.62.89-2.43c.57-1.62,1.1-3.27,1.6-4.91.33-1.11.64-2.21.94-3.32.15-.56.3-1.11.43-1.67.42-1.67.81-3.35,1.15-5,.17-.84.33-1.69.49-2.54.3-1.69.57-3.39.81-5.11.17-1.28.32-2.56.45-3.85s.24-2.58.33-3.87c.12-1.72.2-3.45.24-5.17a113.13,113.13,0,0,0-8.5-45.24c-1.14-2.76-2.39-5.48-3.75-8.14q-1.62-3.18-3.45-6.26c-.22-.39-.46-.77-.69-1.15-.46-.77-.94-1.52-1.42-2.28l-.73-1.12q-1.48-2.24-3.06-4.4c-1-1.45-2.14-2.86-3.25-4.25-.84-1.05-1.7-2.07-2.58-3.09l-.88-1c-.79-.89-1.6-1.77-2.41-2.64s-1.65-1.72-2.49-2.56A112.78,112.78,0,0,0,210.89,133.8a112.65,112.65,0,0,0-48,27.31c-.62.6-1.24,1.2-1.85,1.81s-1.22,1.22-1.81,1.85A114.25,114.25,0,0,0,132.11,213a113.08,113.08,0,0,0-.53,56.87c.25,1,.49,1.92.75,2.87l.27,1a113.12,113.12,0,0,0,27.27,47.13l.06.07.27.28a114.78,114.78,0,0,0,18.49,15.32,105.73,105.73,0,0,0,10.79,6.33A15.38,15.38,0,0,0,193,344.3l.3.06.6.1.6.07a12.19,12.19,0,0,0,1.91,0l.34,0A37,37,0,0,0,201.64,347.7ZM144.43,805.26l-2-1.27-1.63-1-2.38-1.49-2-1.25h0l3.45-3.59q3.44-3.61,6.82-7.27c1-1.11,2-2.21,3.05-3.33.36-.38.71-.77,1.06-1.15l2-2.23,1.08-1.21,2.78-3.13,0,0,3.09-3.53.35-.41q1.56-1.78,3.09-3.59c4.8-5.78,9.63-11.51,14.48-17.25l4.84-5.73,4.85-5.73q3.63-4.29,7.25-8.61l2.41-2.88q2.4-2.88,4.79-5.78c.18-.23.36-.47.55-.7.55-.71,1.1-1.42,1.66-2.12l.56-.71,1.76-2.19,1.08-1.34,2.2-2.72c.23-.27.44-.54.66-.81q1.88-2.32,3.74-4.68l1.37-1.75.36-.46.75-1c.92-1.21,1.83-2.43,2.71-3.66.39-.54.78-1.09,1.16-1.64l1.13-1.65.77-1.17.75-1.16q1.09-1.72,2.1-3.48a.41.41,0,0,0,.05-.09c.23-.4.46-.8.68-1.21l.39-.72.38-.72.74-1.45.2-.4c.06-.13.12-.27.19-.4l.13-.27.06-.12c.07-.14.13-.27.19-.41l.36-.8c.22-.48.43-1,.63-1.45s.36-.86.53-1.3l.19-.51c0-.09.07-.19.11-.28s.07-.19.11-.28.14-.38.2-.56.23-.64.33-.95l.06-.19c.12-.33.23-.67.33-1,0-.09.06-.19.1-.29s.11-.38.17-.57l.25-.88.21-.79c.16-.62.31-1.24.45-1.87l-3.58,0h0l-4.45,0c-23.26.08-47.43.21-71.6.32h-.83l-6.77,0h-5.28l-7.27,0c-12.71,0-26.34.11-40,.17l-6.29,0H78.92l-5.28,0H70.86l-12.3,0h0q-.24-9.32-.48-18.63-1.23-46.67-2.45-93.32-.6-23.56-1.23-47.12t-1.24-47.11q-.3-11.65-.61-23.29-.93-34.95-1.83-69.89l-1.23-46.82-1.23-46.81-1.2-46q-.6-23-1.2-46-1.2-46-2.42-92.09l-.12-4.54-.12-4.54h0l2.36.53,5,1.06,2.11.45a264.49,264.49,0,0,0,47.08,6h0q7.41,0,14.83,0,8.86,0,17.73-.05l11.82-.1q14.78-.14,29.56-.39,11.9-.21,23.78-.47T221,97l12-.32,11.66-.34q29.55-.89,59.08-1.92c54.2-2.83,107.17-7.43,162-9.56q37.57-1.53,75.18-2.11,13.62-.23,27.25-.3l9.17,0h.28q9.1,0,18.21,0c3.66,0,7.33,0,11,.06h0l10.89.1h0q5.44.06,10.89.15l5.48.09,10.9.21q13.63.3,27.28.72,12.51.3,25,.54t25,.47l16.69.28c.41.16.83.32,1.26.46l.8.26,1.6.46.81.2,1.3.29h0l1.3.26c2,.35,4,.59,6,.77l1.33.11c2.22.17,4.46.28,6.67.41h.05l1.08,0c1.51,0,3.07-.1,4.64-.19L767,88l1.11-.07,1.29-.1h0q0,6.1.05,12.2l.06,12.19,0,6.64.15,31q.1,23.51.22,47t.23,47q.06,11.94.11,23.89.15,35.84.34,71.68.21,35.39.35,70.78.06,11.79.11,23.59,0,6,0,12l.18,36.06.12,24q0,12,.11,24,.19,46.83.44,93.66.12,23.58.23,47.17c0,.94,0,1.89,0,2.83h-3.69l-9.63,0h-1.39l-9.66,0H745.4c-.48,0-1,0-1.44,0h-9.28l-6,0h-1.36c-.63,0-1.26,0-1.89,0l-3.41,0h-7.22c-29.35.1-59.61.26-89.86.4H612.29l-3.36,0h-.76a3.3,3.3,0,0,0-.65,0h-2.7c-.7,0-1.41,0-2.12,0l-8,0h-.45l-7,0h-9.55l2.73,3.53,1.12,1.44,1.61,2.1,2.23,2.88.64.83.63.82,1.29,1.66.67.86,5.17,6.51,6.86,8.7q3.43,4.35,6.88,8.69l3.46,4.32q1.74,2.16,3.49,4.31l1.75,2.15c9.67,11.64,19,23.52,28.5,35.34,1.57,2,3.15,3.93,4.73,5.9l3.91,4.83.85,1,1.34,1.54,2,2.36.65.79,1.29,1.6.65.81.64.81c.42.54.85,1.08,1.28,1.61.64.82,1.28,1.63,1.93,2.44l.79,1c.38.47.76.95,1.15,1.42.65.8,1.3,1.61,2,2.4l.59.7.07.09.67.79.67.78c.22.26.45.52.68.77s.45.52.68.77c.51.57,1,1.14,1.55,1.7s.82.87,1.24,1.3.95,1,1.44,1.44h0l-4.88,5.08-4.88,5.08-.31-.41c-.88-1.14-1.79-2.27-2.7-3.39l-.46-.56c-.31-.38-.61-.75-.93-1.12l0,0L659.35,798l-.47-.55c-.3-.37-.61-.73-.93-1.09l-.69-.82-.66-.77a.71.71,0,0,1-.07-.09c-.42-.48-.83-1-1.24-1.45-.06-.07-.12-.13-.17-.2l-1.79-2.11c-.86-1-1.72-2.06-2.55-3.09-.24-.29-.48-.58-.71-.88l-1.75-2.22h0c-.8-1-1.58-2.09-2.33-3.14-.18-.27-.37-.53-.56-.8L640,774.12l-5.39-6.63q-8.08-10-16.18-19.89l-10.79-13.26,0,0q-14.16-17.41-28.3-34.85L570,687.82l-1.65-2c-1.22-1.52-2.45-3-3.66-4.56-.54-.65-1.07-1.32-1.6-2l-.14-.18c-1.21-1.49-2.41-3-3.62-4.49h0c-2.34,0-4.69,0-7,0h0l-.24-.08-.24-.08-.53-.16c-.55-.17-1.13-.34-1.74-.5l-.5-.13-.5-.12a50.12,50.12,0,0,0-12.39-1.34l-11.59.14-21.23.27-3.54,0-3.54.05c-19.94.29-39.88.48-59.83.77-20.17.29-40.36.5-60.54.78-19.16.26-38.31.46-57.46.73q-14.76.21-29.52.38l-15,.19c-.56,0-1.15,0-1.73,0a26.55,26.55,0,0,0-4.37.18h-.09a11,11,0,0,0-1.17.25,5.76,5.76,0,0,0-.59.18,4.77,4.77,0,0,0-.66.26h0l-.3.14-.6.3-.28.16,0,0h0l-.12.05c-.46.19-.92.39-1.37.61L262,678l-.15.07-.29.14-.29.15c-.28.14-.56.28-.84.44l-.32.17-.7.39-.17.1-.32.18c-.14.08-.28.16-.41.25l-.27.16-.14.08-.11.07-.43.27-.66.42h0l-.19.13-.25.17-.71.48-.34.24-.24.18c-.12.08-.24.16-.35.25l-.5.37-.26.2a.1.1,0,0,0-.05,0l-.25.19-.14.1-.45.37q-.49.38-1,.78l-.43.37-.35.3-.37.32-.18.16-.17.15c-.23.21-.45.41-.67.63l-.38.35-.29.28-.24.24-.08.07-.27.27-.16.16-.16.16-.35.36,0,0c-.16.17-.32.33-.47.5l-.25.26-.25.26c-.16.19-.33.37-.5.55-.57.64-1.12,1.29-1.66,1.94l-.59.73c-.39.49-.77,1-1.14,1.49l-.56.75-24.81,31.7q-20.67,26.42-41.5,52.72l-1.72,2.21c-1.73,2.22-3.46,4.43-5.18,6.65l-1.73,2.22L166,792.41q-3.44,4.44-6.83,8.92l-1.45,1.91-.25.33-2,2.72q-1.5,2-3,4a.64.64,0,0,0-.1.13Q148.41,807.82,144.43,805.26Z"/></g></g></svg>