<svg xmlns="http://www.w3.org/2000/svg" viewBox="0 0 717.22 610.95"><defs><style>.cls-1{fill:#1a8dcc;}.cls-2{fill:#8bcbed;}</style></defs><g id="Layer_2" data-name="Layer 2"><g id="Layer_1-2" data-name="Layer 1"><path class="cls-1" d="M254.79,383a56,56,0,0,0,5.78-.89,59.35,59.35,0,0,0,6.27-1.86,61.77,61.77,0,0,0,6.32-2.86,67.93,67.93,0,0,0,6.44-4,76.19,76.19,0,0,0,6.52-5.37,87.59,87.59,0,0,0,6.78-7.25,96.47,96.47,0,0,0,6.4-8.91,109.44,109.44,0,0,0,5.95-11,118.91,118.91,0,0,0,5.09-13.14l.06-.2a121.9,121.9,0,0,0,5.43-30.84,130.2,130.2,0,0,0-.3-16.17,123,123,0,0,0-2.36-15.41,116.61,116.61,0,0,0-4-13.46,99.21,99.21,0,0,0-5.06-11.29,88.89,88.89,0,0,0-5.53-8.92,75.16,75.16,0,0,0-5.49-6.72,70.38,70.38,0,0,0-5.89-5.56,67,67,0,0,0-5.51-4,60.68,60.68,0,0,0-5.43-3,54.1,54.1,0,0,0-5.39-2.09,52.2,52.2,0,0,0-5.38-1.34,52.78,52.78,0,0,0-5.48-.61,51.23,51.23,0,0,0-5.68.11,52.84,52.84,0,0,0-5.88.91,57.85,57.85,0,0,0-5.9,1.75,63.12,63.12,0,0,0-6.45,2.89,68.71,68.71,0,0,0-6.51,4.07,71.67,71.67,0,0,0-6.6,5.44,85.8,85.8,0,0,0-6.65,7.1,98.64,98.64,0,0,0-6.41,8.92,106.13,106.13,0,0,0-6,11,121.79,121.79,0,0,0-5.1,13.14,131.66,131.66,0,0,0-3.7,15,134.52,134.52,0,0,0-1.79,15.76,136.92,136.92,0,0,0,.3,16.58A126.31,126.31,0,0,0,196,326a116.75,116.75,0,0,0,4,13.62,108.15,108.15,0,0,0,4.86,10.89,93.82,93.82,0,0,0,5.72,9.27,82.59,82.59,0,0,0,5.49,6.73,52,52,0,0,1,4.17,4.36,5.18,5.18,0,0,1,1,.63l.61.51h0l.28.23.14.12c1.64,1.3,3.35,2.53,5.11,3.67a57.72,57.72,0,0,0,5.58,3,52,52,0,0,0,5.4,2.1,51,51,0,0,0,5.45,1.34,42.55,42.55,0,0,0,11,.49Zm-25.19,9.13A65,65,0,0,1,214.37,383l-.18-.12-.1-.08-.4-.32-.31-.26-.41-.34-.18-.16a5.38,5.38,0,0,1-1.1-1.24,14.06,14.06,0,0,1-1.67-1.23c-.83-.71-1.58-1.53-2.34-2.3a84.39,84.39,0,0,1-9.59-11.9,102.87,102.87,0,0,1-12.28-25.87,130,130,0,0,1-5.07-53.6,126.63,126.63,0,0,1,16.48-50.9c7.81-13.16,18.58-25,32.16-32.34a64.38,64.38,0,0,1,18.73-6.67,55.88,55.88,0,0,1,19.77,0,59.53,59.53,0,0,1,13.85,4.38c11.55,5.37,21,14.1,28.3,24.44,8.26,11.66,13.42,25.26,16.44,39.16a131.85,131.85,0,0,1,2.62,34.21,134.86,134.86,0,0,1-5.94,33.4c-5.87,18.46-15.7,35.86-30.45,48.67-10.27,8.93-23,15-36.63,16.26-1.6.13-3.19.2-4.79.2A56.36,56.36,0,0,1,229.6,392.09Z"/><path class="cls-1" d="M239.38,385.45c-10.46-1.65-3.74-12.3,2.73-14.62,5.63-4,9.28-8.49,13.27-13.85,9.08-13.52,15.07-28.23,19.65-43.64,6.6-20.19,7.57-43.14-1.49-62.74a132.64,132.64,0,0,0-22-30.38c-4.3-4.05-13.62-6.61-9.54-14.16,7.49-10.77,23.58,9.34,28.31,15.48,27.44,32.24,28.35,69,13.65,107.22C277.77,346.73,260.47,383.63,239.38,385.45Z"/><path class="cls-1" d="M536.93,492.56a53.16,53.16,0,0,0,6-.65,54.25,54.25,0,0,0,5.75-1.43,57,57,0,0,0,5.76-2.28,59.25,59.25,0,0,0,5.72-3.2,62.2,62.2,0,0,0,5.85-4.37,68.08,68.08,0,0,0,5.63-5.51,75.66,75.66,0,0,0,5.29-6.68,88.72,88.72,0,0,0,5.22-8.63,99.61,99.61,0,0,0,4.48-10.15,110.53,110.53,0,0,0,3.71-12.49,117.88,117.88,0,0,0,2.28-14.36l0-.35a127.16,127.16,0,0,0,.38-15.25,133,133,0,0,0-1.71-16,127.61,127.61,0,0,0-3.88-15.76A120.43,120.43,0,0,0,582,361.63a109.2,109.2,0,0,0-6.38-11.43,98.24,98.24,0,0,0-6.77-9.12,91.92,91.92,0,0,0-7.06-7.31,76.7,76.7,0,0,0-6.94-5.52,74.06,74.06,0,0,0-6.56-3.95,61.89,61.89,0,0,0-6.07-2.69,57.56,57.56,0,0,0-6.29-1.89,58.66,58.66,0,0,0-6-1,53.13,53.13,0,0,0-5.92-.15,51.67,51.67,0,0,0-5.83.62,53.29,53.29,0,0,0-5.86,1.44,56.8,56.8,0,0,0-5.8,2.29,62.55,62.55,0,0,0-5.82,3.25,68.21,68.21,0,0,0-5.72,4.29,71.51,71.51,0,0,0-5.51,5.36,78.07,78.07,0,0,0-5.55,7,90.06,90.06,0,0,0-5.2,8.65,102.4,102.4,0,0,0-4.46,10.13,108.76,108.76,0,0,0-3.63,12.24,120.2,120.2,0,0,0-2.32,14.62,129.23,129.23,0,0,0-.41,15.24,131.22,131.22,0,0,0,1.75,16.46s0,.07,0,.1v0a129.74,129.74,0,0,0,3.7,15.06,121.52,121.52,0,0,0,5.46,13.93,108.81,108.81,0,0,0,6.4,11.53,95.94,95.94,0,0,0,6.95,9.35,89.33,89.33,0,0,0,6.89,7.14q1.76,1.56,3.58,3a30.15,30.15,0,0,1,3.61,2.95l.24.27a6.6,6.6,0,0,1,1.69.73c1.35.86,2.74,1.66,4.15,2.42a65,65,0,0,0,6.38,2.85,55.33,55.33,0,0,0,6.2,1.87,57,57,0,0,0,6.08,1A51,51,0,0,0,536.93,492.56Zm-10.39,12.7a62.86,62.86,0,0,1-13.4-3.59,67.16,67.16,0,0,1-11.85-6,6.74,6.74,0,0,1-1.78-1.62,6.44,6.44,0,0,1-.61-.24,15.63,15.63,0,0,1-3.3-2.1,84.46,84.46,0,0,1-10.54-9.55,103.32,103.32,0,0,1-14.62-20.13,125.62,125.62,0,0,1-13.91-39.74,139.57,139.57,0,0,1-1.9-17.79,123.49,123.49,0,0,1,8.64-51.33,85.62,85.62,0,0,1,24.44-34A66.22,66.22,0,0,1,493.6,315a61.65,61.65,0,0,1,19.46-8.29,58.91,58.91,0,0,1,19-1.08c13.08,1.33,25.44,7.31,35.53,15.58,1,.84,2,1.7,3,2.59a103.92,103.92,0,0,1,24.29,33.93A131.79,131.79,0,0,1,606.4,408a126.42,126.42,0,0,1-.53,16.28A114.75,114.75,0,0,1,594,465.82c-5.65,10.81-13.31,20.7-23.17,28A62.13,62.13,0,0,1,545,505.05a59.62,59.62,0,0,1-18.49.21Z"/><path class="cls-1" d="M539.05,494.58c-11-8.42-21.14-18.67-27.5-31.14a188.8,188.8,0,0,1-14.91-41.68c-5.58-26.39,5.75-61.8,18.22-85,3-5.22,6.14-10.35,9.61-15.28,3.32-4.63,8.25-12.8,14.7-8,6.88,6-1.72,11.92-4.88,17.19A183.33,183.33,0,0,0,523.38,349c-8.31,18.54-14.72,38.89-15.08,59.22.53,11.59,4.34,22.61,8.36,33.39,2.52,7,5.33,14,9.29,20.32,5.62,9.25,14.14,15.87,21.81,23.22C553.23,492.71,547,498.76,539.05,494.58Z"/><path class="cls-1" d="M178.73,590.59c-13.93-1.25-28.81-2.32-41.32-9C122.75,571.66,114,555,112.49,537.48c-.93-9.6-.38-19.29-.32-28.92a32.52,32.52,0,0,0-6.68-22.7c-4.73-8.27,2.68-13.52,10-8.21,4.48,4.35,7,10.65,8.78,16.52,3.32,15.64-1,32,2.4,47.69a44.12,44.12,0,0,0,17.6,28.27c9.61,4.9,20.85,5.54,31.4,7,15.51,2.67,21.76-7.59,29.69-18.74,8.43-10.44,16.28-37.61,33.31-32.41,15.84,6.05,19,27.07,34.83,33.41,13.37,6.81,30.37,5.32,41.32-5.3,7.75-6.16,16.39-12.73,17.56-23.26,3.72-22.09,3.18-45.51,13.81-65.83,4.2-8.7,9.6-17.46,18.51-21.94,12.94-6.19,27.76-4.5,41.58-4.93,8.58.28,8.56,13.34-.24,13.32-3.22,0-6.44.07-9.65.07-16.68-.09-30.06.12-37.34,17.53-13.39,23.41-7.76,51.85-17.33,76.31-6,10-15.78,17.12-25,24-18,12.42-43.62,8.63-60-4.91-8.84-7.15-12.64-19.79-22.35-25.79C217.65,557.09,209.3,593,178.73,590.59Z"/><path class="cls-1" d="M470.2,585.12c-16.43-6.26-32.2-26.06-32.95-44-.89-28.85,8.33-70.43-19.64-89.52-11.53-7.2-23-15.73-27.9-28.91-4-8.13-6-16.95-7-25.91-2.4-14.29-2.55-27,8.11-38,9.17-9.87,21.31-16,32.38-23.33,12.58-11.55,15.14-29.27,17-45.42.35-9-.58-18,.41-27,1-17.33,10.58-46.68,29.56-50.78,14.9-3,30.28-1.94,45.4-2.25,8.08-1.09,14,4.44,18.53,10.43,7.06,7.83,12.8,16.65,19,25.13,7.76-5.15,14.94-10.39,22.38-15.19,4.86-3.15,11.52,2.19,9.72,7.61-.72,2.79-3.33,4.08-5.53,5.56-4.82,3.21-9.51,6.61-14.31,9.84-4,2.43-7.73,6.23-12.72,6.07-8.42-.32-12.29-9.1-16.66-15-5.32-7.34-10.77-14.81-17.41-21-11.76-.33-23.54.05-35.3.42-4.54.38-9.37.64-13.52,2.66-18.25,16.54-16.06,42.91-16.36,65.32-1.77,13.82-3.79,28.5-11,40.66-9.14,16.83-26.09,20.46-39.28,32.84-5.46,4.68-9.46,11.42-8.42,18.8.72,8.53,1.5,17.25,4.06,25.45,11.17,36.41,40.91,23.15,49.89,68.68,3.37,14.11,3.1,28.7,2.35,43.09-.2,8.78-1.77,17.88.95,26.41,3,9.31,10.3,16.48,17.85,22.36,2,1.39,4.25,2.33,5.9,4.12C480.85,579.58,478.24,586.36,470.2,585.12Z"/><path class="cls-1" d="M591.24,610.56C574.56,609,563.66,595,553.5,583.23c-5-5-7.67-12.92-14.55-15.63-8.12,8.25-18.82,13.88-29.77,17.45-8.7,2.31-45,9.86-39.78-7.29,3.64-6.52,8.73-2.08,14.19-2.52,9.29-.22,18.75-1.3,27.37-4.94a98.87,98.87,0,0,0,14-7.87c3.87-3.38,7.51-8.21,13.14-8.32,10.64.1,17.36,9.36,22.89,17.26,9.92,11,19.53,27,36.3,26.24,8.9.27,17.1-3.26,24.18-8.42,7.67-4.49,14.32-10.93,17.44-19.4,5-14,.87-29.82,3.64-44.28,2.51-14.34,5.45-36.66,14.21-48,7.85-8.94,19.58-12.86,29.64-18.65a159.05,159.05,0,0,0,16.25-11.47c2.33-13.29,1.57-27.38-1.15-40.56-2-15.62-25.92-25.26-36.4-35.65-12.31-14-17.35-33.51-18.49-51.78-1.23-10.85,3-21.08,4.68-31.63,1.86-15.54-7.39-29.09-16.77-40.54-3.81-4.61-7.26-10.85-13.9-11.24-7.71-.52-15.48.35-23.11,1.33-4.67.39-9.29,2.64-14,1.31a5.25,5.25,0,0,1-3.11-8.63c4.29-6.67,19.41-5.89,26.81-7.08,8.16-.55,16.89-1.25,24.4,2.66,6.62,3.7,10.8,10.35,15.42,16.12,10.5,12.67,18.82,28.26,17.66,45.17-.43,8.72-3.81,16-4.74,24.46-1,13.2,2.1,26.48,7.26,38.58,4.11,12.08,14.41,17.21,23.89,24.06,8.09,6.6,17.6,13,21.56,23,4.55,14.61,5,30.49,4.18,45.41-.27,8.1-2.69,14.23-9.92,18.49-9.49,7.57-20.33,12.9-31,18.45-4.14,2.62-8.67,5.16-10.93,9.71-3.57,8.34-5.21,17.39-7.2,26.21a131.56,131.56,0,0,0-3,28.39c-.34,9.4.77,19.25-2.38,28.26-4.06,12.94-13.84,23-25.44,29.62A50.35,50.35,0,0,1,591.24,610.56Z"/><path class="cls-1" d="M528.82,273.31c-12.61-1.08-24.49-7.57-33.15-16.57a115,115,0,0,1-18.33-23.43c-2.81-3.64-4.42-10.18,0-13.22,9.65-3.18,13.86,12.58,19.46,18a91.42,91.42,0,0,0,12.93,13.38c10.29,8.83,25.53,11.43,37.13,3.57a6.74,6.74,0,0,1,9.27,1.73C563,268.61,536.58,273.82,528.82,273.31Z"/><path class="cls-1" d="M610.84,590.21c-4.63-38.66-21.94-81.46,10.08-113.3,15-15.5,38.91-18.45,52.7-35.28,3.5-6.84.63-21.4,0-29.28-.24-2.06-.6-4.14-2.78-4.91-6.12-3.35-12.28-6.61-18.2-10.31-16.79-9.9-29.21-26-39.08-42.5-14.56-26.57-4.16-60.88-4.33-89.8,0-6.64-3.67-12.28-8.27-16.77-3.48-3.09-7.12-8.9-3.49-13.11,7.59-4.8,14.09,4.9,18.3,9.94,8,9.58,7.1,22.66,6.08,34.33-1.12,20.09-5.11,40.78-.32,60.64,2.79,8.46,8.15,15.81,13.49,22.84,7,8.94,14.75,17.69,24.84,23.24,5.43,3.4,11.09,6.42,16.72,9.46,2.83,1.6,5.72,3.33,7.44,6.2,4.78,9.87,5.2,30.36,3.59,41.3-9,22.48-36.59,26.49-53.86,40.41-26.63,21.54-18.16,56.21-12.84,85.41,1.32,6.76,2.75,13.53,3.2,20.42C624.64,597.72,611.75,599,610.84,590.21Z"/><path class="cls-1" d="M65.7,491.48c-12.41-1.16-26.47-4.63-32.84-16.45-6.45-11.61-16.45-35-13.13-48.11,2.58-11.91,8.43-23,14.16-33.68,6-10.47,14-20.57,14.84-33.05-.15-33.19-6.65-30.94-30.64-47.55C-1.14,301.08-1.26,276.49,1,256.66,2.16,243.65,7,229,19.5,222.88c16.33-11.71,40.65-13.08,52-31.09,16.06-50-35-75,18-123.12,6.89-7.55,17.1-8.36,26.7-8.78S135.64,59.54,145,62c10.81,1.67,18.46,18.19,26,15.7,8.69-2.92,10.33-17.88,12.5-25.59,3.67-12.64,6.56-33.94,15.85-42.84C222.69-3,252.48-2.25,276.88,6.71,300.57,15.29,298,51,309.52,70c14.54-8.27,23.87-22.33,42.52-22.69,16.57-.7,35.12,5.27,46.2,18,18.11,22.7,18.25,54.56,8.56,80.82-5.75,19.8,2.17,46.28,25.25,49.12,14.71,2.43,31.42,10.89,32.57,27.52.54,9.38-13.46,9.69-13.4.19-4.57-16.82-27-12.3-38.81-21-16.55-10.25-22.43-32.43-20.25-50.87,1.39-10.82,6.61-20.79,7.55-31.7,1.09-15.56-1.43-31.93-10.95-44.68-9.45-11-26.14-15.85-40.25-13.56-15.73,1-34.79,35.49-49,17.7-11.84-15.92-11-46.35-24.43-58.54-21.11-9.07-45.41-9-66.87-1.1-5.75,8.07-6.87,19-9.85,28.35-3,11.81-4.83,24.41-11.66,34.64-10.38,12.8-25.78,11.48-35.87-.87l.62.6c-10.85-12.68-30.77-8.91-45.62-7.71C95.72,76.75,79,99,78.11,109.6c-.12,31.17,17.45,51.06,6.69,84.78-10.47,30-58.7,28.43-67.49,50.28-4.59,14-6,32.78-.87,46.8C24.1,307,49.58,311.14,56.9,327.67,74,376.1,46.46,386.44,33.32,427c-2.07,6.07-.43,12.66,1.56,18.3,3.63,9.87,6,22,14.78,28.59,11.67,5.35,25.21,5.52,37.75,3.9,6.21-.45,12.28-5.28,18.46-2.57,3.5,1.1,3.87,5.43,1.9,8.1-8.36,9.66-31,9-42.93,8.12Z"/><path class="cls-1" d="M410.68,351.44c-11.26-3.38-1.34-42.26,3.88-49.51,5.59-9.31,14.73-16.1,24.5-20.54,5.27-2.3,11,4,8.38,9-3.17,4.91-9.53,5.45-13.55,9.6C411.58,315.92,426.43,352.71,410.68,351.44Z"/><path class="cls-1" d="M60.51,476.87c-4.64-1.63-5.86-7.26-7.79-11.27-4.28-10.67-3.72-22.59.39-33.23,5.21-14.5,15.52-26.52,20.25-41.29,4.66-11.82,7.32-24.28,9.75-36.55,3.28-7.22,10.72-4,11.91,2.75,1,7.93-2.25,15.76-4.21,23.33A200.78,200.78,0,0,1,81,407.42C74.86,420.85,64.28,432.7,63.08,448c-.56,6.8,1.89,13.59,5.25,19.41C71.22,472.32,65.87,478.72,60.51,476.87Z"/><path class="cls-1" d="M158,575.59c-10.11-1.09-5.37-13.32-4.9-19.94,1.2-8.61,2.51-17.27,2.59-26-.21-18.91-13.25-63.66-39.07-47.25-7.41,4.52-16.32-.78-9.76-9,23.89-20.47,48.05.84,56.29,25.33,7.59,19.22,6.39,40.31,2.92,60.29C164.7,565,166.69,575.47,158,575.59Z"/><path class="cls-1" d="M58.32,477.55a6.86,6.86,0,0,1,.55-.85l0,0h0l-.4.54-.12.27Zm-.63,1.85a5.35,5.35,0,0,1,.41-1.4l-.24.51-.15.64h0v0h0C57.7,479.24,57.7,479.32,57.69,479.4Zm.12,1.9c-1.55-3.83-1.42-9.05,1.54-12.2a6.78,6.78,0,0,1,10.05,1.14c1.9,3,2.71,7.33-.13,10C67.31,485.3,59.83,487.39,57.81,481.3Z"/><path class="cls-1" d="M84.63,355.3c-3.62-5.48-5.39-12.08-9.12-17.57a98.22,98.22,0,0,0-15.06-18.35c-8.2-8.8-20.74-13.59-26.11-24.79-6.51-12.38-3.47-26.78.68-39.42a51,51,0,0,1,18-24.86c12.44-9.56,29-11.34,41.89-20,15.39-14.91,25.3-28.63,17.32-50.57-3.84-12.72-10.55-24.66-12.73-37.84-2.7-23.26,11.8-43.27,27.37-58.73,6.41-5.75,15.36,3.76,9,9.82A114.16,114.16,0,0,0,119,94c-4.3,9.12-8.46,19.3-5.69,29.43,8.19,25.76,25.3,53,6.6,78.23-5.73,7.75-11.71,15.88-19.79,21.31-23.08,12.77-48.72,12.46-54.68,44-6.93,26.17,8.94,27.73,24.34,42.95,11.39,11.51,22.51,25.44,26.09,41.47C96,358.52,89.23,361.08,84.63,355.3Z"/><path class="cls-1" d="M177.73,102.34c-15.58-2.92-12.84-26.92,2.61-13.07,11.2,1.15,22.46-4.53,30.71-11.73,5.42-5.61,7.85-13.31,10.78-20.38,6.46-20.6,6.91-30,31-34.17,11.5-2.24,22.49-3.73,34.12-3.57,8.66.36,8.34,13.46-.39,13.32a144.89,144.89,0,0,0-39.12,5.35c-6.86,1.21-8.59,8.25-9.91,14.08-4.73,14.19-9.5,30.17-22.21,39.26C204.23,98.61,191.21,104.66,177.73,102.34Z"/><path class="cls-1" d="M318.28,93.28C308.67,92.83,300.36,81,314,79.05c5.42,0,10.57,3,16.07,2.23a101.38,101.38,0,0,0,25-10.68c5.16-3.24,9.67-7.11,14.45-10.9,7.56-5.17,14.95,6.63,7.06,11.38l.3-.24.31-.25-1,.79.21-.17h0a105.19,105.19,0,0,1-34.61,20.27,34.13,34.13,0,0,1-24.43,1.6Z"/><path class="cls-2" d="M673.64,412.35c.61,7.88,3.48,22.44,0,29.28-13.8,16.84-37.68,19.78-52.71,35.28-32,31.84-14.71,74.64-10.08,113.3a6.76,6.76,0,0,0,1.84,4.15,34.67,34.67,0,0,1-15.39,3.25c-16.77.8-26.38-15.21-36.3-26.25-5.52-7.89-12.25-17.15-22.89-17.25-5.63.11-9.28,4.95-13.14,8.32a97.42,97.42,0,0,1-14,7.86c-8.61,3.64-18.07,4.73-27.36,5-2.79.23-5.48-.82-7.94-1-1.64-1.76-3.9-2.69-5.84-4.07-7.55-5.88-14.84-13-17.85-22.35-2.72-8.54-1.15-17.64-.95-26.42.75-14.39,1-29-2.35-43.09-9-45.53-38.72-32.28-49.89-68.68-2.55-8.2-3.34-16.92-4.06-25.45-1-7.38,3-14.12,8.42-18.8,13.19-12.38,30.14-16,39.28-32.84,7.18-12.16,9.2-26.84,11-40.66.3-22.41-1.88-48.78,16.36-65.32a21.29,21.29,0,0,1,4.89-1.63,12.83,12.83,0,0,0,2.71,8.41,115,115,0,0,0,18.33,23.43c8.66,9,20.54,15.49,33.15,16.57,7.34.48,31.42-4.16,28.13-14.65,3-1.23,5.64-3.57,8.4-5.24,4.8-3.23,9.49-6.63,14.31-9.84,2-1.32,4.25-2.49,5.23-4.7,3.77.57,7.51-.87,11.28-1.43-1,3.78,2,8.1,4.81,10.61,4.6,4.49,8.32,10.13,8.27,16.77.17,28.92-10.23,63.23,4.32,89.8,9.88,16.51,22.3,32.6,39.09,42.5,5.92,3.7,12.08,7,18.2,10.31C673,408.21,673.4,410.29,673.64,412.35Zm-67.77,11.94a124.74,124.74,0,0,0,.52-16.29,131.4,131.4,0,0,0-11.52-50.31,104.07,104.07,0,0,0-24.29-33.93c-1-.88-2-1.75-3-2.58-10.09-8.28-22.45-14.25-35.53-15.59a58.61,58.61,0,0,0-19,1.09A61.4,61.4,0,0,0,493.6,315a64.65,64.65,0,0,0-5.88,4.26,85.52,85.52,0,0,0-24.45,34,123.57,123.57,0,0,0-8.64,51.34,139.57,139.57,0,0,0,1.9,17.79A126,126,0,0,0,470.43,462a103.55,103.55,0,0,0,14.63,20.14,83,83,0,0,0,10.54,9.55,15.38,15.38,0,0,0,3.3,2.1c.2.09.41.17.61.24a6.54,6.54,0,0,0,1.78,1.61,66.87,66.87,0,0,0,11.85,6,62.71,62.71,0,0,0,13.4,3.59A59.31,59.31,0,0,0,545,505a62.06,62.06,0,0,0,25.83-11.24c9.86-7.28,17.52-17.17,23.17-28A114.91,114.91,0,0,0,605.87,424.29Z"/><path class="cls-2" d="M536.49,492.58q-2.76,0-5.49-.18a59.2,59.2,0,0,1-6.08-1,60.55,60.55,0,0,1-6.2-1.86,66.35,66.35,0,0,1-6.38-2.86q-2.12-1.14-4.16-2.41a6.11,6.11,0,0,0-1.68-.74l-.25-.27a27.71,27.71,0,0,0-3.6-2.95q-1.83-1.45-3.58-3a89.15,89.15,0,0,1-6.89-7.13,96.07,96.07,0,0,1-6.95-9.36,109.81,109.81,0,0,1-6.4-11.53,121.52,121.52,0,0,1-5.46-13.93,129.74,129.74,0,0,1-3.7-15.06v0s0-.06,0-.1a131.22,131.22,0,0,1-1.75-16.46,129.23,129.23,0,0,1,.41-15.24,120.2,120.2,0,0,1,2.32-14.62,108,108,0,0,1,3.63-12.23,101.55,101.55,0,0,1,4.46-10.14,90.06,90.06,0,0,1,5.2-8.65,79.52,79.52,0,0,1,5.55-7,71.51,71.51,0,0,1,5.51-5.36,68.21,68.21,0,0,1,5.72-4.29,62.55,62.55,0,0,1,5.82-3.25,56.8,56.8,0,0,1,5.8-2.29,53.29,53.29,0,0,1,5.86-1.44,51.67,51.67,0,0,1,5.83-.62c.83,0,1.66,0,2.49,0-.73,1-1.41,2-2,2.87-3.47,4.93-6.59,10.06-9.61,15.28-12.47,23.22-23.8,58.62-18.22,85a188.8,188.8,0,0,0,14.91,41.68C517.41,474.94,526.47,484.55,536.49,492.58Z"/><path class="cls-2" d="M701.5,406.79c2.72,13.19,3.48,27.28,1.15,40.57a161.29,161.29,0,0,1-16.25,11.47c-10.06,5.79-21.79,9.71-29.64,18.65-8.76,11.36-11.7,33.69-14.21,48-2.77,14.46,1.36,30.28-3.64,44.28-2.77,7.52-8.32,13.44-14.9,17.81a174.71,174.71,0,0,0-3.08-18.88c-5.32-29.2-13.79-63.88,12.84-85.41,17.27-13.92,44.88-17.93,53.86-40.41,1.61-10.94,1.19-31.43-3.59-41.3-1.72-2.87-4.61-4.6-7.44-6.2-5.63-3-11.29-6.06-16.72-9.47-10.09-5.54-17.8-14.29-24.84-23.23-5.34-7-10.7-14.38-13.49-22.84-4.79-19.86-.8-40.55.32-60.64,1-11.67,1.92-24.75-6.08-34.33-2.13-2.55-4.84-6.28-8-8.73a85.62,85.62,0,0,1,12.81-.2c6.64.4,10.09,6.63,13.9,11.24,9.38,11.45,18.63,25,16.77,40.54-1.63,10.55-5.91,20.78-4.68,31.63,1.14,18.27,6.18,37.8,18.49,51.78C675.58,381.54,699.52,391.18,701.5,406.79Z"/><path class="cls-2" d="M536,244.45c2.76,3.75,5.32,8.65,9,11.81-11.32,6.39-25.5,3.6-35.23-4.75a91.42,91.42,0,0,1-12.93-13.38c-3.29-3.21-6.11-10-9.83-14.38,10.53-.32,21.08-.6,31.61-.3C525.2,229.64,530.65,237.11,536,244.45Z"/><path class="cls-2" d="M451.22,223a7.56,7.56,0,0,0,.83,3.62c-7.1,11-10.86,26-11.45,36.47a141.47,141.47,0,0,0-.37,17.95,5.86,5.86,0,0,0-1.17.37c-9.77,4.44-18.91,11.23-24.5,20.54-4.23,5.87-11.53,32.47-8.19,44.18a84.24,84.24,0,0,0-15.59,12.68c-10.66,11-10.51,23.75-8.11,38,1,9,3.05,17.78,7,25.91a43.63,43.63,0,0,0,10.17,15.42c-11.91,0-24.23-.4-35.2,4.85-8.91,4.48-14.31,13.24-18.51,21.94-10.63,20.32-10.1,43.74-13.81,65.83-1.16,10.53-9.81,17.1-17.56,23.26-10.95,10.62-27.95,12.11-41.32,5.3-15.78-6.34-19-27.36-34.83-33.41-17-5.2-24.88,22-33.31,32.41-7.93,11.15-14.18,21.41-29.69,18.74-4.9-.66-9.94-1.15-14.9-2,5.51-2.12,4.12-10.86,5.35-16.05,3.47-20,4.67-41.07-2.92-60.29-8.24-24.49-32.4-45.8-56.29-25.34a13.13,13.13,0,0,0-1.16,1.69c-6.12-2.58-12.15,2.19-18.32,2.63a97,97,0,0,1-16.9.81c1.25-2.59.43-5.88-1.11-8.32-.09-.13-.18-.25-.28-.37a5.83,5.83,0,0,0-.8-2.48c-3.35-5.82-5.8-12.61-5.24-19.4,1.2-15.29,11.78-27.14,17.94-40.56a201.42,201.42,0,0,0,9.79-26.82c2-7.57,5.19-15.4,4.21-23.33a10.86,10.86,0,0,0-.31-1.28,8.17,8.17,0,0,0,1.17-4.64c-3.58-16-14.7-30-26.09-41.47-15.4-15.22-31.27-16.78-24.34-42.95,6-31.54,31.6-31.22,54.68-44,8.08-5.42,14.06-13.55,19.79-21.3,18.7-25.2,1.58-52.47-6.6-78.23-2.77-10.13,1.39-20.31,5.69-29.43A113,113,0,0,1,135.43,73.5c6.15,1.07,11.76,3.51,16,8.46l-.62-.6c4.7,5.75,10.56,9.12,16.52,9.77.18,4.45,3.48,9.91,10.41,11.21,13.48,2.32,26.5-3.73,37.56-10.91C228,82.34,232.77,66.36,237.5,52.17c1.32-5.83,3.05-12.87,9.91-14.08A145.84,145.84,0,0,1,283,32.78c5.86,14.42,7.66,34.26,16.46,46.1,2.34,2.93,4.81,4.44,7.38,4.92-.54,4,5,9.07,11.2,9.47a34.08,34.08,0,0,0,23.78-1.79,105.22,105.22,0,0,0,34.6-20.26h0l.16-.13h0a6.64,6.64,0,0,0,3.13-3.86,36.57,36.57,0,0,1,9,7.53c9.51,12.75,12,29.12,11,44.69-1,10.9-6.17,20.87-7.56,31.69-2.18,18.44,3.7,40.62,20.25,50.87C424.2,210.68,446.65,206.16,451.22,223Zm-122.13,74.9a131.92,131.92,0,0,0-2.62-34.22c-3-13.9-8.18-27.5-16.44-39.16-7.32-10.33-16.75-19.07-28.3-24.44a59.53,59.53,0,0,0-13.85-4.38,55.88,55.88,0,0,0-19.77,0,64.38,64.38,0,0,0-18.73,6.67c-13.58,7.32-24.35,19.18-32.16,32.33a126.72,126.72,0,0,0-16.48,50.91,130,130,0,0,0,5.07,53.6,102.87,102.87,0,0,0,12.28,25.87A83.73,83.73,0,0,0,207.68,377c.76.78,1.51,1.6,2.34,2.31a13,13,0,0,0,1.67,1.23,5.38,5.38,0,0,0,1.1,1.24l.18.16.41.34.31.26.4.32.1.08.18.12a65,65,0,0,0,15.23,9.08,56.17,56.17,0,0,0,21.68,4.31c1.6,0,3.19-.07,4.79-.2,13.6-1.28,26.36-7.33,36.63-16.26,14.75-12.81,24.58-30.2,30.45-48.67A135,135,0,0,0,329.09,297.88Z"/><path class="cls-2" d="M315.53,280.49a130.2,130.2,0,0,1,.3,16.17,121.9,121.9,0,0,1-5.43,30.84l-.06.2a118.91,118.91,0,0,1-5.09,13.14,109.44,109.44,0,0,1-5.95,11,96.47,96.47,0,0,1-6.4,8.91,87.59,87.59,0,0,1-6.78,7.25,72.8,72.8,0,0,1-6.52,5.36,67.27,67.27,0,0,1-6.44,4,60.81,60.81,0,0,1-6.32,2.86,59.35,59.35,0,0,1-6.27,1.86,56.41,56.41,0,0,1-5.78.89,52.89,52.89,0,0,1-5.49.11c-.55,0-1.09-.07-1.64-.12,17.26-8.89,30.94-38.64,36.33-54.19,14.7-38.26,13.79-75-13.65-107.22A91,91,0,0,0,258,208.13q1,0,2,0a52.78,52.78,0,0,1,5.48.61,52.2,52.2,0,0,1,5.38,1.34,54.1,54.1,0,0,1,5.39,2.09,59.33,59.33,0,0,1,5.43,3,67,67,0,0,1,5.51,4,70.38,70.38,0,0,1,5.89,5.56,75.16,75.16,0,0,1,5.49,6.72,87.11,87.11,0,0,1,5.53,8.92,101.82,101.82,0,0,1,5.06,11.29,116.61,116.61,0,0,1,4,13.46A123,123,0,0,1,315.53,280.49Z"/><path class="cls-2" d="M112.28,159.74c8,21.94-1.93,35.66-17.32,50.57-12.87,8.66-29.45,10.44-41.89,20a51,51,0,0,0-18,24.86c-4.15,12.64-7.2,27.05-.68,39.42,5.37,11.2,17.91,16,26.11,24.79a98.67,98.67,0,0,1,15.07,18.35c3.35,4.94,5.12,10.77,8.06,15.88-.16.29-.32.59-.47.93-2.43,12.26-5.09,24.72-9.75,36.54-4.73,14.77-15,26.79-20.25,41.29C49,443,48.44,454.93,52.72,465.61c1.32,2.72,2.3,6.2,4.25,8.66a12.22,12.22,0,0,0-.13,2.18,47,47,0,0,1-7.18-2.6c-8.8-6.6-11.15-18.72-14.78-28.59-2-5.64-3.63-12.23-1.56-18.3C46.47,386.44,74,376.1,56.9,327.67c-7.33-16.53-32.8-20.7-40.47-36.21-5.1-14-3.71-32.76.87-46.8,8.8-21.85,57-20.3,67.5-50.28,10.76-33.72-6.81-53.61-6.69-84.78C79,99,95.72,76.75,105.8,74.25c3.71-.3,7.75-.76,11.88-1.08C106.16,86.91,97.4,103.38,99.55,121.9,101.73,135.08,108.45,147,112.28,159.74Z"/><path class="cls-2" d="M155.72,529.67c-.08,8.71-1.39,17.37-2.59,26-.37,5.22-3.4,13.93.3,17.91a46.33,46.33,0,0,1-9.18-3.43,44.12,44.12,0,0,1-17.6-28.27c-3.36-15.7.92-32.05-2.4-47.69a48.8,48.8,0,0,0-5.72-12.85C143.11,468.19,155.52,511.22,155.72,529.67Z"/></g></g></svg>