<svg xmlns="http://www.w3.org/2000/svg" viewBox="0 0 961.31 1137.82"><defs><style>.cls-1{fill:#fa6732;}.cls-2{fill:#f7c9ba;}</style></defs><g id="Layer_2" data-name="Layer 2"><g id="Layer_1-2" data-name="Layer 1"><path class="cls-1" d="M195.88,646a103.28,103.28,0,0,1-7.16,102.73,107.18,107.18,0,0,1-20.35,22.33,100.42,100.42,0,0,1-21.12,13.36l-.17.08-.24.11a108.89,108.89,0,0,1-12.23,4.81A103.1,103.1,0,0,1,111,794.07c-2.7.2-5.39.32-8.09.32h-.88c-1.32,0-2.62,0-3.93-.12l-1.72-.1-1.46-.1-.19,0h-.13q-2.45-.19-4.89-.51l-.45-.07L86.39,793A107.78,107.78,0,0,1,72,789.55a103.93,103.93,0,0,1-28-13.83,100.64,100.64,0,0,1-19.26-17.46,3.11,3.11,0,0,1-.23-.28l-.13-.15A106,106,0,0,1,9.26,734a103.29,103.29,0,0,1-2.53-79.59,103.21,103.21,0,0,1,33.9-45.29,104.38,104.38,0,0,1,30.72-16.06,106.9,106.9,0,0,1,29.42-5,103,103,0,0,1,29.28,3.54,99.93,99.93,0,0,1,18.9,7.18,110.52,110.52,0,0,1,12.44,7.29,105.81,105.81,0,0,1,12.17,9.77,99.05,99.05,0,0,1,9.59,10.27c-3.73,2.46-7.44,4.92-11.14,7.42l0,0a106,106,0,0,0-8.89-9.22,99.6,99.6,0,0,0-8.94-7.05,104.7,104.7,0,0,0-9.84-5.89l-.92-.47a106.2,106.2,0,0,0-10.79-4.55,102,102,0,0,0-11.42-3.14,101.27,101.27,0,0,0-11-1.56,106.47,106.47,0,0,0-11.44-.17,104.65,104.65,0,0,0-11.84,1.36,100.8,100.8,0,0,0-11,2.72,108.65,108.65,0,0,0-10.7,4.17,105.31,105.31,0,0,0-10.71,5.91,102.38,102.38,0,0,0-9.17,6.74,103.42,103.42,0,0,0-9,8.66,99.37,99.37,0,0,0-7.27,9.21,106,106,0,0,0-6.21,10.47A89,89,0,0,0,15.1,673.2a103.43,103.43,0,0,0-1.58,11.36,100.7,100.7,0,0,0-.13,11.26,108.68,108.68,0,0,0,1.36,11.66l0,.14a96.74,96.74,0,0,0,2.68,10.7A101.9,101.9,0,0,0,21.59,729a104.38,104.38,0,0,0,5.8,10.58,97.52,97.52,0,0,0,7.19,9.75s0,0,0,0a104.32,104.32,0,0,0,8.2,8.49,104.51,104.51,0,0,0,9.77,7.66,107.58,107.58,0,0,0,10,5.92A106.33,106.33,0,0,0,73.44,776a104.39,104.39,0,0,0,11.79,3.25q3.76.75,7.58,1.21l.48.07c1,.11,2,.2,3,.29h.11a97.66,97.66,0,0,0,11.22.14,101.41,101.41,0,0,0,11.54-1.34,101.89,101.89,0,0,0,11-2.73l.09,0a99.82,99.82,0,0,0,10.54-4.09l.34-.16a108.08,108.08,0,0,0,10.07-5.52,103.19,103.19,0,0,0,9.74-7.15,105.52,105.52,0,0,0,8.81-8.5,101.38,101.38,0,0,0,7.56-9.61,96.39,96.39,0,0,0,5.83-9.84,90,90,0,0,0,7.93-22.67,101.47,101.47,0,0,0,1.61-11.51,89.24,89.24,0,0,0-1.19-22.55,104.21,104.21,0,0,0-2.73-11,102.27,102.27,0,0,0-3.95-10.28Q190.33,649.91,195.88,646Z"/><path class="cls-1" d="M101.3,727.29a48.15,48.15,0,0,0,4.77-.72,45.75,45.75,0,0,0,4.47-1.3q2.29-.88,4.47-2a44.89,44.89,0,0,0,4-2.48,46.4,46.4,0,0,0,3.76-3.09,43.21,43.21,0,0,0,3.13-3.36,44.82,44.82,0,0,0,2.68-3.75c.8-1.34,1.52-2.71,2.19-4.11s1.15-2.83,1.62-4.28.76-2.9,1-4.38.39-3,.48-4.48,0-3.08-.11-4.63-.39-3.09-.7-4.62-.8-3-1.31-4.49a47.12,47.12,0,0,0-2-4.42,45.67,45.67,0,0,0-2.51-4.06,47.92,47.92,0,0,0-3.08-3.75,45.52,45.52,0,0,0-3.37-3.14,45.18,45.18,0,0,0-3.84-2.73,43,43,0,0,0-4-2.1c-1.39-.61-2.8-1.15-4.24-1.62s-2.93-.77-4.42-1a42.19,42.19,0,0,0-4.49-.48,44.77,44.77,0,0,0-4.63.09c-1.51.15-3,.39-4.5.69a44.26,44.26,0,0,0-4.53,1.31,45.07,45.07,0,0,0-4.33,1.9,46.39,46.39,0,0,0-4.21,2.57c-1.27.94-2.49,1.93-3.66,3a44.2,44.2,0,0,0-3.24,3.47A42.93,42.93,0,0,0,68.16,673a46.62,46.62,0,0,0-2.23,4.19c-.58,1.35-1.1,2.72-1.55,4.13a42.5,42.5,0,0,0-1.07,4.49c-.24,1.5-.39,3-.48,4.53a44.06,44.06,0,0,0,.09,4.45,47.6,47.6,0,0,0,.73,4.74c.36,1.51.8,3,1.3,4.46a47.37,47.37,0,0,0,2,4.43c.75,1.37,1.56,2.69,2.44,4a47.48,47.48,0,0,0,3.13,3.8,45.5,45.5,0,0,0,3.45,3.21,44.67,44.67,0,0,0,3.65,2.6c.64.39,1.28.76,1.94,1.12a10.22,10.22,0,0,1,1.83,1.25,6.84,6.84,0,0,1,1.58.37l.74.29c.74.28,1.48.54,2.23.78a43.89,43.89,0,0,0,4.5,1.07,45.16,45.16,0,0,0,4.5.48A43,43,0,0,0,101.3,727.29ZM82.15,738c-.13,0-.25-.08-.38-.12l-.81-.31-.74-.28a6.77,6.77,0,0,1-2.14-1.35,13.52,13.52,0,0,1-4.17-1.74c-1.21-.72-2.4-1.47-3.56-2.27a48.9,48.9,0,0,1,40.29-87.4,50.06,50.06,0,0,1,19.37,10,48.79,48.79,0,0,1,13.21,17.77,49.38,49.38,0,0,1,3.22,28.58,48.87,48.87,0,0,1-10.13,21.82,50,50,0,0,1-17,13.35,49,49,0,0,1-19.39,4.68c-.51,0-1,0-1.54,0A49.5,49.5,0,0,1,82.15,738Z"/><path class="cls-1" d="M218.87,561.46c2.24,7.19,4.36,14.42,6.49,21.64q6.34-4,12.78-7.82,4.35-2.58,8.72-5.13c-4.48-21.89-11.1-42.35-18.55-63.26-4.51-10.94-6.66-24.06-15.25-32.61C193.78,487.78,213.33,542.28,218.87,561.46ZM271.13,618C286,673.05,315.41,753,384.67,748c17-2.32,34.55-5.76,48.12-16.93,21.25-16.28,39.58-38.35,48-64C491.34,617,500.54,566.51,506.2,515.67,425.25,543.49,348,580.6,271.13,618ZM558.67,499.5C547.6,560.32,542,622.58,524.48,682c-6.11,18.67-17.38,34.73-29.21,50.16-11.5,16.11-24.34,31.16-39.18,44.3-21.35,23.35-17.34,67-17,96.91,3.07,52.08,13.66,95.93,45.69,138.14,17.46,21.58,39.67,39.51,62.36,55.37,35.88,18.28,76.44,29.4,116.9,24.63C757.31,1085,850.92,1030,889.81,943.08c24.52-65,31.57-135.28,22.72-204-8.61-58.58-25.32-117.76-59.52-166.77C819.8,524,781,502.45,723.4,493.77a450.47,450.47,0,0,0-72.11-6C620,487.76,588.83,491.35,558.67,499.5Zm71.61,638c-95.14-7.23-172.11-58.26-212.22-145.41-14.52-36.65-23.13-75.26-33.44-113.22-3.39-15-5.86-30.11-8.26-45.25-1.87-8.7-1.36-18.47-6.83-25.92-12.19-13.1-29.42-20.16-43.73-30.63-47.18-32.06-80.35-82.3-98.44-135.61-28.14,16.62-53.22,37.76-79.55,57-6.54,5.62-15.31-4.86-8.55-10.23,26.7-19.6,52.29-41,80.81-57.91l2.91-1.19c4-1.63,7.93-3.3,11.76-5.21,2.56-1.27,5-2.68,7.53-4.11,3.59-2.08,7.23-4.08,10.81-6.17q6.3-3.71,12.46-7.62c.76-.47,1.52-1,2.27-1.44,0,.06,0,.13,0,.18,70.63-34.25,141.59-68.35,215.45-95.09a7,7,0,0,0,2.09-.39c8-2.77,16-5.59,23.93-8.63,1.83-.71,3.64-1.44,5.46-2.19h.07c8-1.77,15.94-3.4,23.85-5.35,5.13-1.27,10.27-2.51,15.38-3.82,4.89-1.25,9.78-2.54,14.68-3.72q14.87-3.6,29.76-7.1a6,6,0,0,0,1.33-.48c72.87-9.4,167.43-.94,219.95,38.85,86,72.44,112.5,196.1,109.26,303.88-.63,32.74-8.69,64.3-16.55,95.83C904,951.94,885.1,984,861.35,1011.27c-80.19,85.87-222,127.24-327,63.14-61.75-42.47-100.78-101.24-106.25-176.87-3.61-37.55-9.57-102.4,18.95-130.85a252.46,252.46,0,0,0,37.27-42.13c9.07-12.32,18.73-24.46,24.39-38.83,11.46-29.26,15.91-60.84,20.94-91.72,4.15-30.32,10.66-60.25,15-90.55-7.7,2.39-15.39,4.82-23.1,7.22l-1.38.44c-4,38.18-10.3,76-17.43,113.74-5.1,30.13-9.68,61.72-30.61,85.55-12.9,16.88-28.79,32.07-47.92,41.6-25.55,9.73-55.37,14.45-80.93,2.34C293.78,731,273,673.56,259,624.19q-9.92,5.16-19.69,10.56C256.87,689.38,291.73,740.42,340.77,771c40.93,25.17,45.19,25.41,50.94,74.12,3.79,26.69,11.8,52.4,18.61,78.4,6.79,25.84,14,51.93,25.84,76,47.61,86.33,128.39,128.07,226,125.31,109.85-8.61,191.09-45,240.36-148,26.67-53.95,43.1-113.23,45.45-173.43-1.05-95.89-27.89-193.59-87.41-269.86-27.87-32.42-64.64-58.3-106-70a436.78,436.78,0,0,0-164.44-8.15c-6.09.41-12.17.88-18.23,1.62-4.6.56-9.14,1.39-13.67,2.29-4.86,1-9.7,2-14.49,3.32A295.77,295.77,0,0,0,514.56,472q-2.53,1-5,2c-86.12,24.69-169.85,58.44-247.71,102.89l.18.91-.11.05c-5.31,2.28-10.6,4.64-15.8,7.18Q238,589,230,593.17c-3.47,1.83-7,3.66-10.33,5.64a62.3,62.3,0,0,0-9.8,6.84c-3.27,2.87-6.31,6-9.29,9.19-24.48,15.78-48.81,31.83-71.45,50.06-8.67,4.14-12-6-6.14-11.51,27.86-24.15,60.14-42.5,90.73-62.88-9.46-37-29.55-76.37-18.8-114.95,19.75-33.67,37.25-2.59,43.77,20.68,8,21.92,15.3,44.15,20.36,66.93,82.35-46.59,171.1-81.41,262.3-106.32,6.22-12.57,20.88-19.51,31.89-8.09,59.3-13.94,121.1-14.22,180.92-3.3,50.24,7.51,95.69,35.18,130.08,72C930.47,595.5,959.47,700,961.31,801.09c-3,84-30.79,168.36-80.64,236.26-52.61,72.28-147.45,100.47-234.33,100.47Q638.26,1137.82,630.28,1137.5Z"/><path class="cls-1" d="M467.15,61.91c-61.61-4.3-51.67-74.58,28.6-59.9,19.71,1.39,21.33,20.9-.5,13.49-16.83-3.21-37.45-4.05-51.37,7.46-10.7,13.36,8.23,25.47,20.68,25.37,14.3,2.7,27.9-5.5,36.07-16.85,3.29-3.61,3.42-9.52,7.64-12.18C535.55,14.48,499.38,67.66,467.15,61.91Z"/><path class="cls-1" d="M258.16,52.59c25.28-2.11,42.93-24.09,10.28-34.68-14.26-3.07-28.85,2.4-41.18,9.31-5,2.63-8.27,7.77-13.5,9.91C225.42,48.5,242.25,52.64,258.16,52.59Zm-9,13a81.67,81.67,0,0,1-31.91-9.26c-6.56-3.66-21.69-13.56-9.7-20.07-8.08-13.93,23.32-26.11,33.29-29.39,10.63-3.48,22.38-4.36,33.19-1.18C325.11,25.5,291.69,70.61,249.18,65.54Z"/><path class="cls-1" d="M210.7,470.66c-10-1.19-5.21-14.06-7.58-20.84A261.61,261.61,0,0,0,196,419.35c-16.43-47.52-39.42-92.47-61-137.82-12.79-27.2-28-54.7-39.94-82-9.36-20.54-17-42.11-17.66-64.86-1.82-48,33.79-92.62,79.21-105.82,11.46-3.4,23.35-5.05,35.2-6.46,6.73-.65,19.28-3.31,20.2,6.3-2.06,7.39-11.1,6-17,6.76-15.7,1.77-31.63,4.06-46.24,10.35-62,31.44-70.82,88.56-41.81,147.69,21.64,47.05,46.39,92.61,67.41,140,17,36.91,35.29,73.83,41.85,113.88C216.62,454.9,221.91,469.56,210.7,470.66Z"/><path class="cls-1" d="M537,453.41a6.7,6.7,0,0,1-4.48-8.29q7.11-21.24,14.06-42.53C558.45,364,573.62,326.65,589,289.35c20.92-57.44,52.28-118.56,45.31-181C629.68,73.4,598.54,51,567.44,40a230.66,230.66,0,0,0-25.91-7.43c-8-3.22-36.64-2.53-32.8-15.21,2.16-3.59,7.8-4.15,11.28-2.92,14.09,3.15,28.39,5.53,42.22,9.77,141.32,42.62,75.83,172.44,39.13,270-16.61,39.91-32.31,80.17-45.11,121.49-3.67,11.09-7.29,22.19-11,33.26A6.76,6.76,0,0,1,537,453.41Z"/><path class="cls-2" d="M929.06,820.68c3.24-107.77-23.31-231.43-109.26-303.87C767.29,477,672.72,468.56,599.85,478a6.58,6.58,0,0,1-1.33.48q-14.89,3.51-29.76,7.1c-4.9,1.18-9.79,2.47-14.68,3.72-5.12,1.31-10.25,2.55-15.38,3.81-7.91,2-15.9,3.59-23.85,5.36h-.07c-1.82.75-3.63,1.48-5.46,2.19-7.91,3-15.92,5.85-23.93,8.63a7,7,0,0,1-2.09.39c-73.86,26.74-144.82,60.84-215.45,95.09a1.21,1.21,0,0,0-.05-.18L265.54,606q-6.17,3.91-12.46,7.61c-3.58,2.1-7.22,4.1-10.81,6.18-2.48,1.43-5,2.84-7.53,4.11-3.83,1.91-7.81,3.58-11.76,5.21l-2.91,1.19c-8.28,4.92-16.31,10.2-24.19,15.72-.93.64-1.85,1.3-2.77,2s-1.85,1.31-2.77,2-1.84,1.31-2.75,2l-2.75,2c-12.92,9.46-25.57,19.34-38.39,28.94a47.26,47.26,0,0,0-3.23-10.59,50.18,50.18,0,0,0-7.79-12.4c11.85-9.22,24.12-17.9,36.58-26.31.92-.63,1.85-1.25,2.78-1.87l2.78-1.86.11-.07,5.47-3.62h0q8.67-5.71,17.4-11.31c3-3.18,6-6.32,9.28-9.19a63.24,63.24,0,0,1,9.8-6.84c3.39-2,6.87-3.81,10.34-5.64q8-4.2,16.11-8.17c5.2-2.54,10.48-4.91,15.8-7.18l.11-.05-.18-.91c77.86-44.45,161.59-78.2,247.71-102.89q2.52-1,5-2a293.14,293.14,0,0,1,29.18-9.38c4.79-1.29,9.63-2.35,14.49-3.32,4.53-.9,9.07-1.73,13.66-2.29,6.07-.74,12.15-1.21,18.24-1.63a436.78,436.78,0,0,1,164.44,8.16c41.36,11.7,78.13,37.58,106,70,59.52,76.27,86.36,174,87.41,269.86-2.35,60.2-18.79,119.48-45.45,173.43-49.27,103-130.51,139.41-240.36,148-97.62,2.76-178.4-39-226-125.31-11.85-24-19.05-50.13-25.84-76-6.81-26-14.82-51.71-18.61-78.4-5.75-48.71-10-49-50.94-74.12-49-30.59-83.9-81.63-101.49-136.26q9.78-5.38,19.68-10.57c14,49.38,34.82,106.84,84.31,130.17,25.56,12.11,55.37,7.39,80.93-2.34,19.12-9.53,35-24.72,47.92-41.6,20.93-23.83,25.51-55.42,30.61-85.55,7.13-37.72,13.47-75.56,17.43-113.75l1.38-.43c7.71-2.4,15.4-4.83,23.1-7.22-4.32,30.29-10.83,60.23-15,90.55-5,30.88-9.48,62.46-20.95,91.72-5.65,14.36-15.31,26.51-24.39,38.83a251.1,251.1,0,0,1-37.27,42.12C418.54,795.14,424.5,860,428.11,897.54c5.47,75.62,44.5,134.39,106.25,176.87,104.95,64.1,246.8,22.73,327-63.14C885.1,984,904,951.94,912.51,916.52,920.37,885,928.43,853.43,929.06,820.68Z"/><path class="cls-2" d="M133.83,688.73c.11,1.55.15,3.09.11,4.63s-.25,3-.48,4.48-.62,2.94-1,4.38-1,2.88-1.62,4.28-1.39,2.77-2.19,4.11a44.82,44.82,0,0,1-2.68,3.75,43.21,43.21,0,0,1-3.13,3.36,44.39,44.39,0,0,1-3.76,3.09,46.18,46.18,0,0,1-4,2.48q-2.19,1.1-4.48,2a45.75,45.75,0,0,1-4.47,1.3,47.71,47.71,0,0,1-4.77.72,42.89,42.89,0,0,1-4.39.1,42.38,42.38,0,0,1-4.5-.48,43.89,43.89,0,0,1-4.5-1.07c-.75-.24-1.49-.5-2.23-.78l-.74-.29a6.84,6.84,0,0,0-1.58-.37,10.77,10.77,0,0,0-1.83-1.25c-.66-.36-1.3-.74-1.94-1.12a43,43,0,0,1-3.65-2.6,45.5,45.5,0,0,1-3.45-3.21,35.12,35.12,0,0,1-5.57-7.78A47.37,47.37,0,0,1,65,704c-.5-1.47-.94-3-1.3-4.46a44.85,44.85,0,0,1-.73-4.74,44.12,44.12,0,0,1-.09-4.45c.09-1.52.24-3,.48-4.53a43.09,43.09,0,0,1,1.07-4.49,40.19,40.19,0,0,1,1.55-4.13A46.62,46.62,0,0,1,68.16,673a42.93,42.93,0,0,1,2.68-3.73,42.5,42.5,0,0,1,3.24-3.47c1.17-1.06,2.39-2.05,3.66-3A48.87,48.87,0,0,1,82,660.25q2.11-1.05,4.33-1.89a44.26,44.26,0,0,1,4.53-1.31c1.49-.3,3-.54,4.5-.69a44.85,44.85,0,0,1,4.64-.09c1.5.08,3,.25,4.48.48a45.08,45.08,0,0,1,4.42,1.06c1.44.46,2.85,1,4.24,1.6s2.68,1.34,4,2.11a45.18,45.18,0,0,1,3.84,2.73,43.61,43.61,0,0,1,3.37,3.15,36.24,36.24,0,0,1,5.59,7.8,47.12,47.12,0,0,1,2,4.42,46.13,46.13,0,0,1,1.3,4.49A42.61,42.61,0,0,1,133.83,688.73Z"/><path class="cls-2" d="M192.82,686.29a105.39,105.39,0,0,1-.11,11.52,101.47,101.47,0,0,1-1.61,11.51A90,90,0,0,1,183.17,732a96.39,96.39,0,0,1-5.83,9.84,101.38,101.38,0,0,1-7.56,9.61,105.52,105.52,0,0,1-8.81,8.5,103.19,103.19,0,0,1-9.74,7.15,108.08,108.08,0,0,1-10.07,5.52l-.34.16a99.82,99.82,0,0,1-10.54,4.09l-.09,0a101.89,101.89,0,0,1-11,2.73A101.41,101.41,0,0,1,107.63,781a97.66,97.66,0,0,1-11.22-.14H96.3c-1-.09-2-.18-3-.29l-.48-.07Q89,780,85.23,779.25A104.39,104.39,0,0,1,73.44,776a106.33,106.33,0,0,1-10.83-4.61,107.58,107.58,0,0,1-10-5.92,104.51,104.51,0,0,1-9.77-7.66,104.32,104.32,0,0,1-8.2-8.49s0,0,0,0a97.52,97.52,0,0,1-7.19-9.75A104.38,104.38,0,0,1,21.59,729a101.9,101.9,0,0,1-4.13-10.65,96.74,96.74,0,0,1-2.68-10.7l0-.14a108.68,108.68,0,0,1-1.36-11.66,100.7,100.7,0,0,1,.13-11.26A103.43,103.43,0,0,1,15.1,673.2a89,89,0,0,1,7.81-22.47,106,106,0,0,1,6.21-10.47,99.37,99.37,0,0,1,7.27-9.21,103.42,103.42,0,0,1,9-8.66,102.38,102.38,0,0,1,9.17-6.74,105.31,105.31,0,0,1,10.71-5.91A108.65,108.65,0,0,1,76,605.57a100.8,100.8,0,0,1,11-2.72,104.65,104.65,0,0,1,11.84-1.36,106.47,106.47,0,0,1,11.44.17,101.27,101.27,0,0,1,11,1.56,102,102,0,0,1,11.42,3.14,106.2,106.2,0,0,1,10.79,4.55l.92.47a104.7,104.7,0,0,1,9.84,5.89,99.89,99.89,0,0,1,8.29,6.49,414.77,414.77,0,0,0-36.91,27.41,50,50,0,0,0-14.89-6.69,48.91,48.91,0,0,0-40.29,87.4c1.16.8,2.35,1.55,3.56,2.27a13.62,13.62,0,0,0,4.17,1.74,7,7,0,0,0,2.14,1.35l.74.28.81.31c.12,0,.25.08.38.12a49.5,49.5,0,0,0,16.21,2.79c.52,0,1,0,1.55,0A48.94,48.94,0,0,0,119.29,736a50,50,0,0,0,17-13.35,48.87,48.87,0,0,0,10.13-21.82c.09-.54.18-1.09.26-1.64a7,7,0,0,0,1.1-.78c14.07-10.27,27.78-21.08,41.79-31.47q1.14,4.11,1.93,8.29A105,105,0,0,1,192.82,686.29Z"/><path class="cls-2" d="M246.86,570.15q-4.38,2.55-8.72,5.13-6.44,3.84-12.78,7.81c-2.13-7.21-4.25-14.44-6.49-21.63-5.54-19.19-25.09-73.68-5.81-87.19,8.59,8.56,10.74,21.68,15.25,32.62C235.76,527.8,242.37,548.25,246.86,570.15Z"/><path class="cls-2" d="M268.43,17.91c32.66,10.59,15,32.57-10.27,34.68-15.91,0-32.75-4.09-44.4-15.46,5.23-2.14,8.46-7.28,13.5-9.91C239.59,20.31,254.18,14.84,268.43,17.91Z"/><path class="cls-1" d="M505.57,23c-5.26-9.82,5.16-15.49,11.21-6.68C521.15,23.59,509.93,30.3,505.57,23Z"/><path class="cls-2" d="M495.25,15.5a27.06,27.06,0,0,0,8.91,1.67,10,10,0,0,0,1.17,5.35c-1.66,2.86-2.42,6.46-4.71,9C492.46,42.84,478.86,51,464.56,48.33c-12.45.1-31.38-12-20.68-25.38C457.8,11.45,478.42,12.29,495.25,15.5Z"/></g></g></svg>