<svg xmlns="http://www.w3.org/2000/svg" viewBox="0 0 611.6 713.05"><defs><style>.cls-1{fill:#1a8dcc;}.cls-2{fill:#8bcbed;}</style></defs><g id="Layer_2" data-name="Layer 2"><g id="Layer_1-2" data-name="Layer 1"><path class="cls-1" d="M162.15,69.7c-.62,2-1.23,4.1-1.85,6.14Q150,110.19,139.71,144.56,129,180.3,118.28,216.06,107.18,253.19,96,290.28,85.14,326.75,74.19,363.2,63,400.42,51.88,437.63T29.49,512.36Q18.3,549.8,7.05,587.23c-.49,1.65-1,3.31-1.48,5-2.05-4.78-2.72-9.58-.65-13.73l.17-.28A143.3,143.3,0,0,1,0,564.37l2.16-7.22q11.16-37.33,22.37-74.66,11.19-37.14,22.27-74.31c7.38-24.65,14.83-49.27,22.16-73.94s14.81-49.43,22.22-74.15q10.91-36.33,21.78-72.67,10.64-35.56,21.31-71.13Q139.43,99.15,144.56,82c2.44-2,4.92-4,7.46-5.93A86.12,86.12,0,0,1,162.15,69.7Z"/><path class="cls-1" d="M462.33,690.23c6.33-1.82,12,7.49,5.45,12A52.28,52.28,0,0,1,458,708Z"/><path class="cls-1" d="M611.6,137.19l-2.28,9.27q-9.48,38.68-19,77.35-9.61,39.38-19.29,78.72-10,40.67-19.93,81.33c-6.59,26.87-13.09,53.75-19.75,80.59-6.61,26.63-13.08,53.3-19.6,80q-10.05,41.1-20.15,82.19-1.89,7.73-3.79,15.45c-5.55,5.18-11.29,10.16-17.31,14.85q6.56-26.74,13.08-53.49,9.94-40.71,19.94-81.39,9.87-40.31,19.76-80.6t19.79-80.77q9.81-40,19.6-80,9.63-39.27,19.25-78.52,9.28-38,18.63-76l0-.16q2.49,2.2,4.8,4.6C607.5,132.78,609.55,135,611.6,137.19Z"/><path class="cls-1" d="M493.88,617.49q-1.11,4.56-2.24,9.11l-3.78,15.45c-5.81,5.42-11.83,10.62-18.16,15.5-20.28,17.26-45.36,23.06-71.41,18.62l.17,0c-95-14.34-190.59-26.4-285-44.3-34.26-8.29-73.08-13.44-99.63-38.52-6.51-8.62-10.49-18.7-13.78-29l2.16-7.22q2.37-7.93,4.75-15.88a308.3,308.3,0,0,0,10.64,32c4.58,13.69,17.58,21.22,30.24,26.41,74.52,27.12,154.79,32.75,232.59,45.37,30.54,4.51,61,9.59,91.53,14.18,31.61,4.47,62.08,11.72,88.61-11.42A325.19,325.19,0,0,0,493.88,617.49Z"/><path class="cls-1" d="M316.53,70.34a12.19,12.19,0,0,1-.14,7,38.36,38.36,0,0,1-2,6.1c-19.57-2.33-39.08-5.12-58.47-8.75-15.83-3.06-32-4.27-48-2.34-14.2,1.31-29.05,2.46-41.39,10.27-10.48,6-19.06,14.67-27.95,22.76-.44.34-.88.69-1.31,1.06Q140.91,94.2,144.56,82c2.44-2,4.92-4,7.46-5.93,11.13-8.12,24.07-13.67,37.81-15.14,19.72-2.76,39.86-4.38,59.6-.9C271.71,63.79,294.1,67.61,316.53,70.34Z"/><path class="cls-1" d="M366.75,75.51l-.92.22a28.15,28.15,0,0,1-5.92.63,27.52,27.52,0,0,1-7.25-1,25.81,25.81,0,0,1-4.09-1.51C354.63,74.46,360.69,75,366.75,75.51Z"/><path class="cls-1" d="M611.6,137.19l-2.28,9.27-1.53,6.24-.27-.31c-11.15-13.25-23.1-24.2-39-30.89-20.91-8.39-43.66-9.86-65.63-14-24.32-3.9-48.37-9.45-72.81-12.63-11.88-1.27-23.77-2.41-35.68-3.52a117.17,117.17,0,0,1,.27-13.5c16,1.42,32,3,48,5.33,33.19,5.85,66.31,12.12,99.63,17.26,23.28,3.85,46.55,12.87,63.17,30.11C607.5,132.78,609.55,135,611.6,137.19Z"/><path class="cls-1" d="M422.45,712.17c-41.41-6.1-82.13-16.36-123.4-23.29-52.21-7.51-104.4-15.43-155.67-28-42.3-10.63-90.69-15.73-122.67-48.34C13.14,605-.55,589.44,4.92,578.46a5.14,5.14,0,0,1,8.6-.74c3.65,3.5,3.69,9,6.53,13.09,13.17,20.33,35.44,33.14,58.24,40,31.53,9.91,64.14,15.82,96.24,23.55C216.94,663.65,260,669.58,302.92,676c29.47,5.24,58.75,11.54,88.16,17.14,14.9,3,29.86,6.41,45.12,6.58,8.67-.21,17.07-3.52,24.09-8.52s14.75,6,7.5,11c-13,9.64-29.62,12.5-45.4,9.93Z"/><path class="cls-1" d="M468.11,186.05c11.17,1.33,16.25-5.45,11-15.66-5.14-9.2-13.94-15.23-22.73-20.62-13.6-8.07-29.37-10.26-42-19.71-8.52-7.27-15.61-16.71-18.52-27.65-3.9-16.77.86-34.2.19-51.22.12-21.78-11.06-39.08-34.62-37.84-17.16.39-40.66,20.89-43.32,38a69.1,69.1,0,0,0-1.87,18.24,11.55,11.55,0,0,1,.16,7.74,45.93,45.93,0,0,1-12.48,21.58c-9.94,8.3-22.85,12.53-34.93,16.68-12.45,3.27-25.49,5.13-36.79,11.61-6.27,4.59-15.26,13.21-11.14,21.55,3.23,5.47,7.29,10.82,13.44,13.11,11.43,5,24,5.06,36.21,6.73l-.19,0-.18,0c48.49,6.2,96.64,12.55,145.53,13C433.3,183,450.53,186.48,468.11,186.05ZM445.25,198.4c-11.49-1.18-22.86-3.47-34.42-3.81-13.89-.19-27.79-.45-41.64-1.67-33.88-2.51-68.09-7.22-101.71-11.37l.43.06H268c-14.63-1.8-30-2.28-43.11-9.72-6.24-3.34-10.77-9.08-14.46-15-7.47-10.08-3.08-23.76,4.75-32.28,17-20.07,46.73-17.15,68.3-29,10.23-3.55,20.6-13.45,19.44-24.89a81.37,81.37,0,0,1,5-31.67c4.38-11.17,13.46-19.95,22.95-27C341,3.89,353.85-1.22,367,.25c25,.6,40.56,21,42.1,44.69,1.29,16.74-2,33.42-1.25,50.15,1.85,11.2,9.25,21.25,18.77,27.24,6,3.18,12.77,5.22,18.89,7.78a116.42,116.42,0,0,1,33,18.95c13.77,11.22,24,33.34,7,46.51C475.5,202.17,457,198.75,445.25,198.4Z"/><path class="cls-1" d="M360.67,63.05c.58,0,1.17-.12,1.75-.21s1.19-.28,1.77-.45,1.08-.4,1.61-.64,1.05-.56,1.56-.87,1-.68,1.43-1.06.81-.75,1.19-1.14.79-.94,1.15-1.43.63-1,.91-1.5.49-1,.71-1.58.39-1.26.55-1.91.21-1.19.28-1.79,0-1.19,0-1.78-.12-1.21-.22-1.81-.28-1.17-.45-1.74-.43-1.13-.67-1.67-.56-1-.87-1.55-.62-.87-.95-1.28-.83-.91-1.27-1.34-.87-.72-1.32-1-1-.66-1.56-1-1.1-.51-1.66-.74-1.16-.36-1.75-.5-1.19-.21-1.79-.28-1.24,0-1.85,0-1.22.11-1.82.21-1.15.27-1.72.44-1.1.42-1.64.66-1,.54-1.51.84-.95.67-1.4,1-.86.79-1.26,1.21-.77.92-1.13,1.4-.64,1-.93,1.52-.51,1.08-.73,1.64-.35,1.13-.5,1.7-.21,1.21-.28,1.83,0,1.25,0,1.88.12,1.19.21,1.78.28,1.21.47,1.81.4,1,.63,1.57.53,1,.83,1.49l.6.88.06.07.34.44c.4.45.81.88,1.25,1.3s.9.76,1.37,1.11,1,.64,1.52.93a18.47,18.47,0,0,0,1.71.75c.58.2,1.16.37,1.75.52s1.16.2,1.75.26S360,63.07,360.67,63.05Zm-8,12.34a26.78,26.78,0,0,1-14.24-9.68l0-.06s0,0,0,0l-.16-.23a21.69,21.69,0,0,1-2.3-3.72,27.73,27.73,0,0,1-2.85-14.57,26.93,26.93,0,0,1,4.47-12.75A27.72,27.72,0,0,1,347,25.7a27.27,27.27,0,0,1,7.91-2.81,30.42,30.42,0,0,1,7.32-.37,27.25,27.25,0,0,1,12.05,4,27,27,0,0,1,12.63,22.83A27.19,27.19,0,0,1,381,66.27,26.36,26.36,0,0,1,377.3,70a27.06,27.06,0,0,1-11.47,5.69,28.22,28.22,0,0,1-5.92.63A27.39,27.39,0,0,1,352.67,75.39Z"/><path class="cls-1" d="M409.57,610.35c-21.19-1.91-41.87-7.2-63-9.49-32.13-5-64.15-8.94-96.23-14-28.17-3.64-56.39-7-84.44-11.49-18.24-4.42-36.72-7.55-55.09-11.39-34-7-58.23-12.67-45.48-54,6.94-21,12.21-42.08,18.23-63.27,6.33-22.66,14-46,20.23-68.48C118.81,322,130.66,265,146.69,209.1c5.4-19.15,10.47-38.4,15.55-57.64,4.55-15.7,8.73-43.4,30.38-40.65,6.73.94,13.26,2.92,20,4,5.11.08,13.29,2.56,12.12,9-5.85,11-26.57-.52-36.46.11-9,7.49-9.8,20.8-13.24,31.36q-5.64,21.81-11.63,43.52c-11.13,38-20.2,76.47-29.68,114.87-10,41.94-20.87,83.75-34,124.71-7.46,25.94-14,52.08-22.28,77.47-4.42,18.68-3.74,24.91,15.94,30.45,14.85,3.56,29.77,6.9,44.81,9.52,39.57,9.28,80,13.14,120.18,18.9,41,6.06,82,11.36,122.85,17.92,11.52,2.39,21.47,4.14,32.88,4.63,10.82-2.61,10.47-15.64,12.72-24.51,1.92-10.19,5.38-20.05,7.1-30.28,1.55-10.24,2.84-19,5.13-28.87,10-38.56,19.32-77.24,27.79-116.17,5.12-22,7.53-44.54,14.49-66.1l0,.1a1.05,1.05,0,0,1-.05.19c7.48-23.67,16.2-47.12,20.43-71.67,1.91-12.8,3.61-24.2,6-36.68,1.27-14.19,19.06-51.54,11.5-61.07-11.83-8.38-27.81-5.09-41.46-5.34a6.93,6.93,0,0,1-8.29-6.34,6.73,6.73,0,0,1,6.4-6.91c6.9-.3,13.81-.44,20.72-.31,12.76.1,27.65,2.09,35.4,13.47,5.45,10.77.8,23.91-1.51,35a276.91,276.91,0,0,0-13.37,55.56c-2,13.06-3.84,26.57-7.79,39.11-4.39,16.51-9.88,32.43-15.14,48.56-6.43,20.18-9,41.2-13.47,61.84-8.87,40.7-18.69,81.15-29,121.49-2.71,11.23-3.62,22.78-6.1,34-2,8-4.31,16-5.89,24.14-2.06,8.78-2.85,18.74-8.87,25.84C425,607.61,417.63,611.84,409.57,610.35Z"/><path class="cls-1" d="M460.48,699.12c-3.17-5.87,2.81-10.73,6.36-14.65,3.81-5.57,7-11.79,8.13-18.51,1.43-9.3,1.73-18.71,2.26-28.1,1-8.66,13.83-7.53,13.28,1.23-1.12,15.31-.29,31.66-8.15,45.43C478.78,691.23,469.18,706.77,460.48,699.12Z"/><path class="cls-1" d="M455.12,249.93l-5.74-.91-20.3-3.2-54.42-8.59q-28.1-4.46-56.2-8.87-29.1-4.58-58.21-9.19-27.57-4.38-55.17-8.71L195.75,209a10.29,10.29,0,0,1-6.05-3.36,6,6,0,0,1-1.7-4.82,5,5,0,0,1,1.76-2.7,10.05,10.05,0,0,1,4.59-2.19,12.89,12.89,0,0,1,4.91.15l3.5.56L216,198.72q13.92,2.17,27.83,4.39l57.18,9q28.35,4.47,56.71,9,27.43,4.36,54.9,8.67c14.42,2.28,28.86,4.49,43.28,6.83q2.81.47,5.61.89l.38.06.69.11a6.68,6.68,0,0,1,5.2,7c-.26,3.14-3,6.11-6.28,6.11A42.09,42.09,0,0,1,455.12,249.93Z"/><path class="cls-1" d="M449.73,278.66l-.49-.09h0c-8.11-1.54-16.26-2.9-24.39-4.33q-23.24-4.1-46.47-8.26-27.45-4.89-54.89-9.75c-18.88-3.32-37.75-6.74-56.63-10.06q-29-5.11-57.92-10.29l-12.47-2.22-2.7-.48a10.3,10.3,0,0,1-4.54-2.26c-1.94-1.6-3.64-4.35-2.46-6.87s4.82-4,7.57-4.06a22.18,22.18,0,0,1,4.51.57l3.86.68,14.24,2.54L246.17,229q28.46,5.06,56.92,10.11,28.8,5.1,57.58,10.24,26,4.63,52,9.23,15.36,2.71,30.7,5.46c2.77.49,5.55.95,8.31,1.47a3,3,0,0,1,.43.08h0l.46.09A6.64,6.64,0,0,1,451,278.77,7.13,7.13,0,0,1,449.73,278.66Z"/><path class="cls-1" d="M386.06,292.29c-66.27-8.46-131.51-23.9-197.59-33.48-10.74-4.2-5.35-14.1,4.62-12.6,45.46,6.31,90.06,15.9,135.25,23.57,19.53,3.39,39,7.15,58.75,9.22C395.76,279.8,394.79,292.9,386.06,292.29Z"/><path class="cls-1" d="M403.87,323.2,403,323l-.23,0-.6-.1c-1.27-.23-2.55-.44-3.82-.66l-15.21-2.61-54.66-9.42q-26.55-4.56-53.09-9.13Q246.19,296,217,291q-11.61-2-23.2-4c-3.65-.62-7.3-1.26-10.95-1.89a19.76,19.76,0,0,1-3.15-.64,11.22,11.22,0,0,1-3.83-2.21c-1.79-1.57-3.29-4.18-2.22-6.56a6.35,6.35,0,0,1,2.39-2.54,10.36,10.36,0,0,1,5.9-1.6,23.84,23.84,0,0,1,3.75.53l3.67.63c4.72.8,9.43,1.62,14.14,2.43,9.71,1.68,19.42,3.33,29.12,5q28.82,5,57.64,9.92c17.88,3,35.75,6.16,53.62,9.23L394,308l9.33,1.61c1,.17,2.14.29,3.16.54a6.87,6.87,0,0,1,4.2,2.8,6.65,6.65,0,0,1-5.56,10.39A6.91,6.91,0,0,1,403.87,323.2Z"/><path class="cls-1" d="M349.68,340.93c-31.14-7.18-63.95-11.68-95.16-16.44-25.13-3.54-49.87-7.89-75.06-10.18-7.83,0-14.35-9-4.58-12.73,5.65-1.61,11.64.42,17.39.65,19.72,2.24,38.74,5.42,57.6,8.14l-.6-.08c35,5.32,70.25,9.83,104.72,18,8,2.8,3.87,15.27-4.32,12.59Z"/><path class="cls-2" d="M519.16,162.17c7.56,9.53-10.23,46.88-11.5,61.07-2.36,12.48-4.06,23.88-6,36.68-4.22,24.48-12.9,47.87-20.37,71.48,0,0,0-.06,0-.1-7,21.56-9.38,44.11-14.49,66.1q-12.72,58.38-27.79,116.16c-2.29,9.85-3.58,18.64-5.13,28.88-1.72,10.23-5.18,20.09-7.1,30.28-2.25,8.87-1.9,21.89-12.72,24.51-11.41-.49-21.36-2.24-32.88-4.64-40.83-6.55-81.87-11.85-122.85-17.91-40.17-5.76-80.61-9.62-120.18-18.9-15-2.62-30-6-44.81-9.52C73.71,540.72,73,534.49,77.45,515.81c8.28-25.39,14.82-51.54,22.28-77.47,13.1-41,24-82.77,34-124.71,9.48-38.39,18.55-76.9,29.67-114.86q6-21.72,11.64-43.53c3.44-10.56,4.21-23.87,13.24-31.36,5.94-.38,15.8,3.62,24,4.49-5.82,8.43-8.22,19.83-1.77,28.54,3.69,5.91,8.22,11.65,14.46,15,13.13,7.44,28.49,7.92,43.12,9.72h-.13l-.43-.05c33.62,4.14,67.82,8.85,101.71,11.36,13.85,1.22,27.75,1.48,41.64,1.67,11.56.34,22.94,2.63,34.42,3.81,11.77.35,30.25,3.77,40.3-2.83,13.68-10.61,9.7-27,.43-38.89C497.48,156.24,509.66,155.44,519.16,162.17ZM467.8,244.7a6.68,6.68,0,0,0-5.2-7l-.69-.11-.38-.06q-2.8-.42-5.6-.89c-14.43-2.34-28.86-4.55-43.29-6.83q-27.45-4.33-54.9-8.67-28.35-4.5-56.71-9l-57.18-9q-13.92-2.19-27.83-4.39l-13.26-2.09-3.5-.56a12.89,12.89,0,0,0-4.91-.15,10.05,10.05,0,0,0-4.59,2.19,5,5,0,0,0-1.76,2.7,6,6,0,0,0,1.7,4.82,10.29,10.29,0,0,0,6.05,3.36l9.33,1.47q27.58,4.36,55.17,8.71,29.12,4.62,58.21,9.19,28.11,4.41,56.2,8.87l54.43,8.59,20.29,3.2,5.74.91a42.26,42.26,0,0,0,6.4.88C464.8,250.81,467.54,247.84,467.8,244.7Zm-10.14,28.87a6.7,6.7,0,0,0-5.09-7.93l-.46-.08h0l-.43-.08c-2.76-.52-5.54-1-8.31-1.47q-15.35-2.72-30.7-5.46-26-4.58-52-9.23-28.8-5.15-57.59-10.24-28.47-5-56.92-10.11l-29.24-5.19-14.25-2.53c-1.29-.24-2.57-.47-3.86-.69a22.1,22.1,0,0,0-4.51-.57c-2.74.07-6.32,1.39-7.57,4.06s.52,5.27,2.46,6.87a10.3,10.3,0,0,0,4.54,2.26l2.7.48,12.47,2.22q29,5.13,57.92,10.29c18.88,3.33,37.75,6.74,56.63,10.06Q350.91,261,378.35,266q23.23,4.15,46.47,8.26c8.13,1.44,16.29,2.79,24.39,4.33h0l.49.09a7.13,7.13,0,0,0,1.3.11A6.69,6.69,0,0,0,457.66,273.57ZM411.72,318a6.73,6.73,0,0,0-1-5.05,6.9,6.9,0,0,0-4.2-2.8c-1-.25-2.12-.37-3.16-.54L394,308l-50.15-8.63c-17.88-3.07-35.74-6.19-53.62-9.23q-28.83-4.92-57.64-9.92c-9.7-1.69-19.41-3.34-29.12-5l-14.14-2.43-3.67-.63a23.84,23.84,0,0,0-3.75-.53,10.44,10.44,0,0,0-5.9,1.6,6.41,6.41,0,0,0-2.39,2.54c-1.08,2.38.43,5,2.22,6.56a11.31,11.31,0,0,0,3.83,2.21,19.79,19.79,0,0,0,3.15.65L193.78,287q11.61,2,23.2,4,29.19,5,58.41,10.06,26.53,4.6,53.09,9.14l54.66,9.41,15.21,2.61c1.27.23,2.55.43,3.82.66l.6.1.23,0,.87.16a6.91,6.91,0,0,0,1.27.12A6.75,6.75,0,0,0,411.72,318Zm-25.66-25.69c8.73.61,9.7-12.48,1-13.29-19.72-2.07-39.22-5.83-58.75-9.22-45.2-7.67-89.79-17.26-135.25-23.58-10-1.5-15.36,8.41-4.62,12.61C254.55,268.39,319.79,283.83,386.06,292.29Zm-36.38,48.64c8.18,2.67,12.33-9.78,4.32-12.59-34.28-8.17-69.31-12.67-104.13-18l-.07,0h-.09l-.26,0h0c-18.72-2.72-37.59-5.86-57.16-8.08-5.75-.23-11.74-2.26-17.39-.65-9.77,3.76-3.25,12.75,4.58,12.73,25.2,2.28,49.93,6.64,75.06,10.18C285.73,329.25,318.54,333.75,349.68,340.93Z"/><path class="cls-2" d="M597,140.93q-7.49,30.62-15,61.22-9.6,39.25-19.25,78.52-9.8,40-19.6,80-9.9,40.38-19.79,80.77T503.56,522q-10,40.69-19.94,81.39-3.86,15.72-7.69,31.45-7.51,6.71-15.41,13c-26.53,23.14-57,15.89-88.61,11.42-30.53-4.59-61-9.67-91.53-14.18-77.8-12.62-158.07-18.25-232.59-45.37C35.12,594.53,22.13,587,17.55,573.31c-1.23-3.09-2.41-6.22-3.52-9.36q7.74-25.8,15.46-51.59Q40.67,475,51.88,437.63T74.19,363.2Q85.13,326.75,96,290.28q11.11-37.11,22.25-74.22,10.7-35.76,21.42-71.5,8.23-27.43,16.43-54.86a83.93,83.93,0,0,1,10.37-7.13c12.34-7.82,27.19-9,41.39-10.27,16-1.93,32.22-.73,48,2.34,14.83,2.78,29.72,5.06,44.66,7-3.51,6.51-10.34,11.62-17.1,14-18.75,10.3-43.69,9.44-61,22.24-2.59-2.14-6.79-3.06-9.87-3.11-6.71-1-13.24-3-20-4-21.65-2.75-25.83,24.95-30.38,40.65-5.08,19.24-10.15,38.49-15.55,57.64C130.66,265,118.8,322,103.78,378.21c-6.21,22.46-13.9,45.82-20.23,68.48C77.53,467.88,72.26,489,65.32,510c-12.75,41.32,11.46,47,45.48,54,18.37,3.83,36.86,7,55.09,11.39,28.05,4.51,56.27,7.85,84.45,11.49,32.07,5.1,64.09,9,96.22,14,21.14,2.29,41.82,7.57,63,9.49,8.07,1.49,15.45-2.74,21.22-8,6-7.1,6.81-17.06,8.87-25.84,1.58-8.14,3.86-16.11,5.89-24.14,2.47-11.26,3.4-22.81,6.1-34,10.31-40.33,20.13-80.79,29-121.5,4.45-20.63,7-41.65,13.47-61.83,5.26-16.13,10.75-32.05,15.15-48.56,3.94-12.53,5.82-26.05,7.78-39.11a277.56,277.56,0,0,1,13.36-55.56c2.32-11.13,7-24.27,1.52-35-7.75-11.38-22.64-13.36-35.4-13.47-6.91-.13-13.82,0-20.72.31a6.57,6.57,0,0,0-3.15,1,118.93,118.93,0,0,0-27.16-14.43c-6.12-2.56-12.9-4.59-18.89-7.78-9.52-6-16.91-16-18.77-27.24,0-.8-.06-1.62-.08-2.42q11.16,1.06,22.31,2.25c24.44,3.18,48.49,8.73,72.81,12.63,22,4.09,44.72,5.56,65.63,14C579.55,126.14,588.69,132.84,597,140.93Z"/><path class="cls-2" d="M474.81,653.49l1.62-1.34c-.32,4.62-.75,9.23-1.46,13.81-1.09,6.72-4.32,12.94-8.13,18.51a61.39,61.39,0,0,0-5.34,6.06,7,7,0,0,0-1.21.68c-7,5-15.42,8.31-24.1,8.52-15.25-.17-30.21-3.61-45.11-6.58-29.41-5.6-58.69-11.9-88.16-17.14-42.92-6.43-86-12.36-128.39-21.67-32.1-7.73-64.71-13.64-96.24-23.55-14.9-4.48-29.58-11.49-41.64-21.5,23.53,12.06,51.4,16.48,76.76,22.61,94.46,17.9,190,30,285,44.3l-.17,0c26,4.44,51.13-1.36,71.41-18.62l.84-.65.14-.11,1.92-1.52.65-.52Z"/><path class="cls-2" d="M479.1,170.39c5.26,10.21.19,17-11,15.66-17.58.43-34.81-3-52.25-4.52-48.76-.47-96.79-6.79-145.17-13l-.18,0-.18,0c-12.06-1.63-24.53-1.74-35.84-6.69-6.15-2.29-10.21-7.64-13.44-13.11-4.12-8.34,4.87-17,11.14-21.55,11.3-6.48,24.34-8.34,36.79-11.61,12.08-4.15,25-8.38,34.93-16.68a48.26,48.26,0,0,0,10.51-15.48c.1-.25.21-.5.3-.75s.2-.5.29-.75l.24-.67c.19-.54.36-1.07.52-1.62.08-.25.16-.51.23-.76.14-.52.27-1,.39-1.55a14.52,14.52,0,0,0,.55-4.85,1.49,1.49,0,0,0,0-.21s0-.1,0-.14a7.16,7.16,0,0,0-.18-1,2.37,2.37,0,0,0-.09-.36c0-.12-.07-.24-.11-.36a5.82,5.82,0,0,0-.3-.79,69.52,69.52,0,0,1,1.86-18.24c2.68-17.07,26.17-37.57,43.33-38C385,12.11,396.16,29.41,396,51.19c.35,8.84-.77,17.8-1.38,26.71,0,.08,0,.17,0,.25,0,.34,0,.68-.07,1-.06,1-.12,2-.16,3q0,.89-.06,1.77c0,.31,0,.61,0,.92V85c0,.38,0,.76,0,1.14s0,.74,0,1.11c0,.71,0,1.42,0,2.12l0,1c0,.35,0,.69,0,1a62.47,62.47,0,0,0,1.46,11c2.91,10.93,10,20.38,18.52,27.65,12.63,9.45,28.4,11.64,42,19.71C465.16,155.16,474,161.19,479.1,170.39ZM381,66.27a27,27,0,0,0-18.75-43.75,30.42,30.42,0,0,0-7.32.37A27.27,27.27,0,0,0,347,25.7a27.72,27.72,0,0,0-9.48,8.66,26.93,26.93,0,0,0-4.47,12.75,27.63,27.63,0,0,0,2.85,14.57,22.27,22.27,0,0,0,2.29,3.72c.06.08.11.16.17.23v0l0,.06a26.37,26.37,0,0,0,10.14,8.17,25.81,25.81,0,0,0,4.09,1.51,27.52,27.52,0,0,0,7.25,1,28.15,28.15,0,0,0,5.92-.63l.55-.13a2.49,2.49,0,0,0,.37-.09A27.32,27.32,0,0,0,377.3,70,26.36,26.36,0,0,0,381,66.27Z"/></g></g></svg>