<svg xmlns="http://www.w3.org/2000/svg" viewBox="0 0 826.83 608.29"><defs><style>.cls-1{fill:#fa6732;}.cls-2{fill:#f7c8b9;}</style></defs><g id="Layer_2" data-name="Layer 2"><g id="Layer_1-2" data-name="Layer 1"><path class="cls-1" d="M346.88,556.63c.08.12.14.24.21.36l.1.16a90,90,0,0,0,5.06,7.48,87,87,0,0,0,6.57,7.53,85.6,85.6,0,0,0,7.43,6.56,76.44,76.44,0,0,0,16.87,10,87.5,87.5,0,0,0,9.68,3.41A91.91,91.91,0,0,0,403,594.22a88.05,88.05,0,0,0,10.39.74,86.7,86.7,0,0,0,10.19-.63,89.13,89.13,0,0,0,10.24-2,78,78,0,0,0,26.82-13.22l.23-.18a77.56,77.56,0,0,0,14-13.93,89.46,89.46,0,0,0,5.39-8,88.37,88.37,0,0,0,4.58-9.06,84.35,84.35,0,0,0,3.3-9.35,87.2,87.2,0,0,0,2.13-10.13A90.29,90.29,0,0,0,491,518a86,86,0,0,0-.64-10.15A76.17,76.17,0,0,0,485,487.93a85.43,85.43,0,0,0-4.62-9.29,76.5,76.5,0,0,0-11.93-15.49,89.37,89.37,0,0,0-7.44-6.59,90.27,90.27,0,0,0-8.28-5.59,86.64,86.64,0,0,0-8.66-4.37,90.42,90.42,0,0,0-9.64-3.4,86.08,86.08,0,0,0-10.07-2.09A77,77,0,0,0,393.5,443a89,89,0,0,0-9.56,3.27,77.27,77.27,0,0,0-25,16.76,77.46,77.46,0,0,0-19.74,33.8,91,91,0,0,0-2.09,10,89.74,89.74,0,0,0-.75,10.23,87.85,87.85,0,0,0,.64,10.51,91.11,91.11,0,0,0,2,10.1,86.88,86.88,0,0,0,3.3,9.68,86,86,0,0,0,4.15,8.46c.12.21.23.41.33.63a.47.47,0,0,1,.06.09h0v0h0Zm44.33,48.82A92.11,92.11,0,0,1,364.8,594a90.27,90.27,0,0,1-23-21.15,84.89,84.89,0,0,1-6.28-9.32.59.59,0,0,1,0-.08l0-.06-.07-.12-.21-.39c-.33-.54-.64-1.1-.95-1.66-.62-1.14-1.22-2.28-1.79-3.44a90.53,90.53,0,0,1-5.17-12.87A92.73,92.73,0,0,1,323.06,516a90.72,90.72,0,0,1,13.71-46.28A89.43,89.43,0,0,1,356,447.78a92.86,92.86,0,0,1,26.29-15.12A90.62,90.62,0,0,1,485.1,462a93.36,93.36,0,0,1,13.79,24.95A90.14,90.14,0,0,1,504.15,513a90.57,90.57,0,0,1-35,76.27,92.57,92.57,0,0,1-24.49,13.51A90.58,90.58,0,0,1,419,608.11c-1.8.12-3.61.18-5.42.18A91.53,91.53,0,0,1,391.21,605.45Z"/><path class="cls-1" d="M483.28,393.26c11.06,7,22.51,13.57,32.68,21.86,11.29,9.34,23.34,20.64,39.17,18.91,16.77-.86,30.49-16.65,29.66-33.29-1.8-21.32-30.91-43.79-47.73-55.07-15.26-10.62-33.43-16.49-50.72-22.75-25.12-8.94-51.13-15.77-77.8-17.7-18.69-1.36-37.4,2.3-55.14,8-38.31,11-73.91,30.62-105,55.43-14.25,12.69-22,30.38-12.27,48.41,11.22,23,31.37,19.6,49.28,6.41,14.26-10.52,28.17-21.55,42.72-31.68,11-7.52,22.66-14.89,36-17.05,5.51-.9,11.13-1.19,15.79-1.5a72.32,72.32,0,0,0,7.35-.43c5.67-.52,11.68-1,16,1.33a139,139,0,0,1,52.31,7.95l-.11,0h0A275.06,275.06,0,0,1,483.28,393.26Zm60,53.28c-17.78-2.94-29.68-17.52-43.8-27.3-7.59-4.63-14.92-9.7-22.52-14.29-13.41-5.94-27.1-11.68-41.48-14.77A146.56,146.56,0,0,0,418,387.52c-2.69-.17-5.42-.12-8.14-.07-5.61.1-11.23.19-16.62-1.56-12.11.77-23.09.29-34.47,4-20.83,8.32-37.58,24.17-55.72,37-16.53,13.43-39.28,27.73-60.38,16.27-24.48-14.08-32.19-50.22-14-72.34,11.37-15.27,28-25.34,43.84-35.34,18.22-11.43,37.44-21.64,57.79-28.71,22.62-7.93,46-15.18,70.17-15.2,26.42.68,52.58,6.29,77.62,14.56,28.79,9.19,57.62,19.66,81.26,39.06,15.08,12.52,33.33,28.86,37.79,48.58,5.84,28.45-17.13,53.74-44.55,53.74A44.7,44.7,0,0,1,543.24,446.54Z"/><path class="cls-1" d="M383.57,228.46c13.37.3,26.79.59,40.06,2.5,26.21,3.5,52.8,5.27,78.64,11,20.9,5.67,41.5,13.3,59.38,25.73,17.46,10.61,32.76,24.28,48.83,36.82,12.27,9.63,23.57,24.31,40.5,24.27,14.5-1.46,27.41-11.83,31.5-25.89,8.69-22.95-38.07-58.38-55-69.74-30.59-21.72-66-34.49-101.61-45.26C489.86,176.8,453,167.14,415.21,165c-72.83-4.87-142.28,25.06-206.42,56-27.41,14.6-59.91,28.34-73.21,58.42-5,9.5-8.19,21-2.82,31,3.79,7.22,7,13.49,15.9,14.48,18.54,4.93,36.63-16,51-25.7,8.56-6.42,17.14-12.79,25.58-19.36,37.56-31.52,83.87-45.27,131.84-51,5.63-.66,11.19-1.54,16.73-1.54A39.19,39.19,0,0,1,383.57,228.46ZM647,342c-16.22-1.39-28.56-12.78-40.17-23.09-7.88-6.79-16.15-13.09-24.27-19.59-25.83-21.76-55.81-38.82-89.12-45.71-32.29-5-64.81-9.57-97.43-11.58a198.35,198.35,0,0,1-23.9-1.43,396.38,396.38,0,0,0-39.42,5.56c-28.1,5.89-56.69,14-80.46,30.56-18.18,12.69-35.54,26.5-53.24,39.86-11.89,9-24,19.55-39,22.35-10.18.45-21.69-1.18-29.63-8a59.42,59.42,0,0,1-12.4-22.46c-4.42-14.52,2.36-29.22,9.36-41.75,13.87-26.1,42.28-39.86,67.28-53.35,68.23-34,143.16-66.63,220.77-61.66,36.43,1.92,72,10.77,106.89,21.12,44.45,13,88.46,29.43,125.26,58.34,18.1,13.53,48.7,40.47,49.35,64.06.2,24.94-23,46.87-47.64,46.87C648.47,342.09,647.74,342.07,647,342Z"/><path class="cls-1" d="M586.9,115.35c27.54,11.49,51.41,29.61,75.46,47,18.41,14.37,37.25,28.18,56.34,41.64,20.52,15.33,45.25,35.53,72.15,33.92,11.94-1.59,25.64-.42,22.37-17.55-2.71-30.3-27.44-53.42-48-73.56-25.9-22.87-54.84-42-84.87-58.95C644.26,67,607,47.6,566.81,36.1c-39-10.46-78.62-13.77-118.46-19-65.56-8.18-132.81-3.57-195.09,19.4C183,62.15,116.09,98.74,60.47,149.14c-15.14,14-31.18,28.24-41,46.69C15.1,205.43,6.65,222,20.75,227c17,8.44,27.14,5.56,41.63-5.31C121.89,178.48,178.26,128.53,249,104.26,307.3,88.82,368.47,85,428.54,80.45c5.09-.32,10.18-.48,15.24-.48C493.54,80,541.77,95,586.9,115.35Zm184,134.09c-24.7-7.84-45.5-23.16-65.7-38.86-20.58-14-39.9-29.69-60.05-44.26C591,125,524.53,99,456.51,93.53c-26.93-1.23-53.85,2.25-80.66,4.32-39.33,3.11-78.16,9.64-116.94,16.53-32.32,12.91-64.35,27.49-93.17,47.35-31.55,21.6-61,46.08-92,68.35C64.49,236,55.48,243.55,44.4,245.25c-14.86.64-32.32-4-41.79-16.07-18.34-44.64,64.8-103.69,95.91-127.7,67.88-47,145.26-83.34,227-97.18C375.45-3.44,426.28.36,476.07,7.12c33.59,4.29,66.11,8,98.09,17.23,55.9,17.29,107.19,47,156.07,78.63,34,23.21,65.29,49.32,86.53,84.61,8.5,15.12,14.18,36,6.35,52.3-7.1,8.5-21.21,11.49-34.3,11.49A80.47,80.47,0,0,1,770.89,249.44Z"/><path class="cls-2" d="M403,594.22a92.4,92.4,0,0,1-10.15-2.13,86.62,86.62,0,0,1-9.67-3.41,87.72,87.72,0,0,1-8.76-4.44,89.6,89.6,0,0,1-8.11-5.51,85.91,85.91,0,0,1-7.43-6.57,84,84,0,0,1-6.58-7.53,87.31,87.31,0,0,1-5.05-7.47l-.1-.16-.22-.37v0l0,0h0l-.06-.09c-.11-.21-.22-.42-.34-.62a88.48,88.48,0,0,1-4.15-8.47,86.88,86.88,0,0,1-3.3-9.68,93.77,93.77,0,0,1-2-10.09,77.06,77.06,0,0,1,.12-20.74,88.41,88.41,0,0,1,2.09-10,78,78,0,0,1,7.85-18.44,76.88,76.88,0,0,1,11.89-15.36,88,88,0,0,1,7.54-6.64,90.81,90.81,0,0,1,8.22-5.53A78.64,78.64,0,0,1,393.51,443a78,78,0,0,1,20.7-2.67,90.83,90.83,0,0,1,10.16.75,84,84,0,0,1,10.06,2.1,89.58,89.58,0,0,1,9.64,3.39,86.64,86.64,0,0,1,8.66,4.37,90.37,90.37,0,0,1,8.28,5.6,89.25,89.25,0,0,1,7.44,6.58,76.93,76.93,0,0,1,11.93,15.5,84.39,84.39,0,0,1,4.62,9.28,76.45,76.45,0,0,1,5.32,19.88A86,86,0,0,1,491,518a90.29,90.29,0,0,1-.77,10.52,86.77,86.77,0,0,1-2.13,10.13,83.64,83.64,0,0,1-3.3,9.35,87.36,87.36,0,0,1-4.58,9.06,89.46,89.46,0,0,1-5.39,8,77.55,77.55,0,0,1-14,13.93l-.23.18a91.19,91.19,0,0,1-8.16,5.45,77.08,77.08,0,0,1-18.66,7.77,85,85,0,0,1-10.24,2,88.92,88.92,0,0,1-10.19.64A90.25,90.25,0,0,1,403,594.22Z"/><path class="cls-2" d="M516,415.12c-10.17-8.29-21.62-14.86-32.68-21.87a276.84,276.84,0,0,0-27.72-11.2,139,139,0,0,0-52.2-7.91c-4.35-2.37-10.37-1.85-16-1.34a69.68,69.68,0,0,1-7.35.44c-4.66.31-10.28.6-15.79,1.5-13.38,2.15-25,9.53-36,17.05-14.55,10.13-28.46,21.16-42.73,31.68-17.9,13.19-38.05,16.61-49.27-6.42-9.76-18-2-35.71,12.27-48.4,31.08-24.82,66.68-44.42,105-55.43,17.74-5.7,36.45-9.36,55.14-8,26.67,1.93,52.68,8.77,77.8,17.71,17.29,6.26,35.46,12.13,50.72,22.75C553.88,357,583,379.42,584.79,400.73c.83,16.64-12.89,32.44-29.66,33.29a29.73,29.73,0,0,1-3.24.18C537.63,434.2,526.47,423.81,516,415.12Z"/><path class="cls-2" d="M650.91,328.82c-16.89,0-28.18-14.65-40.44-24.27-16.06-12.54-31.36-26.22-48.83-36.82-17.87-12.43-38.48-20.06-59.37-25.73-25.84-5.77-52.43-7.54-78.64-11-13.27-1.91-26.69-2.2-40.06-2.51-8.8-2.24-17.55-.64-26.49.41-48,5.77-94.28,19.52-131.84,51-8.44,6.57-17,12.94-25.58,19.36-14.37,9.71-32.46,30.63-51,25.7-8.92-1-12.11-7.26-15.9-14.48-5.37-10-2.17-21.5,2.82-31,13.3-30.08,45.8-43.83,73.21-58.42,64.14-31,133.59-60.91,206.42-56.05,37.78,2.13,74.65,11.79,110.66,22.91,35.63,10.77,71,23.55,101.61,45.27,16.93,11.36,63.69,46.79,55,69.73-4.1,14.07-17,24.43-31.51,25.9Z"/><path class="cls-2" d="M718.7,203.94c-19.09-13.46-37.93-27.27-56.35-41.65-24.05-17.33-47.92-35.45-75.46-46.94C537.17,93,483.68,77,428.53,80.45,368.47,85,307.3,88.82,249,104.26c-70.72,24.27-127.1,74.22-186.61,117.45C47.89,232.57,37.74,235.46,20.75,227,6.64,222,15.1,205.43,19.5,195.83c9.79-18.45,25.83-32.65,41-46.69,55.63-50.4,122.49-87,192.8-112.66,62.28-23,129.52-27.58,195.08-19.4,39.84,5.25,79.43,8.55,118.46,19C607,47.59,644.25,67,680.31,87.8c30,17,59,36.08,84.86,59,20.6,20.13,45.34,43.26,48.05,73.56,3.27,17.13-10.43,15.95-22.38,17.55-1,.06-2,.09-3,.09C762.08,238,738.44,218.68,718.7,203.94Z"/></g></g></svg>