<svg xmlns="http://www.w3.org/2000/svg" viewBox="0 0 615.87 475.55"><defs><style>.cls-1{fill:#fff;}</style></defs><g id="Layer_2" data-name="Layer 2"><g id="Layer_1-2" data-name="Layer 1"><path class="cls-1" d="M367,26.54Q345.14,28.61,323.44,32c-1.68.25-3.37.52-5.05.79l-3.05.51-2,.34c-1.17.19-2.34.39-3.5.6-.58.09-1.16.2-1.73.3l-3.54.63h-.07q-15.12,2.73-30.13,6-5.76,12.07-11.53,24.14-21.1,44.13-42.2,88.27-18.7,39.18-37.44,78.34-20.37,42.5-40.67,85l-3.87,8.1-12,25A80.92,80.92,0,0,0,114,351.8l-2.11.38-1.27.23-1.5.29c-.59.11-1.18.23-1.76.36s-1.2.24-1.79.37l-2,.42c-2.15.48-4.3,1-6.43,1.54C77,360.58,57.54,369,41.19,382,15.64,403.6,18.9,429.64,51.58,440.4c23.85,8.47,49.62,6.54,74.48,5.61,17.83-.95,35.59-2.72,53.32-4.78l6-11.76q23.34-45.63,46.7-91.22,23-44.82,45.88-89.64l48-93.86,13-25.28q7.27-14.19,14.54-28.4,9.74-19,19.45-38,9.78-19.18,19.59-38.31-3.44.16-6.85.37Q376.31,25.69,367,26.54ZM604.55,474.32c-4,.22-8,.45-12,.63h-2.36c-3.86.07-7.73-.1-11.58-.15q-25.86-.37-51.74-.72c-4.58-.06-9.18-.19-13.77,0-1.65.06-3.29.13-4.94.22l-3.44.17-5.65.31-15.59.77c-.24-.6-.48-1.2-.72-1.78q-1.23-3-2.47-5.92l-6.76-16.18q-1.95-4.67-3.89-9.33L449.2,393.48q-21-50.19-41.92-100.39-20.59-49.35-41.21-98.71l-14.84-35.5q-5,9.68-9.91,19.35-23.79,46.47-47.57,92.94-23,45-46,89.92-19.63,38.3-39.22,76.6l-8,15.66-5.45,10.53h0l-6.34.77-2.14.25c-2,.25-4,.48-6,.71l-4.67.53-2.58.29-3.63.4c-12.71,1.36-25.43,2.52-38.19,3.27-35.89,1.61-75.1,4.31-106.72-15.82-30.09-17.52-32.22-56-9.6-80.67,24.43-26.68,60-39.78,95.18-45.89q4.26-8.93,8.53-17.84,20.28-42.39,40.54-84.81,18.58-38.9,37.18-77.8Q217.81,103,239,58.77q2.44-5.15,4.9-10.26l4.35-9.09q4.62-9.69,9.25-19.36l4.73-1.1,4.69-1.08,4-.88,2.4-.51c1.69-.37,3.39-.73,5.08-1.08l2.46-.5,2.9-.59,3.78-.75q23-4.52,46.32-7.69A625.07,625.07,0,0,1,401.48.06h3.78c1.64,0,3.29,0,4.94-.06h14.44l3.08.08c.69,1.77,1.4,3.53,2.1,5.3h0l7.71,19.5q9.9,24.93,19.81,49.85,20,50.18,39.87,100.36,19.35,48.67,38.68,97.34l38.64,97.26q15.93,40.07,31.85,80.14,4.11,10.32,8.21,20.67c.42,1.06.87,2.12,1.28,3.19Z"/><path class="cls-1" d="M126.06,446c-24.86.93-50.63,2.85-74.48-5.62C18.9,429.63,15.65,403.59,41.19,382c16.36-13,35.78-21.4,56-26.59,2.14-.55,4.28-1.07,6.43-1.54l2-.42c.6-.13,1.2-.26,1.79-.37l1.76-.36,1.5-.29,1.27-.23,2.11-.37A80.42,80.42,0,0,1,126.78,350q6-12.52,12-25c1.29-2.7,2.58-5.39,3.88-8.09q20.29-42.49,40.6-85Q202,192.82,220.7,153.65q21.09-44.15,42.2-88.28,5.76-12.06,11.53-24.14,15-3.28,30.13-6h.07l3.54-.62,1.73-.31c1.17-.2,2.33-.41,3.5-.6l2-.34,3.05-.5c1.68-.28,3.37-.54,5.06-.8q21.67-3.38,43.54-5.46c8.52-.76,17.06-1.37,25.61-1.78Q382.75,43.89,373,63.08l-19.45,38L339,129.46l-12.94,25.29-48,93.86q-23,44.81-45.89,89.63-23.35,45.6-46.69,91.22l-6,11.76c-16.46,1.92-33,3.58-49.52,4.57Z"/><path class="cls-1" d="M330.17,389.21c-9.07-1.62-17.44-6.25-24.32-12.24-14.21-12.38-20-32.75-15.46-50.85a51.33,51.33,0,0,1,43.17-38.5,41,41,0,0,1,8.71-.43h1.47a9.85,9.85,0,0,1,1.08.1c1.86.17,3.69.44,5.53.77,15.38,2.78,28.55,13.27,35.82,26.92A51.54,51.54,0,0,1,364,384.42q-2.1,1.08-4.29,2a53.83,53.83,0,0,1-6.93,2.24l-.34.08-.68.18a54.22,54.22,0,0,1-6.83,1.08c-.63.07-1.25.12-1.88.16A55.17,55.17,0,0,1,330.17,389.21Z"/></g></g></svg>
