<svg xmlns="http://www.w3.org/2000/svg" viewBox="0 0 615.87 475.55"><defs><style>.cls-1{fill:#fff;}</style></defs><g id="Layer_2" data-name="Layer 2"><g id="Layer_1-2" data-name="Layer 1"><path class="cls-1" d="M615.87,473.69l-11.32.63c-4,.22-8,.45-12,.63h-2.36c-3.86.07-7.73-.1-11.58-.15q-25.86-.37-51.74-.72c-4.58-.06-9.18-.19-13.77,0-1.65.06-3.29.13-4.94.22l-3.44.17-5.65.31-15.59.77c-.24-.6-.48-1.2-.72-1.78q-1.23-3-2.47-5.92l-6.76-16.18q-1.95-4.67-3.89-9.33L449.2,393.48q-21-50.19-41.92-100.39-20.59-49.35-41.21-98.71l-14.84-35.5q-5,9.68-9.91,19.35-23.79,46.47-47.57,92.94-23,45-46,89.92-19.63,38.3-39.22,76.6l-8,15.66-5.45,10.53-6.34.77-2.14.25c-2,.25-4,.48-6,.71l-4.67.53-2.58.29-3.63.4c-12.71,1.36-25.43,2.52-38.19,3.27-35.89,1.61-75.1,4.31-106.72-15.82-30.09-17.52-32.22-56-9.6-80.67,24.43-26.68,60-39.78,95.18-45.89q4.26-8.93,8.53-17.84,20.28-42.39,40.54-84.81,18.58-38.9,37.18-77.8Q217.81,103,239,58.77q2.44-5.15,4.9-10.26l4.35-9.09q4.62-9.69,9.25-19.36l4.73-1.1,4.69-1.08,4-.88,2.4-.51c1.69-.37,3.39-.73,5.08-1.08l2.46-.5,2.9-.59,3.78-.75q23-4.52,46.32-7.69A625.07,625.07,0,0,1,401.48.06h3.78c1.64,0,3.29,0,4.94-.06h14.44l3.08.08c.69,1.77,1.4,3.53,2.1,5.3l7.71,19.5q9.9,24.93,19.81,49.85,20,50.18,39.87,100.36,19.35,48.67,38.68,97.34l38.64,97.26q15.93,40.07,31.85,80.14,4.11,10.32,8.21,20.67C615,471.56,615.46,472.62,615.87,473.69Z"/><path class="cls-1" d="M330.18,389.21c-9.07-1.62-17.44-6.25-24.32-12.24-14.21-12.38-19.95-32.75-15.46-50.85a51.33,51.33,0,0,1,43.17-38.5,41,41,0,0,1,8.71-.43h1.47a9.85,9.85,0,0,1,1.08.1c1.86.17,3.69.44,5.53.77,15.38,2.78,28.55,13.27,35.82,26.92A51.55,51.55,0,0,1,364,384.42q-2.1,1.08-4.29,2a54.86,54.86,0,0,1-6.93,2.24l-.34.08-.68.18A54.8,54.8,0,0,1,345,390c-.63.07-1.25.12-1.88.16A55.13,55.13,0,0,1,330.18,389.21Z"/></g></g></svg>
