<svg xmlns="http://www.w3.org/2000/svg" viewBox="0 0 615.88 475.73"><defs><style>.cls-1{fill:#1f1f1f;}.cls-2{fill:#fff;}.cls-orange{fill:#FA6C43;}</style></defs><g id="Layer_2" data-name="Layer 2"><g id="Layer_1-2" data-name="Layer 1"><path class="cls-1" d="M367,26.66q-21.86,2.07-43.55,5.46c-1.68.25-3.37.52-5.05.79l-3.05.51-2,.34c-1.17.19-2.34.39-3.5.6-.58.09-1.16.2-1.73.3l-3.54.63h-.07q-15.12,2.73-30.13,6-5.76,12.07-11.53,24.14-21.11,44.13-42.2,88.27-18.71,39.18-37.44,78.34Q162.84,274.53,142.54,317l-3.87,8.1q-6,12.51-12,25A80.3,80.3,0,0,0,114,351.92l-2.11.38-1.27.23-1.5.29c-.59.11-1.18.23-1.76.36s-1.2.24-1.79.37-1.3.27-2,.42q-3.23.72-6.43,1.54C77,360.7,57.55,369.1,41.2,382.1c-25.55,21.62-22.29,47.66,10.39,58.42,23.85,8.47,49.62,6.54,74.48,5.61,17.83-.95,35.59-2.72,53.32-4.78q3-5.88,6-11.76,23.34-45.63,46.7-91.22,23-44.82,45.88-89.64l48-93.86L339,129.59q7.27-14.19,14.54-28.4,9.74-19,19.45-38Q382.77,44,392.58,24.88q-3.43.16-6.85.37Q376.32,25.81,367,26.66ZM604.56,474.44c-4,.22-8,.45-12,.63l-1.21,0-1.15,0c-3.86.07-7.73-.1-11.58-.15q-25.86-.37-51.74-.72c-4.58-.06-9.18-.19-13.77,0-1.65.06-3.29.13-4.94.22l-3.44.17-5.65.31-15.59.77c-.24-.6-.48-1.2-.72-1.78q-1.23-3-2.47-5.92l-6.76-16.18q-1.95-4.67-3.89-9.33L449.21,393.6q-21-50.19-41.92-100.39-20.6-49.35-41.21-98.71L351.24,159q-5,9.67-9.91,19.35-23.79,46.47-47.57,92.94-23,45-46,89.92-19.64,38.29-39.22,76.6-4,7.83-8,15.66L195.09,464h0l-6.34.77-2.14.25c-2,.25-4,.48-6,.71l-4.67.53-2.58.29-3.63.4c-12.71,1.36-25.43,2.52-38.19,3.27-35.89,1.61-75.1,4.31-106.72-15.82-30.09-17.52-32.22-56-9.6-80.67,24.43-26.68,60-39.78,95.18-45.89q4.26-8.93,8.53-17.84,20.28-42.39,40.54-84.81,18.58-38.9,37.18-77.8Q217.81,103.13,239,58.89q2.45-5.14,4.9-10.26l4.35-9.09q4.62-9.69,9.25-19.36l4.73-1.1L266.92,18l4-.88,2.4-.51c1.69-.37,3.39-.73,5.08-1.08l2.46-.5,2.9-.59,3.78-.75Q310.58,9.17,333.86,6A624.82,624.82,0,0,1,401.49.18l1.86,0,1.92,0c1.64,0,3.29,0,4.94-.06h7l2.11,0h.24l2.56,0,2.53,0,3.08.08c.69,1.77,1.4,3.53,2.1,5.3h0L437.54,25q9.9,24.93,19.81,49.85,20,50.18,39.87,100.36,19.35,48.67,38.68,97.34t38.64,97.26q15.93,40.07,31.85,80.14,4.11,10.32,8.21,20.67c.42,1.06.87,2.12,1.28,3.19Z"/><path class="cls-2" d="M126.07,446.13c-24.86.93-50.63,2.85-74.48-5.62-32.68-10.76-35.93-36.8-10.39-58.42,16.36-13,35.78-21.4,56-26.59q3.21-.83,6.43-1.54l2-.42c.6-.13,1.2-.26,1.79-.37l1.76-.36,1.5-.29,1.27-.23,2.11-.37a80.47,80.47,0,0,1,12.73-1.78q6-12.52,12-25c1.29-2.7,2.58-5.39,3.88-8.09q20.3-42.49,40.6-84.95,18.73-39.17,37.44-78.33,21.09-44.14,42.2-88.28,5.76-12.06,11.53-24.14,15-3.29,30.13-6h.07l3.54-.62,1.73-.31c1.17-.2,2.33-.41,3.5-.6l2-.34,3.05-.5c1.68-.28,3.37-.54,5.06-.8q21.68-3.37,43.54-5.46c8.52-.76,17.06-1.37,25.61-1.78Q382.76,44,373,63.2l-19.45,38L339,129.58q-6.47,12.64-12.94,25.29-24,46.92-48,93.86-23,44.81-45.89,89.63-23.35,45.6-46.69,91.22l-6,11.76c-16.46,1.92-33,3.58-49.52,4.57Z"/><path class="cls-orange" d="M330.18,389.33c-9.07-1.62-17.44-6.25-24.32-12.24-14.21-12.38-19.95-32.75-15.46-50.85a51.33,51.33,0,0,1,43.17-38.5,41.12,41.12,0,0,1,8.71-.43l.51,0c.28,0,.55,0,.82,0h.14a9.42,9.42,0,0,1,1.08.1c1.86.17,3.69.44,5.53.77,15.38,2.78,28.55,13.27,35.82,26.92a51.54,51.54,0,0,1-26.45,71.41,53.29,53.29,0,0,1-6.93,2.24l-.34.08-.68.18a54.22,54.22,0,0,1-6.83,1.08c-.63.07-1.25.12-1.88.16A54.71,54.71,0,0,1,330.18,389.33Z"/></g></g></svg>